<?xml version="1.0" encoding="UTF-8"?>
<svg xmlns="http://www.w3.org/2000/svg" xmlns:xlink="http://www.w3.org/1999/xlink" width="0" height="0">

	<symbol xmlns="http://www.w3.org/2000/svg" viewBox="20 20 210 42" id="neptune">
		<path style="fill: var(--neptune-color-0);" d="m38.216 46.109 -8.772 -17.675h-5.875v23.509h4.098V33.431l9.256 18.512h5.39V28.435h-4.098zm18.957 -10.821c-1.191 -0.686 -2.554 -1.03 -4.098 -1.03 -1.595 0 -3.018 0.363 -4.28 1.09s-2.241 1.777 -2.958 3.149 -1.07 2.988 -1.07 4.845c0 2.009 0.353 3.694 1.05 5.047s1.666 2.362 2.907 3.038c1.231 0.666 2.685 0.999 4.34 0.999 1.474 0 2.776 -0.252 3.886 -0.767 1.11 -0.505 2.009 -1.231 2.675 -2.16s1.08 -2.019 1.231 -3.281h-4.179c-0.151 0.959 -0.535 1.706 -1.161 2.221 -0.616 0.515 -1.393 0.777 -2.332 0.777 -0.878 0 -1.635 -0.202 -2.271 -0.616s-1.131 -1.019 -1.464 -1.827q-0.409 -0.984 -0.485 -2.362h11.961c0.01 -0.373 0.02 -0.828 0.02 -1.363 0 -1.847 -0.323 -3.432 -0.979 -4.754 -0.686 -1.312 -1.605 -2.322 -2.796 -3.008m-6.319 2.725c0.616 -0.414 1.322 -0.616 2.13 -0.616 0.777 0 1.433 0.172 1.989 0.515 0.545 0.343 0.959 0.868 1.242 1.565 0.222 0.535 0.353 1.181 0.404 1.918h-7.611q0.121 -0.878 0.424 -1.575c0.343 -0.787 0.818 -1.393 1.423 -1.807m35.813 -8.398H83.275l-0.081 1.686c-0.04 0.828 -0.182 1.494 -0.414 1.999s-0.585 0.868 -1.05 1.09 -1.06 0.333 -1.797 0.333h-0.363v3.21h2.947v9.327c0 1.191 0.212 2.15 0.636 2.887s1.03 1.262 1.807 1.595 1.706 0.505 2.806 0.505c0.434 0 0.848 -0.03 1.242 -0.081s0.767 -0.131 1.11 -0.232v-3.2c-0.404 0.101 -0.838 0.151 -1.312 0.151 -0.686 0 -1.221 -0.162 -1.595 -0.474s-0.555 -0.848 -0.555 -1.595v-8.883h3.755V34.723h-3.755v-5.108zm56.113 13.445c0 -1.847 -0.323 -3.432 -0.979 -4.754s-1.575 -2.332 -2.776 -3.018c-1.191 -0.686 -2.554 -1.03 -4.098 -1.03 -1.595 0 -3.018 0.363 -4.28 1.09s-2.241 1.777 -2.958 3.149 -1.07 2.988 -1.07 4.845c0 2.009 0.353 3.694 1.05 5.047s1.666 2.362 2.907 3.038c1.231 0.666 2.685 0.999 4.34 0.999 1.474 0 2.776 -0.252 3.886 -0.767 1.11 -0.505 2.009 -1.231 2.675 -2.16s1.08 -2.019 1.231 -3.281h-4.179c-0.151 0.959 -0.535 1.706 -1.161 2.221 -0.616 0.515 -1.393 0.777 -2.332 0.777 -0.878 0 -1.635 -0.202 -2.271 -0.616s-1.131 -1.019 -1.464 -1.827q-0.409 -0.984 -0.485 -2.362h11.961zm-10.064 -5.047c0.616 -0.414 1.322 -0.616 2.13 -0.616 0.777 0 1.433 0.172 1.989 0.515 0.545 0.343 0.959 0.868 1.242 1.565 0.222 0.535 0.353 1.181 0.404 1.918h-7.611q0.121 -0.878 0.424 -1.575c0.333 -0.787 0.808 -1.393 1.423 -1.807m-56.678 -2.665c-1.04 -0.737 -2.281 -1.1 -3.694 -1.1 -0.939 0 -1.797 0.182 -2.564 0.545s-1.423 0.878 -1.948 1.565c-0.202 0.262 -0.373 0.545 -0.535 0.838V34.723h-4.169v22.318h4.169v-7.813l0.495 0.858c0.444 0.777 1.1 1.433 1.918 1.807 0.01 0 0.01 0.01 0.02 0.01 0.747 0.343 1.575 0.505 2.513 0.505 1.433 0 2.675 -0.373 3.735 -1.11s1.877 -1.787 2.443 -3.159c0.565 -1.363 0.848 -2.978 0.848 -4.825 0 -1.857 -0.273 -3.472 -0.828 -4.835 -0.565 -1.343 -1.363 -2.392 -2.402 -3.129m-1.514 11.043c-0.283 0.868 -0.707 1.544 -1.282 2.029 -0.565 0.485 -1.272 0.717 -2.1 0.717 -0.818 0 -1.524 -0.242 -2.1 -0.717 -0.575 -0.485 -1.019 -1.161 -1.312 -2.029s-0.444 -1.888 -0.444 -3.038c0 -1.161 0.151 -2.17 0.444 -3.048s0.737 -1.554 1.312 -2.049 1.282 -0.737 2.1 -0.737c0.828 0 1.534 0.242 2.1 0.737s0.999 1.171 1.282 2.039q0.424 1.302 0.424 3.058c0 1.161 -0.141 2.17 -0.424 3.038m28.203 -1.726q0 1.423 -0.454 2.423c-0.303 0.666 -0.717 1.171 -1.242 1.524 -0.535 0.353 -1.151 0.525 -1.857 0.525 -0.929 0 -1.635 -0.262 -2.13 -0.797s-0.737 -1.272 -0.737 -2.221V34.723h-4.169v11.891c0 1.201 0.222 2.241 0.656 3.109q0.651 1.302 1.908 1.999c0.838 0.464 1.837 0.696 3.008 0.696 0.999 0 1.888 -0.182 2.665 -0.555 0.01 0 0.01 -0.01 0.02 -0.01 0.919 -0.444 1.645 -1.181 2.15 -2.059l0.313 -0.545v2.695h4.017V34.723h-4.149zm19.401 -9.68c-0.818 -0.485 -1.787 -0.727 -2.927 -0.727q-1.529 0 -2.725 0.545c-0.01 0 -0.01 0.01 -0.02 0.01 -0.929 0.434 -1.676 1.181 -2.18 2.069l-0.323 0.555V34.723h-4.068v17.22h4.169v-9.842c0 -0.969 0.151 -1.807 0.454 -2.493s0.727 -1.211 1.282 -1.554c0.555 -0.353 1.191 -0.525 1.928 -0.525 0.908 0 1.595 0.252 2.059 0.767q0.696 0.772 0.696 2.211v11.426h4.169V40.154q0 -1.787 -0.636 -3.119c-0.444 -0.878 -1.06 -1.565 -1.877 -2.049" />
		<path style="fill: var(--neptune-color-1);" d="M162.786 24.538c-2.513 0.989 -4.835 2.614 -6.702 4.875 -2.574 3.109 -3.846 6.945 -3.846 10.76s1.272 7.651 3.846 10.76c1.867 2.261 4.179 3.876 6.702 4.875 7.631 3.018 16.322 -0.212 20.43 -7.318l4.795 -8.317 -4.795 -8.317c-4.108 -7.096 -12.799 -10.326 -20.43 -7.318"/>
		<path style="fill: var(--neptune-color-1);" d="M214.558 24.841h-17.695L188.011 40.174l8.852 15.333 8.842 -15.333h17.705z" />
	</symbol>

  <symbol xmlns="http://www.w3.org/2000/svg" viewBox="0 0 455 225" id="sap">
    <linearGradient id="a" x2="0" y2="225" gradientUnits="userSpaceOnUse">
      <stop stop-color="#0ae"></stop>
      <stop stop-color="#05a" offset="1"></stop>
    </linearGradient>
    <path d="m455 0h-455v225h230" fill="url(#a)"></path>
    <path d="m225 45v106l-39-106h-39l-33 88c-4-22-27-30-45-36-12-4-25-9-25-16 0-5 7-10 20-9 9 1 17 1 33 9l16-27c-15-8-35-12-51-12-19 0-35 6-45 16-7 7-10 16-11 26 0 14 5 24 16 32 9 6 20 10 30 13 13 4 23 8 23 15-1 9-11 11-18 11-12 1-22-1-37-10l-14 27c15 9 31 13 50 13 13 0 33-4 44-14l-2 9h38l7-17c15 4 32 5 47 0l5 17h68v-40h14c35 0 56-17 56-47 0-34-20-48-63-48zm-73 88 14-45h1l14 45c-10 3-20 3-29 0zm111-23v-36h10c13 0 23 4 23 17 0 14-10 19-23 19z" fill="#fff"></path>
  </symbol>
	
  <symbol xmlns="http://www.w3.org/2000/svg" xmlns:xlink="http://www.w3.org/1999/xlink" viewBox="0 0 89 15.086" id="emixa">
		<path style="fill: var(--emixa-color);" d="M196.855,0H199.3a.385.385,0,0,1,.317.167l3.513,5.108L206.637.169A.385.385,0,0,1,206.954,0h2.46a.385.385,0,0,1,.317.6L199.893,14.92a.384.384,0,0,1-.317.167h-2.46a.385.385,0,0,1-.317-.6l4.639-6.75-4.9-7.129a.385.385,0,0,1,.317-.6M206.5,10.191l2.945,4.293a.385.385,0,0,1-.317.6h-2.451a.384.384,0,0,1-.317-.167l-1.56-2.269Z" transform="translate(-143.104 -0.001)"></path>
		<path style="fill: var(--emixa-color);" d="M0,12.093V14.73q0-1.483,0-2.637ZM0,.385V2.554a.385.385,0,0,0,.385.385H9.206a.385.385,0,0,0,.315-.164L11.045.606A.385.385,0,0,0,10.73,0H.385A.385.385,0,0,0,0,.385" transform="translate(0 0)"></path>
		<path style="fill: var(--emixa-color);" d="M11.086,25.069H3.39v3.164h7.7a.385.385,0,0,1,.385.385v2.224a.385.385,0,0,1-.385.385H.385A.385.385,0,0,1,0,30.842v-8.3a.385.385,0,0,1,.385-.385h10.7a.385.385,0,0,1,.385.385v2.139a.385.385,0,0,1-.385.385" transform="translate(0 -16.141)"></path>
		<path style="fill: var(--emixa-color);" d="M75.375,4.906l-.012,9.8a.385.385,0,0,1-.385.385H72.363a.385.385,0,0,1-.385-.385V.385A.385.385,0,0,1,72.363,0h2.8a.384.384,0,0,1,.316.165l4.073,5.841L83.643.164A.386.386,0,0,1,83.959,0h2.8a.385.385,0,0,1,.385.385l0,14.316a.385.385,0,0,1-.385.385h-2.62a.385.385,0,0,1-.385-.385V4.892l-3.879,5.591a.385.385,0,0,1-.632,0Z" transform="translate(-52.427 0)"></path>
		<path style="fill: var(--emixa-color);" d="M156.858.006l2.62,0a.385.385,0,0,1,.385.385V14.705a.385.385,0,0,1-.385.385h-2.62a.385.385,0,0,1-.385-.385V.391a.385.385,0,0,1,.385-.385" transform="translate(-113.971 -0.004)"></path>
		<path style="fill: var(--emixa-color);" d="M270.488,14.55C271.541,12.086,275.9,1.9,276.613.232A.383.383,0,0,1,276.967,0h2.582a.383.383,0,0,1,.354.233c.71,1.673,5.029,11.861,6.061,14.319a.385.385,0,0,1-.355.534h-2.667a.385.385,0,0,1-.356-.238L278.194,4.209,273.8,14.848a.385.385,0,0,1-.356.238h-2.6a.385.385,0,0,1-.354-.536" transform="translate(-196.994 0)"></path>
  </symbol>

  <symbol xmlns="http://www.w3.org/2000/svg" xmlns:xlink="http://www.w3.org/1999/xlink" viewBox="0 0 650 135" id="innov8ion">
    <path style="fill: var(--innov8ion-color);" d="M25,27.8h14.5v84.5H25V27.8z"></path>
    <path style="fill: var(--innov8ion-color);" d="M437.3,48.9h14.5v63.4h-14.5V48.9z"></path>
    <g>
      <g>
        <polygon style="fill: var(--innov8ion-color);" points="46.4,112.4 61,112.4 61,56.9 46.4,36.1"></polygon>
        <polygon style="fill: var(--innov8ion-color);" points="120.7,28.1 105,28.1 105,74.2 120.7,96.5"></polygon>
        <polygon style="fill: var(--innov8ion-color);" points="67.5,28.1 61,28.1 46.4,28.1 46.4,29.5 79.5,76.7 79.5,76.7 105,112.4 120.7,112.4 120.7,103.2 95.1,66.7"></polygon>
      </g>
    </g>
    <g>
      <g>
        <polygon style="fill: var(--innov8ion-color);" points="625,96.7 625,28.1 609.4,28.1 609.4,74.4"></polygon>
        <polygon style="fill: var(--innov8ion-color);" points="550.7,36.3 550.7,112.4 565.3,112.4 565.3,57.1"></polygon>
        <polygon style="fill: var(--innov8ion-color);" points="594.8,60.1 571.9,28.1 565.3,28.1 550.7,28.1 550.7,29.6 579.7,71.1 609.4,112.4 625,112.4 625,103.3"></polygon>
      </g>
    </g>
    <g>
      <g>
        <polygon style="fill: var(--innov8ion-color);" points="204.4,97 204.4,28.1 188.8,28.1 188.8,74.6"></polygon>
        <path style="fill: var(--innov8ion-color);" d="M169.6,53.8c-0.1-0.1-0.1-0.2-0.1-0.3l-18.1-25.3h-6.6h-14.6v1.8l21,30l37.7,52.5h15.6v-8.8L169.6,53.8z"></path>
        <polygon style="fill: var(--innov8ion-color);" points="130.1,36.5 130.1,112.4 144.7,112.4 144.7,57.3"></polygon>
      </g>
    </g>
    <g>
      <g>
        <polygon style="fill: var(--innov8ion-color);" points="338.5,110.1 365.7,28.4 346.6,28.4 329.6,81.6"></polygon>
        <path style="fill: var(--innov8ion-color);" d="M318.6,59.5c0-0.1,0-0.1,0-0.2l-9.8-30.9h-19l27.3,83.9h18.2L318.6,59.5z"></path>
      </g>
    </g>
    <g>
      <g>
        <path style="fill: var(--innov8ion-color);" d="M250.8,95.5c-2.8-0.2-5.5-0.8-8-2c-3.1-1.4-5.8-3.2-8.1-5.5c-2.3-2.3-4.2-5-5.5-8.1c-1.4-3.1-2.1-6.4-2.1-9.9 c0-3.5,0.7-6.8,2.1-9.9c1.4-3.1,3.2-5.8,5.5-8.2c2.3-2.3,5-4.2,8.1-5.6c2.5-1.1,5.2-1.8,8-2V26.6c-5.3,0.2-10.3,1.3-15,3.3 c-5.3,2.3-9.8,5.4-13.8,9.3c-3.9,3.9-7,8.5-9.3,13.8c-2.3,5.3-3.4,11-3.4,17c0,6,1.1,11.7,3.4,16.9c2.3,5.3,5.4,9.8,9.3,13.8 c3.9,3.9,8.5,7,13.8,9.3c4.7,2,9.7,3.1,15,3.3V95.5z"></path>
        <path style="fill: var(--innov8ion-color);" d="M292.8,53c-2.3-5.3-5.4-9.9-9.3-13.8c-3.9-3.9-8.5-7-13.8-9.3c-4.7-2-9.7-3.1-15-3.3v17.8 c2.8,0.2,5.5,0.8,8,2c3.1,1.4,5.7,3.2,8.1,5.6c2.3,2.4,4.1,5.1,5.5,8.2c1.3,3.1,2,6.4,2,9.9c0,3.5-0.7,6.8-2,9.9 c-1.3,3.1-3.2,5.8-5.5,8.1c-2.3,2.3-5,4.2-8.1,5.5c-2.5,1.1-5.2,1.8-8,2v17.8c5.3-0.2,10.3-1.3,15-3.3c5.3-2.3,9.9-5.4,13.8-9.3 c3.9-3.9,7-8.5,9.3-13.8c2.3-5.2,3.5-10.9,3.5-16.9C296.2,63.9,295.1,58.3,292.8,53z"></path>
      </g>
    </g>
    <g>
      <g>
        <path style="fill: var(--innov8ion-color);" d="M396.8,98.5h-7.5c-5,0-6.5-2.4-7.2-4.1l0,0c-0.4-0.9-0.5-1.4-0.5-1.6l0-0.1l0-9.4c0-0.2,0.1-0.5,0.2-1.1 c0.6-2.7,2.3-4.1,5.3-4.5c0.2,0,0.3,0,0.6-0.1l0-15.5c-0.1,0-0.3,0-1-0.2c-2.8-0.7-4.4-2.3-4.8-5c-0.2-1.2-0.2-1.5-0.2-1.5v-7.6 c0-4.3,2-6.2,6.5-6.2l8.7,0V26.1h-8c-1.4,0-2.8,0.1-4,0.3c-8,1.1-13.6,4.8-16.6,11.1c-1.4,2.9-2.1,5.6-2.1,8.1v9.4 c0,1,0.1,2.2,0.3,3.4c0.8,5.3,2.8,9.3,5.9,11.7c-3.1,2.4-5.1,6.3-5.9,11.6c-0.2,1.2-0.3,2.3-0.3,3.4v9.4l0,0.2 c0.8,7.6,4.5,13.3,11.1,16.7c3.3,1.7,7.2,2.6,11.5,2.6h8V98.5z"></path>
        <path style="fill: var(--innov8ion-color);" d="M430,58.3c0.2-1.2,0.3-2.3,0.3-3.4v-9.4c0-2.5-0.7-5.2-2.1-8.1c-3.7-7.5-10.6-11.3-20.6-11.3h-7v15.5l8.5,0 c3.3,0.3,5,1.7,5.5,4.6c0.2,1.1,0.2,1.5,0.2,1.5v7.6c0,3.6-1.7,5.7-5.5,6.5c-0.7,0.2-1.2,0.2-1.4,0.2l0,15.5 c0.4,0.1,0.6,0.1,0.7,0.1c4.6,0.5,5.6,2.8,6,4.7c0.1,0.3,0.2,0.6,0.2,0.8v9.1c0,1.9-0.5,3.2-1.7,3.9l-0.3,0.2 c-1.4,1.4-3.5,2.1-6.5,2.1h-5.8v15.5h7c4.5,0,8.4-0.9,11.5-2.6c7.4-4.1,11.1-9.8,11.1-16.9V85c0-1-0.1-2.2-0.3-3.4 c-0.8-5.3-2.8-9.2-5.9-11.6C427.3,67.5,429.2,63.6,430,58.3z"></path>
      </g>
    </g>
    <g>
      <g>
        <path style="fill: var(--innov8ion-color);" d="M501.2,95.5c-3.2-0.1-6.2-0.8-9-2c-3.1-1.4-5.8-3.2-8.1-5.5c-2.3-2.3-4.2-5-5.5-8.1c-1.4-3.1-2.1-6.4-2.1-9.9 c0-3.5,0.7-6.8,2.1-9.9c1.4-3.1,3.2-5.8,5.5-8.2c2.3-2.3,5-4.2,8.1-5.6c2.8-1.2,5.8-1.9,9-2V26.5c-5.7,0.1-11,1.2-16,3.4 c-5.3,2.3-9.8,5.4-13.8,9.3c-3.9,3.9-7,8.5-9.3,13.8c-2.3,5.3-3.4,11-3.4,17c0,6,1.1,11.7,3.4,16.9c2.3,5.3,5.4,9.8,9.3,13.8 c3.9,3.9,8.5,7,13.8,9.3c5,2.1,10.3,3.2,16,3.4V95.5z"></path>
        <path style="fill: var(--innov8ion-color);" d="M542.2,53c-2.3-5.3-5.4-9.9-9.3-13.8c-3.9-3.9-8.5-7-13.8-9.3c-4.4-1.9-9.1-3-14-3.3v17.8 c2.5,0.3,4.8,0.9,7,1.9c3.1,1.4,5.7,3.2,8.1,5.6c2.3,2.4,4.1,5.1,5.5,8.2c1.3,3.1,2,6.4,2,9.9c0,3.5-0.7,6.8-2,9.9 c-1.3,3.1-3.2,5.8-5.5,8.1c-2.3,2.3-5,4.2-8.1,5.5c-2.2,1-4.6,1.6-7,1.9v17.8c4.9-0.3,9.6-1.4,14-3.3c5.3-2.3,9.9-5.4,13.8-9.3 c3.9-3.9,7-8.5,9.3-13.8c2.3-5.2,3.5-10.9,3.5-16.9C545.6,63.9,544.5,58.3,542.2,53z"></path>
      </g>
    </g>
    <rect style="fill: var(--innov8ion-color);" x="437.3" y="28.1" width="14.5" height="16.1"></rect>
    <path style="fill: var(--innov8ion-color);" d="M405.8,57c1.2,0,2.2-1,2.2-2.2v-6.5c0-1.2-1-2.2-2.2-2.2h-16c-1.2,0-2.2,1-2.2,2.2v6.5c0,1.2,1,2.2,2.2,2.2h6.1 v25.3h-6.1c-1.2,0-2.2,1-2.2,2.2v6.5c0,1.2,1,2.2,2.2,2.2h16c1.2,0,2.2-1,2.2-2.2v-6.5c0-1.2-1-2.2-2.2-2.2h-6.1V57H405.8z"></path>
  </symbol>

</svg>