<?xml version="1.0" encoding="UTF-8"?>
<svg xmlns="http://www.w3.org/2000/svg" xmlns:xlink="http://www.w3.org/1999/xlink" width="0" height="0">

	<symbol id="sap" xmlns="http://www.w3.org/2000/svg" viewBox="0 0 455 225">
    <linearGradient id="a" x2="0" y2="225" gradientUnits="userSpaceOnUse">
      <stop stop-color="#0ae"></stop>
      <stop stop-color="#05a" offset="1"></stop>
    </linearGradient>
    <path d="m455 0h-455v225h230" fill="url(#a)"></path>
    <path d="m225 45v106l-39-106h-39l-33 88c-4-22-27-30-45-36-12-4-25-9-25-16 0-5 7-10 20-9 9 1 17 1 33 9l16-27c-15-8-35-12-51-12-19 0-35 6-45 16-7 7-10 16-11 26 0 14 5 24 16 32 9 6 20 10 30 13 13 4 23 8 23 15-1 9-11 11-18 11-12 1-22-1-37-10l-14 27c15 9 31 13 50 13 13 0 33-4 44-14l-2 9h38l7-17c15 4 32 5 47 0l5 17h68v-40h14c35 0 56-17 56-47 0-34-20-48-63-48zm-73 88 14-45h1l14 45c-10 3-20 3-29 0zm111-23v-36h10c13 0 23 4 23 17 0 14-10 19-23 19z" fill="#fff"></path>
  </symbol>

  <symbol id="expertum" xmlns="http://www.w3.org/2000/svg" viewbox="0 0 1863 380">
    <path d="M212.76 218.01C204.88 263.54 165.04 293.31 110.76 293.31C42.46 293.31 0 239.46 0 178.17C0 116.45 38.52 65.67 106.38 65.67C174.67 65.67 211.01 114.26 211.01 170.3C211.01 175.99 210.57 183 210.13 186.94H41.59C45.09 228.53 72.23 256.98 110.76 256.98C143.16 256.98 164.17 242.97 170.3 218.02H212.76V218.01ZM42.9 155.85H168.1C165.47 122.14 142.71 99.82 106.37 99.82C71.79 99.81 49.47 119.07 42.9 155.85Z" fill="#ffffff"></path>
    <path d="M481.51 69.17H523.97V102C537.1 80.11 563.81 65.66 594.45 65.66C660.99 65.66 699.08 113.82 699.08 179.48C699.08 245.14 659.24 293.3 592.26 293.3C562.93 293.3 536.66 279.73 523.97 258.72V379.11H481.51V69.17ZM656.18 179.49C656.18 133.52 629.04 102.88 588.33 102.88C547.18 102.88 520.48 133.52 520.48 179.49C520.48 225.46 547.18 256.1 588.33 256.1C629.04 256.1 656.18 225.45 656.18 179.49Z" fill="#ffffff"></path>
    <path d="M309.453 179.493L228.143 260.803L258.167 290.826L339.476 209.517L309.453 179.493Z" fill="#ffffff"></path>
    <path d="M420.803 68.1449L339.493 149.454L369.517 179.478L450.826 98.1684L420.803 68.1449Z" fill="#ffffff"></path>
    <path d="M258.178 68.153L228.155 98.1765L309.464 179.486L339.488 149.462L258.178 68.153Z" fill="#ffffff"></path>
    <path d="M369.527 179.503L339.503 209.526L420.813 290.836L450.836 260.812L369.527 179.503Z" fill="#ffffff"></path>
    <path d="M940.2 218.01C932.32 263.54 892.48 293.31 838.2 293.31C769.91 293.31 727.44 239.46 727.44 178.18C727.44 116.45 765.96 65.67 833.82 65.67C902.11 65.67 938.45 114.26 938.45 170.3C938.45 175.99 938.01 183 937.57 186.94H769.03C772.53 228.53 799.67 256.98 838.2 256.98C870.6 256.98 891.61 242.97 897.74 218.02H940.2V218.01ZM770.34 155.85H895.54C892.91 122.14 870.15 99.82 833.81 99.82C799.24 99.81 776.91 119.07 770.34 155.85Z" fill="#ffffff"></path>
    <path d="M1071.13 105.94C1030.85 105.94 1017.72 141.84 1017.72 189.99V289.8H975.26V69.17H1017.72V111.63C1027.79 82.3 1045.3 69.17 1076.38 69.17H1103.08V105.94H1071.13Z" fill="#ffffff"></path>
    <path d="M1178.47 0V69.17H1264.05V105.94H1178.47V214.51C1178.47 238.15 1191.17 251.28 1212.62 251.28H1264.06V289.8H1209.12C1164.47 289.8 1136.01 262.66 1136.01 217.57V0H1178.47Z" fill="#ffffff"></path>
    <path d="M1493.35 289.81H1450.89V250.85C1439.07 278.43 1412.8 293.31 1379.97 293.31C1330.06 293.31 1297.67 257.41 1297.67 204.88V69.17H1340.13V196.56C1340.13 231.58 1360.71 255.22 1391.79 255.22C1426.37 255.22 1450.89 227.2 1450.89 188.68V69.17H1493.35V289.81Z" fill="#ffffff"></path>
    <path d="M1534.15 69.17H1576.61V108.57C1585.8 83.62 1609.44 65.67 1641.84 65.67C1677.74 65.67 1704.44 81.87 1713.2 110.76C1721.96 85.81 1750.85 65.67 1784.99 65.67C1832.71 65.67 1862.48 98.5 1862.48 149.72V289.81H1820.02V161.54C1820.02 126.52 1802.51 102.88 1773.18 102.88C1739.47 102.88 1719.33 126.52 1719.33 161.54V289.81H1676.87V161.54C1676.87 126.52 1659.36 102.88 1630.47 102.88C1596.76 102.88 1576.62 126.52 1576.62 161.54V289.81H1534.16V69.17H1534.15Z" fill="#ffffff"></path>
  </symbol>

</svg>
