<?xml version="1.0" encoding="UTF-8"?>
<svg xmlns="http://www.w3.org/2000/svg" xmlns:xlink="http://www.w3.org/1999/xlink" width="0" height="0">

	<symbol xmlns="http://www.w3.org/2000/svg" viewBox="20 20 210 42" id="neptune">
		<path style="fill: var(--neptune-color-0);" d="m38.216 46.109 -8.772 -17.675h-5.875v23.509h4.098V33.431l9.256 18.512h5.39V28.435h-4.098zm18.957 -10.821c-1.191 -0.686 -2.554 -1.03 -4.098 -1.03 -1.595 0 -3.018 0.363 -4.28 1.09s-2.241 1.777 -2.958 3.149 -1.07 2.988 -1.07 4.845c0 2.009 0.353 3.694 1.05 5.047s1.666 2.362 2.907 3.038c1.231 0.666 2.685 0.999 4.34 0.999 1.474 0 2.776 -0.252 3.886 -0.767 1.11 -0.505 2.009 -1.231 2.675 -2.16s1.08 -2.019 1.231 -3.281h-4.179c-0.151 0.959 -0.535 1.706 -1.161 2.221 -0.616 0.515 -1.393 0.777 -2.332 0.777 -0.878 0 -1.635 -0.202 -2.271 -0.616s-1.131 -1.019 -1.464 -1.827q-0.409 -0.984 -0.485 -2.362h11.961c0.01 -0.373 0.02 -0.828 0.02 -1.363 0 -1.847 -0.323 -3.432 -0.979 -4.754 -0.686 -1.312 -1.605 -2.322 -2.796 -3.008m-6.319 2.725c0.616 -0.414 1.322 -0.616 2.13 -0.616 0.777 0 1.433 0.172 1.989 0.515 0.545 0.343 0.959 0.868 1.242 1.565 0.222 0.535 0.353 1.181 0.404 1.918h-7.611q0.121 -0.878 0.424 -1.575c0.343 -0.787 0.818 -1.393 1.423 -1.807m35.813 -8.398H83.275l-0.081 1.686c-0.04 0.828 -0.182 1.494 -0.414 1.999s-0.585 0.868 -1.05 1.09 -1.06 0.333 -1.797 0.333h-0.363v3.21h2.947v9.327c0 1.191 0.212 2.15 0.636 2.887s1.03 1.262 1.807 1.595 1.706 0.505 2.806 0.505c0.434 0 0.848 -0.03 1.242 -0.081s0.767 -0.131 1.11 -0.232v-3.2c-0.404 0.101 -0.838 0.151 -1.312 0.151 -0.686 0 -1.221 -0.162 -1.595 -0.474s-0.555 -0.848 -0.555 -1.595v-8.883h3.755V34.723h-3.755v-5.108zm56.113 13.445c0 -1.847 -0.323 -3.432 -0.979 -4.754s-1.575 -2.332 -2.776 -3.018c-1.191 -0.686 -2.554 -1.03 -4.098 -1.03 -1.595 0 -3.018 0.363 -4.28 1.09s-2.241 1.777 -2.958 3.149 -1.07 2.988 -1.07 4.845c0 2.009 0.353 3.694 1.05 5.047s1.666 2.362 2.907 3.038c1.231 0.666 2.685 0.999 4.34 0.999 1.474 0 2.776 -0.252 3.886 -0.767 1.11 -0.505 2.009 -1.231 2.675 -2.16s1.08 -2.019 1.231 -3.281h-4.179c-0.151 0.959 -0.535 1.706 -1.161 2.221 -0.616 0.515 -1.393 0.777 -2.332 0.777 -0.878 0 -1.635 -0.202 -2.271 -0.616s-1.131 -1.019 -1.464 -1.827q-0.409 -0.984 -0.485 -2.362h11.961zm-10.064 -5.047c0.616 -0.414 1.322 -0.616 2.13 -0.616 0.777 0 1.433 0.172 1.989 0.515 0.545 0.343 0.959 0.868 1.242 1.565 0.222 0.535 0.353 1.181 0.404 1.918h-7.611q0.121 -0.878 0.424 -1.575c0.333 -0.787 0.808 -1.393 1.423 -1.807m-56.678 -2.665c-1.04 -0.737 -2.281 -1.1 -3.694 -1.1 -0.939 0 -1.797 0.182 -2.564 0.545s-1.423 0.878 -1.948 1.565c-0.202 0.262 -0.373 0.545 -0.535 0.838V34.723h-4.169v22.318h4.169v-7.813l0.495 0.858c0.444 0.777 1.1 1.433 1.918 1.807 0.01 0 0.01 0.01 0.02 0.01 0.747 0.343 1.575 0.505 2.513 0.505 1.433 0 2.675 -0.373 3.735 -1.11s1.877 -1.787 2.443 -3.159c0.565 -1.363 0.848 -2.978 0.848 -4.825 0 -1.857 -0.273 -3.472 -0.828 -4.835 -0.565 -1.343 -1.363 -2.392 -2.402 -3.129m-1.514 11.043c-0.283 0.868 -0.707 1.544 -1.282 2.029 -0.565 0.485 -1.272 0.717 -2.1 0.717 -0.818 0 -1.524 -0.242 -2.1 -0.717 -0.575 -0.485 -1.019 -1.161 -1.312 -2.029s-0.444 -1.888 -0.444 -3.038c0 -1.161 0.151 -2.17 0.444 -3.048s0.737 -1.554 1.312 -2.049 1.282 -0.737 2.1 -0.737c0.828 0 1.534 0.242 2.1 0.737s0.999 1.171 1.282 2.039q0.424 1.302 0.424 3.058c0 1.161 -0.141 2.17 -0.424 3.038m28.203 -1.726q0 1.423 -0.454 2.423c-0.303 0.666 -0.717 1.171 -1.242 1.524 -0.535 0.353 -1.151 0.525 -1.857 0.525 -0.929 0 -1.635 -0.262 -2.13 -0.797s-0.737 -1.272 -0.737 -2.221V34.723h-4.169v11.891c0 1.201 0.222 2.241 0.656 3.109q0.651 1.302 1.908 1.999c0.838 0.464 1.837 0.696 3.008 0.696 0.999 0 1.888 -0.182 2.665 -0.555 0.01 0 0.01 -0.01 0.02 -0.01 0.919 -0.444 1.645 -1.181 2.15 -2.059l0.313 -0.545v2.695h4.017V34.723h-4.149zm19.401 -9.68c-0.818 -0.485 -1.787 -0.727 -2.927 -0.727q-1.529 0 -2.725 0.545c-0.01 0 -0.01 0.01 -0.02 0.01 -0.929 0.434 -1.676 1.181 -2.18 2.069l-0.323 0.555V34.723h-4.068v17.22h4.169v-9.842c0 -0.969 0.151 -1.807 0.454 -2.493s0.727 -1.211 1.282 -1.554c0.555 -0.353 1.191 -0.525 1.928 -0.525 0.908 0 1.595 0.252 2.059 0.767q0.696 0.772 0.696 2.211v11.426h4.169V40.154q0 -1.787 -0.636 -3.119c-0.444 -0.878 -1.06 -1.565 -1.877 -2.049" />
		<path style="fill: var(--neptune-color-1);" d="M162.786 24.538c-2.513 0.989 -4.835 2.614 -6.702 4.875 -2.574 3.109 -3.846 6.945 -3.846 10.76s1.272 7.651 3.846 10.76c1.867 2.261 4.179 3.876 6.702 4.875 7.631 3.018 16.322 -0.212 20.43 -7.318l4.795 -8.317 -4.795 -8.317c-4.108 -7.096 -12.799 -10.326 -20.43 -7.318"/>
		<path style="fill: var(--neptune-color-1);" d="M214.558 24.841h-17.695L188.011 40.174l8.852 15.333 8.842 -15.333h17.705z" />
	</symbol>

  <symbol xmlns="http://www.w3.org/2000/svg" viewBox="0 0 455 225" id="sap">
    <linearGradient id="a" x2="0" y2="225" gradientUnits="userSpaceOnUse">
      <stop stop-color="#0ae"></stop>
      <stop stop-color="#05a" offset="1"></stop>
    </linearGradient>
    <path d="m455 0h-455v225h230" fill="url(#a)"></path>
    <path d="m225 45v106l-39-106h-39l-33 88c-4-22-27-30-45-36-12-4-25-9-25-16 0-5 7-10 20-9 9 1 17 1 33 9l16-27c-15-8-35-12-51-12-19 0-35 6-45 16-7 7-10 16-11 26 0 14 5 24 16 32 9 6 20 10 30 13 13 4 23 8 23 15-1 9-11 11-18 11-12 1-22-1-37-10l-14 27c15 9 31 13 50 13 13 0 33-4 44-14l-2 9h38l7-17c15 4 32 5 47 0l5 17h68v-40h14c35 0 56-17 56-47 0-34-20-48-63-48zm-73 88 14-45h1l14 45c-10 3-20 3-29 0zm111-23v-36h10c13 0 23 4 23 17 0 14-10 19-23 19z" fill="#fff"></path>
  </symbol>
	
  <symbol xmlns="http://www.w3.org/2000/svg" xmlns:xlink="http://www.w3.org/1999/xlink" viewBox="0 0 89 15.086" id="emixa">
		<path style="fill: var(--emixa-color);" d="M196.855,0H199.3a.385.385,0,0,1,.317.167l3.513,5.108L206.637.169A.385.385,0,0,1,206.954,0h2.46a.385.385,0,0,1,.317.6L199.893,14.92a.384.384,0,0,1-.317.167h-2.46a.385.385,0,0,1-.317-.6l4.639-6.75-4.9-7.129a.385.385,0,0,1,.317-.6M206.5,10.191l2.945,4.293a.385.385,0,0,1-.317.6h-2.451a.384.384,0,0,1-.317-.167l-1.56-2.269Z" transform="translate(-143.104 -0.001)"></path>
		<path style="fill: var(--emixa-color);" d="M0,12.093V14.73q0-1.483,0-2.637ZM0,.385V2.554a.385.385,0,0,0,.385.385H9.206a.385.385,0,0,0,.315-.164L11.045.606A.385.385,0,0,0,10.73,0H.385A.385.385,0,0,0,0,.385" transform="translate(0 0)"></path>
		<path style="fill: var(--emixa-color);" d="M11.086,25.069H3.39v3.164h7.7a.385.385,0,0,1,.385.385v2.224a.385.385,0,0,1-.385.385H.385A.385.385,0,0,1,0,30.842v-8.3a.385.385,0,0,1,.385-.385h10.7a.385.385,0,0,1,.385.385v2.139a.385.385,0,0,1-.385.385" transform="translate(0 -16.141)"></path>
		<path style="fill: var(--emixa-color);" d="M75.375,4.906l-.012,9.8a.385.385,0,0,1-.385.385H72.363a.385.385,0,0,1-.385-.385V.385A.385.385,0,0,1,72.363,0h2.8a.384.384,0,0,1,.316.165l4.073,5.841L83.643.164A.386.386,0,0,1,83.959,0h2.8a.385.385,0,0,1,.385.385l0,14.316a.385.385,0,0,1-.385.385h-2.62a.385.385,0,0,1-.385-.385V4.892l-3.879,5.591a.385.385,0,0,1-.632,0Z" transform="translate(-52.427 0)"></path>
		<path style="fill: var(--emixa-color);" d="M156.858.006l2.62,0a.385.385,0,0,1,.385.385V14.705a.385.385,0,0,1-.385.385h-2.62a.385.385,0,0,1-.385-.385V.391a.385.385,0,0,1,.385-.385" transform="translate(-113.971 -0.004)"></path>
		<path style="fill: var(--emixa-color);" d="M270.488,14.55C271.541,12.086,275.9,1.9,276.613.232A.383.383,0,0,1,276.967,0h2.582a.383.383,0,0,1,.354.233c.71,1.673,5.029,11.861,6.061,14.319a.385.385,0,0,1-.355.534h-2.667a.385.385,0,0,1-.356-.238L278.194,4.209,273.8,14.848a.385.385,0,0,1-.356.238h-2.6a.385.385,0,0,1-.354-.536" transform="translate(-196.994 0)"></path>
  </symbol>

  <symbol xmlns="http://www.w3.org/2000/svg" xmlns:xlink="http://www.w3.org/1999/xlink" viewBox="0 0 650 135" id="innov8ion">
    <path style="fill: var(--innov8ion-color);" d="M25,27.8h14.5v84.5H25V27.8z"></path>
    <path style="fill: var(--innov8ion-color);" d="M437.3,48.9h14.5v63.4h-14.5V48.9z"></path>
    <g>
      <g>
        <polygon style="fill: var(--innov8ion-color);" points="46.4,112.4 61,112.4 61,56.9 46.4,36.1"></polygon>
        <polygon style="fill: var(--innov8ion-color);" points="120.7,28.1 105,28.1 105,74.2 120.7,96.5"></polygon>
        <polygon style="fill: var(--innov8ion-color);" points="67.5,28.1 61,28.1 46.4,28.1 46.4,29.5 79.5,76.7 79.5,76.7 105,112.4 120.7,112.4 120.7,103.2 95.1,66.7"></polygon>
      </g>
    </g>
    <g>
      <g>
        <polygon style="fill: var(--innov8ion-color);" points="625,96.7 625,28.1 609.4,28.1 609.4,74.4"></polygon>
        <polygon style="fill: var(--innov8ion-color);" points="550.7,36.3 550.7,112.4 565.3,112.4 565.3,57.1"></polygon>
        <polygon style="fill: var(--innov8ion-color);" points="594.8,60.1 571.9,28.1 565.3,28.1 550.7,28.1 550.7,29.6 579.7,71.1 609.4,112.4 625,112.4 625,103.3"></polygon>
      </g>
    </g>
    <g>
      <g>
        <polygon style="fill: var(--innov8ion-color);" points="204.4,97 204.4,28.1 188.8,28.1 188.8,74.6"></polygon>
        <path style="fill: var(--innov8ion-color);" d="M169.6,53.8c-0.1-0.1-0.1-0.2-0.1-0.3l-18.1-25.3h-6.6h-14.6v1.8l21,30l37.7,52.5h15.6v-8.8L169.6,53.8z"></path>
        <polygon style="fill: var(--innov8ion-color);" points="130.1,36.5 130.1,112.4 144.7,112.4 144.7,57.3"></polygon>
      </g>
    </g>
    <g>
      <g>
        <polygon style="fill: var(--innov8ion-color);" points="338.5,110.1 365.7,28.4 346.6,28.4 329.6,81.6"></polygon>
        <path style="fill: var(--innov8ion-color);" d="M318.6,59.5c0-0.1,0-0.1,0-0.2l-9.8-30.9h-19l27.3,83.9h18.2L318.6,59.5z"></path>
      </g>
    </g>
    <g>
      <g>
        <path style="fill: var(--innov8ion-color);" d="M250.8,95.5c-2.8-0.2-5.5-0.8-8-2c-3.1-1.4-5.8-3.2-8.1-5.5c-2.3-2.3-4.2-5-5.5-8.1c-1.4-3.1-2.1-6.4-2.1-9.9 c0-3.5,0.7-6.8,2.1-9.9c1.4-3.1,3.2-5.8,5.5-8.2c2.3-2.3,5-4.2,8.1-5.6c2.5-1.1,5.2-1.8,8-2V26.6c-5.3,0.2-10.3,1.3-15,3.3 c-5.3,2.3-9.8,5.4-13.8,9.3c-3.9,3.9-7,8.5-9.3,13.8c-2.3,5.3-3.4,11-3.4,17c0,6,1.1,11.7,3.4,16.9c2.3,5.3,5.4,9.8,9.3,13.8 c3.9,3.9,8.5,7,13.8,9.3c4.7,2,9.7,3.1,15,3.3V95.5z"></path>
        <path style="fill: var(--innov8ion-color);" d="M292.8,53c-2.3-5.3-5.4-9.9-9.3-13.8c-3.9-3.9-8.5-7-13.8-9.3c-4.7-2-9.7-3.1-15-3.3v17.8 c2.8,0.2,5.5,0.8,8,2c3.1,1.4,5.7,3.2,8.1,5.6c2.3,2.4,4.1,5.1,5.5,8.2c1.3,3.1,2,6.4,2,9.9c0,3.5-0.7,6.8-2,9.9 c-1.3,3.1-3.2,5.8-5.5,8.1c-2.3,2.3-5,4.2-8.1,5.5c-2.5,1.1-5.2,1.8-8,2v17.8c5.3-0.2,10.3-1.3,15-3.3c5.3-2.3,9.9-5.4,13.8-9.3 c3.9-3.9,7-8.5,9.3-13.8c2.3-5.2,3.5-10.9,3.5-16.9C296.2,63.9,295.1,58.3,292.8,53z"></path>
      </g>
    </g>
    <g>
      <g>
        <path style="fill: var(--innov8ion-color);" d="M396.8,98.5h-7.5c-5,0-6.5-2.4-7.2-4.1l0,0c-0.4-0.9-0.5-1.4-0.5-1.6l0-0.1l0-9.4c0-0.2,0.1-0.5,0.2-1.1 c0.6-2.7,2.3-4.1,5.3-4.5c0.2,0,0.3,0,0.6-0.1l0-15.5c-0.1,0-0.3,0-1-0.2c-2.8-0.7-4.4-2.3-4.8-5c-0.2-1.2-0.2-1.5-0.2-1.5v-7.6 c0-4.3,2-6.2,6.5-6.2l8.7,0V26.1h-8c-1.4,0-2.8,0.1-4,0.3c-8,1.1-13.6,4.8-16.6,11.1c-1.4,2.9-2.1,5.6-2.1,8.1v9.4 c0,1,0.1,2.2,0.3,3.4c0.8,5.3,2.8,9.3,5.9,11.7c-3.1,2.4-5.1,6.3-5.9,11.6c-0.2,1.2-0.3,2.3-0.3,3.4v9.4l0,0.2 c0.8,7.6,4.5,13.3,11.1,16.7c3.3,1.7,7.2,2.6,11.5,2.6h8V98.5z"></path>
        <path style="fill: var(--innov8ion-color);" d="M430,58.3c0.2-1.2,0.3-2.3,0.3-3.4v-9.4c0-2.5-0.7-5.2-2.1-8.1c-3.7-7.5-10.6-11.3-20.6-11.3h-7v15.5l8.5,0 c3.3,0.3,5,1.7,5.5,4.6c0.2,1.1,0.2,1.5,0.2,1.5v7.6c0,3.6-1.7,5.7-5.5,6.5c-0.7,0.2-1.2,0.2-1.4,0.2l0,15.5 c0.4,0.1,0.6,0.1,0.7,0.1c4.6,0.5,5.6,2.8,6,4.7c0.1,0.3,0.2,0.6,0.2,0.8v9.1c0,1.9-0.5,3.2-1.7,3.9l-0.3,0.2 c-1.4,1.4-3.5,2.1-6.5,2.1h-5.8v15.5h7c4.5,0,8.4-0.9,11.5-2.6c7.4-4.1,11.1-9.8,11.1-16.9V85c0-1-0.1-2.2-0.3-3.4 c-0.8-5.3-2.8-9.2-5.9-11.6C427.3,67.5,429.2,63.6,430,58.3z"></path>
      </g>
    </g>
    <g>
      <g>
        <path style="fill: var(--innov8ion-color);" d="M501.2,95.5c-3.2-0.1-6.2-0.8-9-2c-3.1-1.4-5.8-3.2-8.1-5.5c-2.3-2.3-4.2-5-5.5-8.1c-1.4-3.1-2.1-6.4-2.1-9.9 c0-3.5,0.7-6.8,2.1-9.9c1.4-3.1,3.2-5.8,5.5-8.2c2.3-2.3,5-4.2,8.1-5.6c2.8-1.2,5.8-1.9,9-2V26.5c-5.7,0.1-11,1.2-16,3.4 c-5.3,2.3-9.8,5.4-13.8,9.3c-3.9,3.9-7,8.5-9.3,13.8c-2.3,5.3-3.4,11-3.4,17c0,6,1.1,11.7,3.4,16.9c2.3,5.3,5.4,9.8,9.3,13.8 c3.9,3.9,8.5,7,13.8,9.3c5,2.1,10.3,3.2,16,3.4V95.5z"></path>
        <path style="fill: var(--innov8ion-color);" d="M542.2,53c-2.3-5.3-5.4-9.9-9.3-13.8c-3.9-3.9-8.5-7-13.8-9.3c-4.4-1.9-9.1-3-14-3.3v17.8 c2.5,0.3,4.8,0.9,7,1.9c3.1,1.4,5.7,3.2,8.1,5.6c2.3,2.4,4.1,5.1,5.5,8.2c1.3,3.1,2,6.4,2,9.9c0,3.5-0.7,6.8-2,9.9 c-1.3,3.1-3.2,5.8-5.5,8.1c-2.3,2.3-5,4.2-8.1,5.5c-2.2,1-4.6,1.6-7,1.9v17.8c4.9-0.3,9.6-1.4,14-3.3c5.3-2.3,9.9-5.4,13.8-9.3 c3.9-3.9,7-8.5,9.3-13.8c2.3-5.2,3.5-10.9,3.5-16.9C545.6,63.9,544.5,58.3,542.2,53z"></path>
      </g>
    </g>
    <rect style="fill: var(--innov8ion-color);" x="437.3" y="28.1" width="14.5" height="16.1"></rect>
    <path style="fill: var(--innov8ion-color);" d="M405.8,57c1.2,0,2.2-1,2.2-2.2v-6.5c0-1.2-1-2.2-2.2-2.2h-16c-1.2,0-2.2,1-2.2,2.2v6.5c0,1.2,1,2.2,2.2,2.2h6.1 v25.3h-6.1c-1.2,0-2.2,1-2.2,2.2v6.5c0,1.2,1,2.2,2.2,2.2h16c1.2,0,2.2-1,2.2-2.2v-6.5c0-1.2-1-2.2-2.2-2.2h-6.1V57H405.8z"></path>
  </symbol>

  <symbol xmlns="http://www.w3.org/2000/svg" viewBox="0 0 1786 274" id="comweg">
    <path style="fill: var(--comweg-color-0);" opacity="1.000000" stroke="none" d=" M393.468658,275.000000 C391.836334,274.337799 390.731140,273.244873 389.500244,273.077728 C369.425629,270.351379 350.615112,264.342590 334.316772,251.875214 C315.362244,237.376007 303.454712,218.322281 300.232208,194.716782 C298.129059,179.310806 297.735260,163.645493 297.091400,148.075012 C296.623657,136.763763 296.744324,125.410568 297.056610,114.088593 C297.594940,94.569801 299.421234,75.217827 308.784271,57.542633 C321.605103,33.340008 341.738495,18.056629 367.617004,9.881842 C384.436401,4.568741 401.750702,2.541738 419.246674,3.112776 C444.659393,3.942202 469.059570,8.881851 490.406555,23.930408 C512.966431,39.834007 525.978088,61.553108 529.990845,88.780548 C533.529968,112.794121 531.581543,136.958725 531.951538,161.056061 C532.231201,179.273041 530.255798,197.175674 523.433472,214.325119 C515.834778,233.425964 503.101318,247.933655 485.414276,258.301117 C471.559326,266.422363 456.493896,270.683502 440.757599,273.023926 C439.535278,273.205719 438.379517,273.834869 437.096405,274.628052 C422.645782,275.000000 408.291534,275.000000 393.468658,275.000000 M458.904327,143.181824 C458.602875,135.887115 458.314026,128.591858 457.996521,121.297852 C457.671722,113.835617 457.740143,106.326286 456.891296,98.923004 C455.069000,83.029076 448.100006,70.029572 432.527832,64.116356 C425.935303,61.612961 418.271240,61.230339 411.079865,61.149090 C395.501831,60.973076 383.448700,68.308990 377.238556,82.343369 C373.516785,90.754219 371.512756,100.536736 371.291382,109.764030 C370.745148,132.531586 371.078033,155.364014 372.209106,178.113129 C373.007294,194.166138 380.280823,207.083832 395.857788,213.914520 C404.047424,217.505768 412.795624,217.762054 421.375427,216.821609 C435.037018,215.324173 445.832611,209.040070 452.030975,196.040833 C456.132050,187.440094 457.479614,178.318665 457.963379,169.001938 C458.393799,160.712097 458.514832,152.406204 458.904327,143.181824 z"></path>
    <path style="fill: var(--comweg-color-1);" opacity="1.000000" stroke="none" d=" M1787.000000,189.531342 C1786.344971,190.462357 1785.193726,190.846176 1785.106323,191.398422 C1781.794067,212.315430 1771.675781,229.529800 1755.997070,243.368240 C1742.207764,255.538971 1725.827881,263.123840 1707.909912,266.864929 C1697.876831,268.959686 1687.575806,269.866974 1677.358398,270.964020 C1656.401733,273.214050 1635.962036,270.289520 1615.967163,264.011169 C1599.068848,258.705200 1584.407837,249.693817 1572.799438,236.220184 C1561.972778,223.653854 1554.875366,209.125671 1552.038818,192.733078 C1547.088989,164.126022 1549.078247,135.227127 1549.216675,106.453850 C1549.283691,92.503723 1550.697876,78.496841 1555.844482,65.082954 C1563.858521,44.195587 1577.425781,28.366407 1596.917114,17.582754 C1612.068481,9.200097 1628.343262,4.426122 1645.592163,2.915064 C1646.303589,2.852738 1646.956665,2.125206 1647.318359,1.353783 C1660.354248,1.000000 1673.708496,1.000000 1687.213135,1.353882 C1689.705933,2.144685 1692.047852,2.583486 1694.390625,3.018193 C1713.323853,6.531296 1731.818359,11.489916 1748.147217,22.107456 C1766.467651,34.020023 1780.628174,49.273949 1785.101196,71.656906 C1785.211426,72.209045 1786.344116,72.556908 1787.000000,73.000031 C1787.000000,76.361290 1787.000000,79.722572 1786.756104,83.200493 C1783.208618,89.675331 1777.350586,89.078796 1771.523682,89.039902 C1754.529785,88.926476 1737.530884,88.797165 1720.541870,89.109070 C1714.546509,89.219131 1711.126099,86.500031 1708.267578,81.769173 C1704.017578,74.735764 1699.364502,68.019272 1691.821777,63.929173 C1680.499268,57.789314 1668.362061,56.820873 1656.114502,59.206505 C1647.012207,60.979485 1638.647949,64.591652 1632.591797,72.621147 C1625.848511,81.561592 1623.352051,91.714142 1623.129395,102.355782 C1622.690430,123.340019 1622.853760,144.341583 1623.092163,165.332291 C1623.160522,171.351273 1623.747070,177.497726 1625.126465,183.342514 C1628.706543,198.512329 1637.333862,209.466705 1653.521362,211.854034 C1663.738281,213.360779 1674.176025,213.422409 1684.523071,213.980194 C1700.999512,214.868408 1717.435425,201.830811 1721.039917,187.438904 C1722.649170,181.013153 1725.077026,174.899689 1730.732300,170.826187 C1733.427002,168.885193 1736.360718,167.276047 1740.015991,164.999817 C1738.187378,164.999817 1737.266846,164.999817 1736.346436,164.999817 C1718.185425,164.999802 1700.024536,165.014160 1681.863525,164.990540 C1676.738892,164.983871 1672.179077,161.668152 1672.115723,157.212616 C1672.031494,151.304367 1672.022217,145.254822 1673.155396,139.497177 C1675.966919,125.211960 1692.093994,115.490517 1702.662720,115.815750 C1723.136963,116.445801 1743.644531,116.050865 1764.137695,115.977135 C1773.492310,115.943474 1780.001953,120.161522 1784.151611,128.440445 C1784.683960,129.502640 1786.030640,130.156784 1787.000000,131.000000 C1787.000000,150.354233 1787.000000,169.708450 1787.000000,189.531342 z"></path>
    <path style="fill: var(--comweg-color-2);" opacity="1.000000" stroke="none" d=" M0.999999,90.468658 C1.700431,88.631432 2.770569,87.333054 3.045723,85.883743 C7.039554,64.847137 15.714337,46.281803 31.811186,31.737041 C46.778885,18.212555 64.491814,10.111393 84.219002,6.475711 C120.328445,-0.179185 155.510803,2.093698 188.753296,18.961746 C214.008850,31.777027 229.984619,52.068989 235.444107,80.116531 C236.391144,84.981842 236.819489,90.010147 236.873047,94.969803 C236.926071,99.877876 233.962372,102.867714 229.077560,102.904854 C210.083313,103.049294 191.087250,103.001709 172.092117,102.942749 C168.234619,102.930779 165.421631,100.982414 163.992004,97.351852 C162.589478,93.790123 161.377899,90.153656 160.009003,86.578140 C155.156464,73.903526 146.583862,64.556694 133.018753,62.539223 C123.187454,61.077068 112.655609,61.027489 102.932198,62.910046 C88.314285,65.740227 76.965843,80.465675 76.209366,97.159012 C75.117340,121.256668 75.014870,145.416245 75.192261,169.544235 C75.247505,177.057053 76.778351,184.803116 79.031746,192.004944 C83.747307,207.075775 95.019630,215.049438 110.348732,216.748367 C117.038460,217.489792 124.028976,217.005798 130.715546,215.983627 C145.597076,213.708725 155.427002,204.670364 160.143845,190.667313 C165.956146,173.412201 166.498672,174.989822 182.312515,174.998367 C196.975769,175.006271 211.639053,174.981247 226.302261,175.008163 C234.553467,175.023300 237.484726,177.714218 236.928650,185.749100 C235.633728,204.458923 229.837875,221.429825 217.562347,236.070724 C199.895081,257.142334 176.247345,266.650940 150.274979,271.991058 C146.932281,272.678345 143.624634,273.536072 140.150375,274.657410 C125.645775,275.000000 111.291542,275.000000 96.318306,274.657410 C92.385323,273.536896 89.094345,272.638580 85.753670,272.000458 C63.590187,267.766785 43.444614,259.437897 27.461588,242.917450 C13.721026,228.714905 6.425506,211.340698 3.042547,192.100739 C2.788990,190.658691 1.700411,189.363480 1.000002,188.000000 C1.000000,155.645767 1.000000,123.291542 0.999999,90.468658 z"></path>
    <path style="fill: var(--comweg-color-3);" opacity="1.000000" stroke="none" d=" M939.979370,58.124195 C937.978149,46.195980 935.963806,34.713348 934.022888,23.218315 C933.558044,20.465015 933.053772,17.669003 933.067871,14.895181 C933.092041,10.140035 936.073608,7.074312 940.815552,7.046600 C957.976807,6.946313 975.139771,6.914112 992.300415,7.061203 C998.070068,7.110658 1001.723877,10.571730 1002.831299,16.944595 C1004.715881,27.789721 1006.286011,38.689468 1007.990967,49.565838 C1009.771912,60.927246 1011.534424,72.291595 1013.344360,83.648384 C1015.541382,97.434273 1017.761292,111.216591 1020.006897,124.994659 C1021.363708,133.319946 1022.788086,141.634232 1024.397705,151.239487 C1026.105225,149.440872 1027.171143,148.822540 1027.446533,147.953674 C1033.350830,129.322556 1039.152954,110.659119 1045.006714,92.011948 C1047.073730,85.427528 1048.887085,78.733940 1051.450684,72.344727 C1053.329712,67.661751 1056.918823,64.772942 1062.619629,64.927910 C1072.276489,65.190437 1081.945679,64.980698 1091.609619,65.007454 C1097.475342,65.023697 1101.274414,67.563286 1103.070679,73.168228 C1110.789917,97.253784 1118.376343,121.381874 1126.070801,145.475418 C1126.581787,147.075104 1127.588745,148.516388 1129.614014,149.852554 C1131.075806,141.238953 1132.556885,132.628540 1133.995361,124.011055 C1136.915405,106.518631 1139.842896,89.027336 1142.709961,71.526184 C1145.179688,56.449310 1147.556885,41.357277 1150.004150,26.276678 C1150.608154,22.555065 1151.209961,18.826555 1152.017578,15.146181 C1153.190308,9.802071 1156.187988,7.101855 1161.698853,7.058937 C1179.192993,6.922696 1196.689941,6.892062 1214.183105,7.074022 C1219.806641,7.132515 1222.155029,12.391777 1221.418579,17.841274 C1219.749146,30.193005 1217.265991,42.433632 1215.175171,54.729870 C1212.752197,68.979591 1210.398682,83.241135 1208.007690,97.496307 C1205.101196,114.825241 1202.157471,132.148010 1199.285400,149.482635 C1196.815186,164.392899 1194.468262,179.323639 1191.983398,194.231415 C1189.553711,208.808548 1187.035034,223.370956 1184.522095,237.934097 C1183.434326,244.238113 1182.374268,250.550262 1181.103271,256.818420 C1179.337769,265.524475 1174.546509,269.808533 1165.923340,269.943787 C1153.263428,270.142365 1140.584473,270.341858 1127.940186,269.854279 C1121.156860,269.592712 1116.602661,268.050476 1113.385376,258.915314 C1102.360596,227.612259 1091.117920,196.385956 1079.914551,165.146088 C1079.386108,163.672592 1078.436890,162.349960 1076.873779,159.459457 C1074.578735,165.238815 1072.676514,169.608658 1071.091064,174.090591 C1061.227783,201.973541 1051.426270,229.878387 1041.625244,257.783356 C1038.661865,266.220490 1033.469727,269.989136 1024.600952,269.997314 C1014.270508,270.006805 1003.936890,269.837494 993.610229,270.035278 C975.398254,270.384094 974.227661,263.140594 972.035217,250.522430 C969.027466,233.211685 966.182190,215.872589 963.298096,198.540527 C960.844421,183.795334 958.457275,169.039047 955.998413,154.294724 C953.540283,139.554611 951.018616,124.825104 948.545044,110.087555 C946.016846,95.024612 943.511108,79.957870 941.000854,64.891930 C940.649841,62.785542 940.328308,60.674248 939.979370,58.124195 z"></path>
    <path style="fill: var(--comweg-color-4);" opacity="1.000000" stroke="none" d=" M674.972290,168.000000 C674.972290,197.662994 674.976746,226.825974 674.961426,255.988968 C674.960510,257.814819 675.038025,259.687927 674.679993,261.458282 C673.078247,269.377991 671.042725,270.982422 662.813843,270.994141 C648.149048,271.015015 633.484131,271.025421 618.819397,270.989990 C610.153137,270.969025 607.005188,267.848755 607.004456,259.358337 C606.997803,186.034241 607.082275,112.709991 606.936401,39.386185 C606.904541,23.338480 622.685669,9.255478 637.506042,8.111040 C645.126282,7.522600 652.829651,8.043211 660.494995,7.995232 C668.180298,7.947127 671.778442,13.131205 675.019043,18.990063 C690.171631,46.385220 705.376038,73.751808 720.579651,101.118759 C725.244751,109.516136 730.029541,117.847649 734.632629,126.278587 C736.674805,130.018906 738.148071,129.490433 740.013733,126.146912 C748.651611,110.666649 757.386841,95.240669 766.071594,79.786499 C778.401794,57.845375 790.637512,35.850456 803.112366,13.991907 C805.465088,9.869513 809.748047,8.060841 814.489441,8.034634 C828.653870,7.956341 842.819275,7.953127 856.983765,8.025291 C863.761841,8.059822 867.977661,12.481681 867.986328,19.456366 C868.017517,44.453175 867.999756,69.450043 867.999817,94.446892 C867.999939,148.940018 868.002136,203.433136 867.997314,257.926270 C867.996399,267.956268 864.961731,270.992249 854.948120,270.998352 C840.616577,271.007111 826.285034,271.017731 811.953552,270.992737 C804.316223,270.979431 801.003601,267.704102 801.002563,260.228333 C800.997009,219.566788 801.016541,178.905228 800.955322,138.243774 C800.951904,135.942368 800.308716,133.641922 799.963318,131.341034 C799.510071,131.292465 799.056885,131.243912 798.603638,131.195358 C795.501465,136.582169 792.310059,141.919922 789.313416,147.364838 C779.651245,164.920517 770.083862,182.528366 760.428467,200.087814 C757.567261,205.291321 753.260376,208.157639 747.105286,208.026138 C741.441895,207.905136 735.744568,207.635880 730.114990,208.088501 C722.016296,208.739655 716.775452,204.885193 713.162659,198.288696 C704.090942,181.724777 695.183472,165.071014 686.178650,148.470398 C683.040161,142.684525 679.809326,136.948776 676.620605,131.190155 C676.071167,131.288696 675.521790,131.387253 674.972351,131.485794 C674.972351,143.490524 674.972351,155.495270 674.972290,168.000000 z"></path>
    <path style="fill: var(--comweg-color-5);" opacity="1.000000" stroke="none" d=" M1349.019897,72.086227 C1350.402954,76.065712 1352.364624,79.596588 1352.838501,83.316933 C1353.485840,88.399597 1352.901367,93.628853 1353.024780,98.790970 C1353.205933,106.364540 1357.941406,110.987976 1365.423706,110.992958 C1391.915405,111.010590 1418.407471,111.067932 1444.898804,110.957542 C1452.591064,110.925491 1456.562378,114.310631 1456.147949,122.198143 C1455.563110,133.330597 1456.016846,144.516754 1455.993164,155.679886 C1455.979248,162.248901 1453.251099,164.990540 1446.686279,164.993195 C1411.200806,165.007599 1375.715332,165.000046 1340.231689,165.000046 C1342.798096,167.137604 1345.430542,169.082962 1347.767944,171.334412 C1351.332886,174.768112 1353.255859,178.918137 1353.049561,184.066528 C1352.829590,189.555984 1352.919678,195.062592 1353.020386,200.559052 C1353.164917,208.443939 1357.840820,212.993591 1365.696533,212.995697 C1401.185425,213.005188 1436.674438,212.995911 1472.163330,213.002853 C1480.023926,213.004395 1483.997437,216.914169 1483.999268,224.603165 C1484.002075,236.599426 1484.012329,248.595703 1483.994385,260.591949 C1483.986206,266.037659 1480.297852,269.797882 1474.833984,269.995697 C1474.168457,270.019806 1473.501221,269.999939 1472.834839,269.999939 C1413.686646,270.000031 1354.538330,270.001434 1295.390137,269.998474 C1287.424927,269.998077 1285.001831,267.605865 1285.001587,259.743500 C1284.998901,185.933182 1285.161621,112.122200 1284.854614,38.313164 C1284.797852,24.653564 1297.379272,10.092683 1311.065796,8.061798 C1315.613037,7.387045 1320.252563,7.050910 1324.850708,7.044013 C1372.502441,6.972527 1420.154175,6.997554 1467.806030,7.002247 C1477.093140,7.003162 1480.999878,10.857265 1481.000000,19.973057 C1481.000122,31.136240 1481.002686,42.299423 1480.999146,53.462608 C1480.996826,61.030972 1477.974731,63.994118 1470.189087,63.996223 C1437.532593,64.005051 1404.876099,63.999985 1372.219604,64.000000 C1361.892578,64.000008 1351.565430,64.000000 1340.743896,64.000000 C1343.685791,66.773285 1346.310547,69.247673 1349.019897,72.086227 z"></path>
  </symbol>

  <symbol xmlns="http://www.w3.org/2000/svg" viewBox="0 0 1863 380" id="expertum">
    <path style="fill: var(--expertum-color);" d="M212.76 218.01C204.88 263.54 165.04 293.31 110.76 293.31C42.46 293.31 0 239.46 0 178.17C0 116.45 38.52 65.67 106.38 65.67C174.67 65.67 211.01 114.26 211.01 170.3C211.01 175.99 210.57 183 210.13 186.94H41.59C45.09 228.53 72.23 256.98 110.76 256.98C143.16 256.98 164.17 242.97 170.3 218.02H212.76V218.01ZM42.9 155.85H168.1C165.47 122.14 142.71 99.82 106.37 99.82C71.79 99.81 49.47 119.07 42.9 155.85Z"></path>
    <path style="fill: var(--expertum-color);" d="M481.51 69.17H523.97V102C537.1 80.11 563.81 65.66 594.45 65.66C660.99 65.66 699.08 113.82 699.08 179.48C699.08 245.14 659.24 293.3 592.26 293.3C562.93 293.3 536.66 279.73 523.97 258.72V379.11H481.51V69.17ZM656.18 179.49C656.18 133.52 629.04 102.88 588.33 102.88C547.18 102.88 520.48 133.52 520.48 179.49C520.48 225.46 547.18 256.1 588.33 256.1C629.04 256.1 656.18 225.45 656.18 179.49Z"></path>
    <path style="fill: var(--expertum-color);" d="M309.453 179.493L228.143 260.803L258.167 290.826L339.476 209.517L309.453 179.493Z"></path>
    <path style="fill: var(--expertum-color);" d="M420.803 68.1449L339.493 149.454L369.517 179.478L450.826 98.1684L420.803 68.1449Z"></path>
    <path style="fill: var(--expertum-color);" d="M258.178 68.153L228.155 98.1765L309.464 179.486L339.488 149.462L258.178 68.153Z"></path>
    <path style="fill: var(--expertum-color);" d="M369.527 179.503L339.503 209.526L420.813 290.836L450.836 260.812L369.527 179.503Z"></path>
    <path style="fill: var(--expertum-color);" d="M940.2 218.01C932.32 263.54 892.48 293.31 838.2 293.31C769.91 293.31 727.44 239.46 727.44 178.18C727.44 116.45 765.96 65.67 833.82 65.67C902.11 65.67 938.45 114.26 938.45 170.3C938.45 175.99 938.01 183 937.57 186.94H769.03C772.53 228.53 799.67 256.98 838.2 256.98C870.6 256.98 891.61 242.97 897.74 218.02H940.2V218.01ZM770.34 155.85H895.54C892.91 122.14 870.15 99.82 833.81 99.82C799.24 99.81 776.91 119.07 770.34 155.85Z"></path>
    <path style="fill: var(--expertum-color);" d="M1071.13 105.94C1030.85 105.94 1017.72 141.84 1017.72 189.99V289.8H975.26V69.17H1017.72V111.63C1027.79 82.3 1045.3 69.17 1076.38 69.17H1103.08V105.94H1071.13Z"></path>
    <path style="fill: var(--expertum-color);" d="M1178.47 0V69.17H1264.05V105.94H1178.47V214.51C1178.47 238.15 1191.17 251.28 1212.62 251.28H1264.06V289.8H1209.12C1164.47 289.8 1136.01 262.66 1136.01 217.57V0H1178.47Z"></path>
    <path style="fill: var(--expertum-color);" d="M1493.35 289.81H1450.89V250.85C1439.07 278.43 1412.8 293.31 1379.97 293.31C1330.06 293.31 1297.67 257.41 1297.67 204.88V69.17H1340.13V196.56C1340.13 231.58 1360.71 255.22 1391.79 255.22C1426.37 255.22 1450.89 227.2 1450.89 188.68V69.17H1493.35V289.81Z"></path>
    <path style="fill: var(--expertum-color);" d="M1534.15 69.17H1576.61V108.57C1585.8 83.62 1609.44 65.67 1641.84 65.67C1677.74 65.67 1704.44 81.87 1713.2 110.76C1721.96 85.81 1750.85 65.67 1784.99 65.67C1832.71 65.67 1862.48 98.5 1862.48 149.72V289.81H1820.02V161.54C1820.02 126.52 1802.51 102.88 1773.18 102.88C1739.47 102.88 1719.33 126.52 1719.33 161.54V289.81H1676.87V161.54C1676.87 126.52 1659.36 102.88 1630.47 102.88C1596.76 102.88 1576.62 126.52 1576.62 161.54V289.81H1534.16V69.17H1534.15Z"></path>
  </symbol>

  <symbol xmlns="http://www.w3.org/2000/svg" viewBox="0 0 1603 192" id="sapcommunity">
		<path fill="#FFC933" opacity="1.000000" stroke="none" d=" M71.531342,0.999999 C72.772308,1.703637 73.431473,2.782840 74.333862,3.054672 C88.233360,7.241698 97.994202,16.328543 104.923073,28.757523 C105.847969,30.416597 106.300789,32.338844 107.137306,34.581867 C102.999031,36.951008 98.918159,39.553165 94.558258,41.544395 C93.749420,41.913803 91.232574,40.144630 90.496124,38.813564 C85.409294,29.619579 78.614464,22.295303 68.165138,19.734859 C55.712418,16.683512 43.358856,15.967402 31.990337,23.960398 C23.122143,30.195465 23.151815,45.708946 29.229038,51.881096 C37.641575,60.425030 48.679611,63.196087 59.319244,66.960136 C71.788673,71.371513 84.320045,75.300125 95.610146,82.756279 C115.109009,95.633614 115.301758,124.555237 101.419250,139.099121 C91.016739,149.997208 77.975464,154.556351 63.261421,154.974792 C52.435452,155.282654 41.804520,155.045837 31.514523,150.353012 C20.424709,145.295425 12.142701,137.630875 6.051414,127.308182 C4.502581,124.683441 3.042645,122.006248 1.270932,119.676575 C1.000000,118.611107 1.000000,117.222221 1.387008,115.422318 C6.666770,113.014549 11.559523,111.017792 16.506002,108.999107 C17.019478,109.603485 17.640184,110.035248 17.840614,110.612846 C27.921440,139.664169 61.165104,144.105469 82.427765,132.749054 C94.448654,126.328682 96.987877,108.053078 86.304993,99.118034 C80.732841,94.457550 73.911888,90.944450 67.149788,88.124603 C53.202900,82.308647 38.553112,78.093948 24.860481,71.773399 C6.612776,63.350227 2.126239,42.056065 9.387449,25.436226 C14.537734,13.647982 24.053698,6.216418 36.640625,2.917539 C37.221378,2.765330 37.552574,1.660927 38.000000,1.000000 C49.020893,1.000000 60.041790,1.000000 71.531342,0.999999 z"/>
		<path fill="#FFC933" opacity="1.000000" stroke="none" d=" M610.531372,0.999998 C611.771973,1.705776 612.452942,2.561493 613.330261,3.093553 C620.219666,7.271808 628.284790,10.272192 633.741455,15.837775 C639.181885,21.386864 642.188477,29.399719 645.915222,36.514095 C647.462280,39.467339 648.108887,42.892246 649.351318,46.669018 C644.031067,48.159256 639.008850,49.803371 633.861877,50.808830 C632.823792,51.011623 630.862671,49.041725 630.097595,47.649967 C626.701477,41.472301 623.838745,34.993614 620.301514,28.903524 C616.336426,22.076855 609.326233,19.149191 602.130920,18.303637 C591.525879,17.057381 580.950012,17.460274 571.434937,23.956579 C560.952759,31.113119 555.183838,41.440300 552.209595,53.078678 C547.482361,71.576950 547.707581,90.335403 554.117859,108.478676 C559.050354,122.439308 567.953674,132.754700 583.005737,137.153641 C601.741333,142.629074 623.256409,132.386490 629.949585,114.072655 C631.216980,110.604874 632.330627,107.080917 633.838135,102.629082 C639.165833,103.761955 644.940613,104.989914 651.425354,106.368828 C650.220032,110.433105 649.401611,114.364227 647.910339,118.020981 C640.906189,135.196808 629.973022,148.923630 611.142578,153.205612 C591.758728,157.613419 572.941101,156.240097 556.428101,143.023743 C543.184998,132.424454 535.843750,118.361267 533.244446,102.180054 C531.323242,90.219978 530.435791,77.811554 531.265381,65.752701 C532.825378,43.078285 541.585815,23.389040 560.842773,9.889926 C565.900757,6.344269 572.020752,4.313601 577.326538,1.293602 C588.020874,1.000000 599.041809,1.000000 610.531372,0.999998 z"/>
		<path fill="#FFC933" opacity="1.000000" stroke="none" d=" M1505.468628,192.999969 C1504.091431,191.988556 1503.182861,190.977158 1502.032227,189.696487 C1502.955078,186.209213 1503.743530,182.225098 1505.160522,178.478729 C1505.592651,177.335938 1507.758545,176.167633 1509.122803,176.176483 C1515.030273,176.214874 1520.953125,177.116531 1526.835815,176.872879 C1532.412720,176.641876 1536.453735,173.087845 1538.891846,168.230209 C1541.272583,163.486511 1543.536987,158.582199 1544.935547,153.496246 C1545.521484,151.365234 1543.929565,148.514191 1543.014160,146.109894 C1531.023926,114.612328 1518.978516,83.135742 1506.942627,51.655495 C1506.318115,50.022015 1505.655518,48.403076 1504.707520,46.012909 C1510.880493,46.012909 1516.598267,45.885479 1522.299072,46.138844 C1523.244873,46.180874 1524.545288,47.726341 1524.959351,48.844585 C1533.356079,71.521477 1541.654297,94.234840 1549.952393,116.948082 C1551.500610,121.186211 1552.963745,125.455490 1554.753052,130.522903 C1557.632690,122.585289 1560.332275,115.238159 1562.965454,107.867294 C1570.017456,88.128113 1576.993042,68.361282 1584.191528,48.675831 C1584.631836,47.471409 1586.702271,46.206779 1588.085327,46.121323 C1593.061523,45.813847 1598.068115,46.000278 1603.531616,46.000046 C1604.000000,47.066669 1604.000000,48.133339 1603.714722,49.265717 C1602.959717,49.959087 1602.313843,50.519836 1602.046509,51.224262 C1596.496582,65.839142 1591.037109,80.488426 1585.463135,95.094009 C1577.015869,117.228920 1568.535645,139.351425 1559.989258,161.448181 C1555.151001,173.957611 1550.199585,186.439529 1536.049561,191.608841 C1535.885498,191.668777 1536.010132,192.518814 1536.000000,193.000000 C1525.979126,193.000000 1515.958130,193.000000 1505.468628,192.999969 z"/>
		<path fill="#FFC933" opacity="1.000000" stroke="none" d=" M440.531372,1.000000 C442.016632,2.002334 442.862579,3.342990 444.076050,3.955156 C457.613037,10.784262 462.918701,23.515818 460.795471,38.458687 C458.940308,51.514744 449.497925,62.379650 435.954651,64.722649 C416.748993,68.045265 400.025818,58.474277 396.962067,38.643074 C394.479370,22.573076 400.064636,11.341175 414.579590,3.820579 C415.702057,3.238982 416.639801,2.300774 417.331726,1.264159 C424.687592,1.000000 432.375153,1.000000 440.531372,1.000000 M453.996826,27.979084 C453.657593,26.743795 453.425446,25.466764 452.962769,24.279581 C447.285767,9.713136 435.783295,4.493227 421.771698,7.738490 C405.041290,11.613466 397.528748,31.842802 407.060822,47.307907 C414.726013,59.744221 432.068481,62.820595 442.903351,55.048080 C451.996429,48.525043 454.985718,39.589001 453.996826,27.979084 z"/>
		<path fill="#FFC933" opacity="1.000000" stroke="none" d=" M1110.000000,132.999466 C1110.000000,113.834267 1110.034912,95.168892 1109.977417,76.503792 C1109.961426,71.303833 1108.997192,66.315857 1104.414673,63.029743 C1102.634521,61.753220 1100.549927,60.366405 1098.476440,60.124481 C1088.375732,58.946056 1079.005737,60.924717 1070.927734,67.543510 C1068.037109,69.912003 1064.800049,71.914665 1062.198120,74.554550 C1060.907837,75.863541 1060.103027,78.234009 1060.090820,80.130737 C1059.949097,102.294830 1060.000000,124.460175 1060.000000,146.625183 C1060.000000,148.253922 1060.000000,149.882660 1060.000000,151.753250 C1053.893921,151.753250 1048.164307,151.753250 1042.000000,151.753250 C1042.000000,149.947342 1042.000000,148.325577 1042.000000,146.703812 C1042.000000,123.538879 1042.018921,100.373917 1041.990234,77.209023 C1041.979492,68.481812 1037.531250,60.927166 1030.961426,60.203278 C1022.467346,59.267376 1013.874451,59.439205 1006.481750,65.006317 C1002.975769,67.646477 999.313110,70.079002 995.815491,72.729721 C993.230103,74.689079 991.855408,77.032082 991.891602,80.685196 C992.109680,102.681381 992.000000,124.680832 992.000000,146.679184 C992.000000,148.303131 992.000000,149.927078 992.000000,151.772385 C985.978882,151.772385 980.364868,151.772385 974.374329,151.772385 C974.374329,116.818871 974.374329,81.756348 974.374329,46.346405 C979.895752,46.346405 985.629517,46.346405 991.715942,46.346405 C991.715942,50.482216 991.715942,54.745758 991.715942,60.208469 C993.782898,58.834415 995.248108,58.132839 996.373108,57.070904 C1009.601562,44.584972 1025.347656,41.184937 1042.592651,45.184196 C1050.608521,47.043148 1055.355103,53.546181 1058.452393,60.917900 C1064.189819,56.925896 1069.438354,52.419006 1075.427979,49.365562 C1080.615723,46.720860 1086.558838,44.773743 1092.323853,44.257435 C1098.555542,43.699333 1105.089478,44.574257 1111.274658,45.864159 C1122.643921,48.235126 1127.573730,59.423763 1127.757202,67.559311 C1128.386597,95.453110 1127.998779,123.369858 1127.998779,151.640610 C1122.777954,151.640610 1116.712646,151.640610 1110.000000,151.640610 C1110.000000,145.693558 1110.000000,139.596466 1110.000000,132.999466 z"/>
		<path fill="#FFC933" opacity="1.000000" stroke="none" d=" M927.000122,82.046158 C926.967896,74.838219 927.675110,67.882973 921.466736,63.041500 C920.355591,62.174946 919.089294,61.309612 917.758301,60.953854 C906.925537,58.058434 897.189209,60.658096 888.345886,67.188759 C885.206909,69.506859 881.968079,71.772293 879.231934,74.517357 C877.934143,75.819283 877.104736,78.187759 877.092468,80.079735 C876.948303,102.243767 877.000000,124.409096 877.000000,146.574081 C877.000000,148.207428 877.000000,149.840790 877.000000,151.735168 C870.931335,151.735168 865.201660,151.735168 859.000000,151.735168 C859.000000,149.989151 859.000000,148.372009 859.000000,146.754868 C859.000000,123.589958 859.017456,100.425026 858.990906,77.260147 C858.980896,68.514778 854.585510,60.976063 848.010437,60.215008 C839.514954,59.231682 830.930420,59.481266 823.522339,64.975632 C819.996704,67.590492 816.336609,70.027084 812.857117,72.700249 C810.312744,74.655006 808.847900,76.949081 808.886414,80.634193 C809.116150,102.630119 809.000122,124.629662 809.000122,146.627991 C809.000122,148.256485 809.000061,149.884979 809.000061,151.754257 C802.891968,151.754257 797.162354,151.754257 791.215820,151.754257 C791.215820,116.617157 791.215820,81.673393 791.215820,46.364594 C796.856689,46.364594 802.591187,46.364594 808.787476,46.364594 C808.787476,50.572025 808.787476,54.961922 808.787476,60.484985 C812.639648,57.502502 815.660583,55.163425 818.681702,52.824509 C830.671387,43.542263 844.258545,42.165234 858.570984,45.035152 C867.375610,46.800652 871.970093,53.410267 875.493103,60.883347 C881.152954,56.950363 886.390076,52.416237 892.391907,49.407635 C897.737854,46.727848 903.842651,44.822514 909.773376,44.254272 C915.834290,43.673557 922.222839,44.528740 928.233643,45.834236 C939.610657,48.305290 944.531189,59.076229 944.738953,67.508759 C945.426453,95.408974 944.998413,123.336670 944.998413,151.628265 C939.804688,151.628265 933.738586,151.628265 927.000122,151.628265 C927.000122,128.713425 927.000122,105.625710 927.000122,82.046158 z"/>
		<path fill="#FFC933" opacity="1.000000" stroke="none" d=" M247.807648,151.301758 C242.377365,151.813049 237.047455,152.123779 231.748352,151.846313 C230.420715,151.776779 228.542404,150.063141 228.019989,148.686584 C223.551666,136.912552 219.414673,125.012749 214.942078,113.240410 C214.425110,111.879715 212.475342,110.153030 211.172577,110.138420 C193.025375,109.934998 174.875153,110.000633 156.659317,110.000633 C152.091797,123.035622 147.627182,135.964569 142.956146,148.818497 C142.486526,150.110840 140.821777,151.774597 139.618027,151.854431 C134.516968,152.192749 129.380524,151.997925 123.809540,151.997925 C130.142822,134.021225 136.340073,116.561134 142.446182,99.069237 C152.340530,70.725426 162.173309,42.360111 172.046890,14.009035 C172.259018,13.399928 172.691025,12.870951 172.950577,12.274205 C174.278183,9.222012 175.123138,3.899328 176.980957,3.521561 C182.740463,2.350425 188.885818,2.953305 194.870361,3.171283 C195.604080,3.198008 196.532608,4.975086 196.929459,6.097128 C203.979828,26.031240 210.942505,45.996330 217.963120,65.941002 C227.931885,94.261040 237.932449,122.569885 247.807648,151.301758 M196.000046,56.497528 C192.629959,46.440331 189.259888,36.383133 185.630005,25.550623 C177.605911,48.778328 169.887848,71.120155 162.071945,93.745178 C177.633514,93.745178 193.019272,93.745178 208.878006,93.745178 C204.594650,81.569817 200.327362,69.440201 196.000046,56.497528 z"/>
		<path fill="#FFC933" opacity="1.000000" stroke="none" d=" M280.059143,4.000066 C297.868347,4.000075 315.208496,3.468330 332.497803,4.177143 C345.139404,4.695413 357.109619,8.287566 366.390259,17.869688 C372.048828,23.712126 375.114777,30.910246 375.887482,38.740692 C378.630371,66.537048 365.819000,85.513405 337.790649,88.918945 C330.279358,89.831581 322.640320,89.807190 315.054779,89.962364 C306.917847,90.128815 298.774933,89.999939 290.188354,89.999939 C290.188354,110.614685 290.188354,131.002914 290.188354,151.693756 C284.020355,151.693756 278.292938,151.693756 272.280823,151.693756 C272.280823,102.658081 272.280823,53.624588 272.280823,4.000066 C274.702576,4.000066 277.135437,4.000066 280.059143,4.000066 M353.067017,63.400982 C354.654510,59.391655 357.140472,55.495129 357.660675,51.351810 C359.207703,39.029861 355.315308,26.165091 340.260468,23.065039 C334.711578,21.922422 328.998230,21.210752 323.338745,21.051193 C312.341248,20.741137 301.328827,20.960428 290.271027,20.960428 C290.271027,38.262909 290.271027,55.967899 290.271027,74.000053 C297.658447,74.000053 304.782623,74.130836 311.899750,73.963173 C318.978302,73.796425 326.157898,73.975700 333.094330,72.814964 C340.184753,71.628464 347.538605,70.084343 353.067017,63.400982 z"/>
		<path fill="#FFC933" opacity="1.000000" stroke="none" d=" M726.511230,44.026390 C736.966919,46.848873 746.332581,50.817116 753.363342,58.875755 C760.600769,67.171249 764.354736,76.967278 766.048828,87.769875 C768.181030,101.365829 766.419250,114.253273 761.140808,126.998085 C754.806946,142.291306 737.489868,153.697891 721.947449,154.080246 C710.436951,154.363434 699.536865,153.200531 689.764648,146.325409 C678.796753,138.609055 672.018738,127.970200 669.296387,115.222816 C666.674622,102.946342 666.586060,90.249870 670.495361,78.148003 C676.971802,58.099255 693.365112,43.188629 716.562744,43.985271 C719.724548,44.093857 722.893127,44.003685 726.511230,44.026390 M735.979187,66.441895 C724.447021,55.719551 700.283752,57.365318 691.857849,74.413620 C686.439819,85.376091 685.348145,96.509079 686.835938,108.557205 C689.124939,127.092735 700.555298,138.028244 719.166260,138.004929 C729.979248,137.991379 737.590271,132.651459 742.758484,123.563522 C747.974426,114.391678 748.795654,104.406960 748.069824,94.052620 C747.336365,83.590683 744.304993,74.304871 735.979187,66.441895 z"/>
		<path fill="#FFC933" opacity="1.000000" stroke="none" d=" M1346.000122,83.110382 C1345.646118,79.049713 1345.590942,75.412552 1344.876465,71.909851 C1343.349976,64.425789 1337.523071,60.573483 1329.773682,59.883396 C1315.311768,58.595573 1304.923828,66.233345 1294.918945,74.826149 C1293.615234,75.945930 1293.090210,78.572044 1293.079102,80.505409 C1292.954468,102.500443 1293.000000,124.496429 1293.000000,146.492157 C1293.000000,148.132843 1293.000000,149.773544 1293.000000,151.705933 C1286.992188,151.705933 1281.263306,151.705933 1275.264648,151.705933 C1275.264648,116.599579 1275.264648,81.541016 1275.264648,46.240982 C1281.119141,46.240982 1286.849121,46.240982 1292.977661,46.240982 C1292.977661,50.843552 1292.977661,55.259689 1292.977661,60.269867 C1298.208008,56.566116 1302.548340,52.502254 1307.671265,50.122581 C1313.704834,47.319798 1320.309326,44.995674 1326.864624,44.280151 C1333.217773,43.586689 1340.199097,44.051262 1346.237549,46.036297 C1358.405151,50.036160 1363.569214,60.345036 1363.824585,72.267136 C1364.388306,98.580582 1363.999756,124.914429 1363.999756,151.619904 C1358.177368,151.619904 1352.441772,151.619904 1346.000122,151.619904 C1346.000122,129.089508 1346.000122,106.342171 1346.000122,83.110382 z"/>
		<path fill="#FFC933" opacity="1.000000" stroke="none" d=" M1227.002930,46.166637 C1232.803223,46.166637 1238.603516,46.166637 1244.700928,46.166637 C1244.700928,81.315392 1244.700928,116.359192 1244.700928,151.701920 C1238.669556,151.701920 1232.609131,151.701920 1226.072754,151.701920 C1226.072754,147.654556 1226.072754,143.611435 1226.072754,140.350418 C1218.005981,144.418671 1210.391846,149.716843 1201.951416,152.159225 C1190.491455,155.475311 1178.506470,156.348999 1167.475708,149.159134 C1160.119751,144.364395 1156.359741,137.181824 1156.204224,129.144638 C1155.672363,101.683266 1156.000366,74.205246 1156.000366,46.366882 C1161.849243,46.366882 1167.580444,46.366882 1173.999878,46.366882 C1173.999878,47.933159 1173.999878,49.686985 1173.999878,51.440811 C1173.999878,74.422417 1174.139038,97.405220 1173.939575,120.385094 C1173.844238,131.375366 1180.581909,139.419159 1192.276123,139.263107 C1206.611816,139.071793 1216.336426,131.457001 1226.234497,121.937469 C1226.718628,119.293327 1226.979126,117.320312 1226.981567,115.346977 C1227.011108,92.286896 1227.001953,69.226761 1227.002930,46.166637 z"/>
		<path fill="#FFC933" opacity="1.000000" stroke="none" d=" M1450.000000,72.015793 C1450.000000,67.879745 1450.000000,64.240311 1450.000000,60.143501 C1444.015869,60.143501 1438.279663,60.143501 1432.276855,60.143501 C1432.276855,55.295876 1432.276855,50.901802 1432.276855,46.044025 C1438.082153,46.044025 1443.821899,46.044025 1449.822754,46.044025 C1449.822754,33.652603 1449.822754,21.713968 1449.822754,9.388144 C1456.140991,9.388144 1462.203369,9.388144 1468.727295,9.388144 C1468.727295,21.204348 1468.727295,33.265812 1468.727295,45.777054 C1477.897095,45.777054 1486.631592,45.777054 1495.679565,45.777054 C1495.679565,50.616951 1495.679565,55.011017 1495.679565,59.864651 C1487.006104,59.864651 1478.271851,59.864651 1469.232666,59.864651 C1469.136841,61.737858 1468.999756,63.179073 1468.999023,64.620361 C1468.988525,84.932945 1468.986816,105.245537 1469.004883,125.558113 C1469.011963,133.406631 1473.626831,137.988754 1481.470459,137.998962 C1486.046265,138.004929 1490.622070,138.000061 1495.988647,138.000061 C1495.988647,141.457657 1496.162354,145.848801 1495.854980,150.206009 C1495.786133,151.180786 1493.996948,152.858337 1493.056396,152.820084 C1483.563110,152.433807 1473.951538,152.519394 1464.636597,150.929001 C1456.772827,149.586349 1451.309692,142.156784 1451.074585,134.205994 C1450.510742,115.145966 1450.331665,96.074539 1450.003418,77.007607 C1449.977661,75.509636 1450.000000,74.010818 1450.000000,72.015793 z"/>
		<path fill="#FFC933" opacity="1.000000" stroke="none" d=" M1412.000000,54.059135 C1412.000000,86.820618 1412.000000,119.091263 1412.000000,151.680679 C1406.051270,151.680679 1400.324585,151.680679 1394.296875,151.680679 C1394.296875,116.694252 1394.296875,81.663857 1394.296875,46.316315 C1399.955200,46.316315 1405.681763,46.316315 1412.000000,46.316315 C1412.000000,48.704048 1412.000000,51.136169 1412.000000,54.059135 z"/>
		<path fill="#FFC933" opacity="1.000000" stroke="none" d=" M1395.260132,23.946072 C1394.403931,18.868219 1394.026245,13.833170 1393.617554,8.384962 C1399.792480,8.384962 1405.510986,8.384962 1411.616577,8.384962 C1411.616577,13.130266 1411.616577,18.184408 1411.616577,23.988876 C1406.526123,23.988876 1401.132446,23.988876 1395.260132,23.946072 z"/>
		<path fill="#FFBF40" opacity="1.000000" stroke="none" d=" M1226.591064,46.300591 C1227.001953,69.226761 1227.011108,92.286896 1226.981567,115.346977 C1226.979126,117.320312 1226.718628,119.293327 1226.372314,121.620880 C1226.170776,96.795029 1226.174927,71.614784 1226.591064,46.300591 z"/>
		<path fill="#FFC933" opacity="1.000000" stroke="none" d=" M436.979248,15.494517 C442.053741,17.210203 443.845490,20.760578 443.981995,25.369476 C444.140167,30.709227 441.683990,34.354122 436.117493,36.342609 C438.756134,40.681168 441.350739,44.947296 443.960846,49.238941 C436.522888,50.999985 435.907196,50.492496 431.713287,43.491062 C430.083649,40.770447 429.633972,36.007092 424.033112,37.266262 C424.033112,41.299427 424.033112,45.398888 424.033112,49.742661 C421.268524,49.742661 418.875488,49.742661 416.238647,49.742661 C416.238647,38.248692 416.238647,26.863689 416.238647,15.198736 C423.149872,15.198736 429.911072,15.198736 436.979248,15.494517 M429.864807,21.359982 C427.986725,21.251143 426.108612,21.142303 424.291138,21.036978 C424.291138,24.725962 424.291138,27.804443 424.291138,31.357687 C426.714935,30.851435 428.739441,30.128510 430.781647,30.074480 C433.630493,29.999105 435.856110,29.227819 435.924622,26.122223 C436.001373,22.643042 433.451996,21.880014 429.864807,21.359982 z"/>
  </symbol>

</svg>