<?xml version="1.0" encoding="UTF-8"?>
<svg xmlns="http://www.w3.org/2000/svg" xmlns:xlink="http://www.w3.org/1999/xlink" width="0" height="0">

	<symbol id="sap" xmlns="http://www.w3.org/2000/svg" viewBox="0 0 455 225">
    <linearGradient id="a" x2="0" y2="225" gradientUnits="userSpaceOnUse">
      <stop stop-color="#0ae"></stop>
      <stop stop-color="#05a" offset="1"></stop>
    </linearGradient>
    <path d="m455 0h-455v225h230" fill="url(#a)"></path>
    <path d="m225 45v106l-39-106h-39l-33 88c-4-22-27-30-45-36-12-4-25-9-25-16 0-5 7-10 20-9 9 1 17 1 33 9l16-27c-15-8-35-12-51-12-19 0-35 6-45 16-7 7-10 16-11 26 0 14 5 24 16 32 9 6 20 10 30 13 13 4 23 8 23 15-1 9-11 11-18 11-12 1-22-1-37-10l-14 27c15 9 31 13 50 13 13 0 33-4 44-14l-2 9h38l7-17c15 4 32 5 47 0l5 17h68v-40h14c35 0 56-17 56-47 0-34-20-48-63-48zm-73 88 14-45h1l14 45c-10 3-20 3-29 0zm111-23v-36h10c13 0 23 4 23 17 0 14-10 19-23 19z" fill="#fff"></path>
  </symbol>

	<symbol id="neptune" xmlns="http://www.w3.org/2000/svg" viewBox="20 20 210 42">
		<path style="fill: var(--neptune-color-0);" d="m38.216 46.109 -8.772 -17.675h-5.875v23.509h4.098V33.431l9.256 18.512h5.39V28.435h-4.098zm18.957 -10.821c-1.191 -0.686 -2.554 -1.03 -4.098 -1.03 -1.595 0 -3.018 0.363 -4.28 1.09s-2.241 1.777 -2.958 3.149 -1.07 2.988 -1.07 4.845c0 2.009 0.353 3.694 1.05 5.047s1.666 2.362 2.907 3.038c1.231 0.666 2.685 0.999 4.34 0.999 1.474 0 2.776 -0.252 3.886 -0.767 1.11 -0.505 2.009 -1.231 2.675 -2.16s1.08 -2.019 1.231 -3.281h-4.179c-0.151 0.959 -0.535 1.706 -1.161 2.221 -0.616 0.515 -1.393 0.777 -2.332 0.777 -0.878 0 -1.635 -0.202 -2.271 -0.616s-1.131 -1.019 -1.464 -1.827q-0.409 -0.984 -0.485 -2.362h11.961c0.01 -0.373 0.02 -0.828 0.02 -1.363 0 -1.847 -0.323 -3.432 -0.979 -4.754 -0.686 -1.312 -1.605 -2.322 -2.796 -3.008m-6.319 2.725c0.616 -0.414 1.322 -0.616 2.13 -0.616 0.777 0 1.433 0.172 1.989 0.515 0.545 0.343 0.959 0.868 1.242 1.565 0.222 0.535 0.353 1.181 0.404 1.918h-7.611q0.121 -0.878 0.424 -1.575c0.343 -0.787 0.818 -1.393 1.423 -1.807m35.813 -8.398H83.275l-0.081 1.686c-0.04 0.828 -0.182 1.494 -0.414 1.999s-0.585 0.868 -1.05 1.09 -1.06 0.333 -1.797 0.333h-0.363v3.21h2.947v9.327c0 1.191 0.212 2.15 0.636 2.887s1.03 1.262 1.807 1.595 1.706 0.505 2.806 0.505c0.434 0 0.848 -0.03 1.242 -0.081s0.767 -0.131 1.11 -0.232v-3.2c-0.404 0.101 -0.838 0.151 -1.312 0.151 -0.686 0 -1.221 -0.162 -1.595 -0.474s-0.555 -0.848 -0.555 -1.595v-8.883h3.755V34.723h-3.755v-5.108zm56.113 13.445c0 -1.847 -0.323 -3.432 -0.979 -4.754s-1.575 -2.332 -2.776 -3.018c-1.191 -0.686 -2.554 -1.03 -4.098 -1.03 -1.595 0 -3.018 0.363 -4.28 1.09s-2.241 1.777 -2.958 3.149 -1.07 2.988 -1.07 4.845c0 2.009 0.353 3.694 1.05 5.047s1.666 2.362 2.907 3.038c1.231 0.666 2.685 0.999 4.34 0.999 1.474 0 2.776 -0.252 3.886 -0.767 1.11 -0.505 2.009 -1.231 2.675 -2.16s1.08 -2.019 1.231 -3.281h-4.179c-0.151 0.959 -0.535 1.706 -1.161 2.221 -0.616 0.515 -1.393 0.777 -2.332 0.777 -0.878 0 -1.635 -0.202 -2.271 -0.616s-1.131 -1.019 -1.464 -1.827q-0.409 -0.984 -0.485 -2.362h11.961zm-10.064 -5.047c0.616 -0.414 1.322 -0.616 2.13 -0.616 0.777 0 1.433 0.172 1.989 0.515 0.545 0.343 0.959 0.868 1.242 1.565 0.222 0.535 0.353 1.181 0.404 1.918h-7.611q0.121 -0.878 0.424 -1.575c0.333 -0.787 0.808 -1.393 1.423 -1.807m-56.678 -2.665c-1.04 -0.737 -2.281 -1.1 -3.694 -1.1 -0.939 0 -1.797 0.182 -2.564 0.545s-1.423 0.878 -1.948 1.565c-0.202 0.262 -0.373 0.545 -0.535 0.838V34.723h-4.169v22.318h4.169v-7.813l0.495 0.858c0.444 0.777 1.1 1.433 1.918 1.807 0.01 0 0.01 0.01 0.02 0.01 0.747 0.343 1.575 0.505 2.513 0.505 1.433 0 2.675 -0.373 3.735 -1.11s1.877 -1.787 2.443 -3.159c0.565 -1.363 0.848 -2.978 0.848 -4.825 0 -1.857 -0.273 -3.472 -0.828 -4.835 -0.565 -1.343 -1.363 -2.392 -2.402 -3.129m-1.514 11.043c-0.283 0.868 -0.707 1.544 -1.282 2.029 -0.565 0.485 -1.272 0.717 -2.1 0.717 -0.818 0 -1.524 -0.242 -2.1 -0.717 -0.575 -0.485 -1.019 -1.161 -1.312 -2.029s-0.444 -1.888 -0.444 -3.038c0 -1.161 0.151 -2.17 0.444 -3.048s0.737 -1.554 1.312 -2.049 1.282 -0.737 2.1 -0.737c0.828 0 1.534 0.242 2.1 0.737s0.999 1.171 1.282 2.039q0.424 1.302 0.424 3.058c0 1.161 -0.141 2.17 -0.424 3.038m28.203 -1.726q0 1.423 -0.454 2.423c-0.303 0.666 -0.717 1.171 -1.242 1.524 -0.535 0.353 -1.151 0.525 -1.857 0.525 -0.929 0 -1.635 -0.262 -2.13 -0.797s-0.737 -1.272 -0.737 -2.221V34.723h-4.169v11.891c0 1.201 0.222 2.241 0.656 3.109q0.651 1.302 1.908 1.999c0.838 0.464 1.837 0.696 3.008 0.696 0.999 0 1.888 -0.182 2.665 -0.555 0.01 0 0.01 -0.01 0.02 -0.01 0.919 -0.444 1.645 -1.181 2.15 -2.059l0.313 -0.545v2.695h4.017V34.723h-4.149zm19.401 -9.68c-0.818 -0.485 -1.787 -0.727 -2.927 -0.727q-1.529 0 -2.725 0.545c-0.01 0 -0.01 0.01 -0.02 0.01 -0.929 0.434 -1.676 1.181 -2.18 2.069l-0.323 0.555V34.723h-4.068v17.22h4.169v-9.842c0 -0.969 0.151 -1.807 0.454 -2.493s0.727 -1.211 1.282 -1.554c0.555 -0.353 1.191 -0.525 1.928 -0.525 0.908 0 1.595 0.252 2.059 0.767q0.696 0.772 0.696 2.211v11.426h4.169V40.154q0 -1.787 -0.636 -3.119c-0.444 -0.878 -1.06 -1.565 -1.877 -2.049" />
		<path style="fill: var(--neptune-color-1);" d="M162.786 24.538c-2.513 0.989 -4.835 2.614 -6.702 4.875 -2.574 3.109 -3.846 6.945 -3.846 10.76s1.272 7.651 3.846 10.76c1.867 2.261 4.179 3.876 6.702 4.875 7.631 3.018 16.322 -0.212 20.43 -7.318l4.795 -8.317 -4.795 -8.317c-4.108 -7.096 -12.799 -10.326 -20.43 -7.318"/>
		<path style="fill: var(--neptune-color-1);" d="M214.558 24.841h-17.695L188.011 40.174l8.852 15.333 8.842 -15.333h17.705z" />
	</symbol>

  <symbol id="interdobs" xmlns="http://www.w3.org/2000/svg" viewBox="0 0 450 116">
    <g transform="translate(0.000000,116.000000) scale(0.100000,-0.100000)" fill="#000000" stroke="none">
      <path d="M748 1087 c45 -58 56 -79 82 -150 l10 -28 42 35 c23 20 43 34 46 32 2 -3 -3 -33 -12 -68 -31 -127 -46 -268 -28 -268 22 0 84 67 109 118 90 183 -45 392 -253 392 l-43 0 47 -63z"></path>
      <path d="M245 1125 c-39 -18 -31 -18 25 -1 25 8 36 15 25 15 -11 0 -33 -6 -50 -14z"></path>
      <path d="M449 1130 c18 -4 50 -16 72 -25 l38 -18 -30 -42 c-33 -46 -59 -121 -59 -170 0 -93 76 -212 159 -250 24 -10 38 -22 34 -29 -5 -7 -2 -7 8 1 8 6 39 11 69 11 69 -1 120 10 120 25 0 18 -141 148 -203 187 -31 19 -56 38 -57 43 0 4 27 7 60 7 41 0 60 4 60 13 -1 24 -41 101 -76 143 -38 48 -159 115 -203 113 -23 -1 -22 -2 8 -9z"></path>
      <path d="M184 1094 c-18 -14 -18 -15 4 -4 12 6 22 13 22 15 0 8 -5 6 -26 -11z"></path>
      <path d="M106 1030 c-25 -27 -46 -52 -46 -56 0 -4 1 -5 3 -3 2 2 25 28 52 57 26 28 45 52 43 52 -3 0 -26 -22 -52 -50z"></path>
      <path d="M36 925 c-9 -26 -7 -32 5 -12 6 10 9 21 6 23 -2 3 -7 -2 -11 -11z"></path>
      <path d="M21 874 c0 -11 3 -14 6 -6 3 7 2 16 -1 19 -3 4 -6 -2 -5 -13z"></path>
      <path d="M21 704 c0 -11 3 -14 6 -6 3 7 2 16 -1 19 -3 4 -6 -2 -5 -13z"></path>
      <path d="M30 675 c0 -5 5 -17 10 -25 5 -8 10 -10 10 -5 0 6 -5 17 -10 25 -5 8 -10 11 -10 5z"></path>
      <path d="M68 595 c6 -11 30 -38 53 -60 43 -39 43 -39 -6 15 -27 30 -51 57 -53 60 -3 3 0 -4 6 -15z"></path>
      <path d="M2940 509 c0 -89 0 -90 -22 -84 -20 5 -21 4 -5 -5 30 -19 37 -2 37 86 l0 84 50 0 50 0 0 -280 0 -280 -50 0 c-37 0 -50 4 -50 14 0 22 -20 30 -34 15 -6 -8 -7 -11 -2 -6 17 12 26 8 26 -13 0 -18 7 -20 60 -20 l60 0 0 290 0 290 -60 0 -60 0 0 -91z"></path>
      <path d="M3688 593 c17 -2 47 -2 65 0 17 2 3 4 -33 4 -36 0 -50 -2 -32 -4z"></path>
      <path d="M615 538 l-40 -43 43 40 c39 36 47 45 39 45 -2 0 -21 -19 -42 -42z"></path>
      <path d="M1563 500 c0 -36 2 -50 4 -32 2 17 2 47 0 65 -2 17 -4 3 -4 -33z"></path>
      <path d="M1668 513 c5 -76 10 -83 11 -15 0 34 -2 62 -7 62 -4 0 -6 -21 -4 -47z"></path>
      <path d="M170 496 c0 -3 9 -10 20 -16 11 -6 20 -8 20 -6 0 3 -9 10 -20 16 -11 6 -20 8 -20 6z"></path>
      <path d="M544 484 c-18 -14 -18 -15 4 -4 12 6 22 13 22 15 0 8 -5 6 -26 -11z"></path>
      <path d="M230 460 c8 -5 22 -9 30 -9 10 0 8 3 -5 9 -27 12 -43 12 -25 0z"></path>
      <path d="M485 460 c-13 -6 -15 -9 -5 -9 8 0 22 4 30 9 18 12 2 12 -25 0z"></path>
      <path d="M288 443 c7 -3 16 -2 19 1 4 3 -2 6 -13 5 -11 0 -14 -3 -6 -6z"></path>
      <path d="M438 443 c7 -3 16 -2 19 1 4 3 -2 6 -13 5 -11 0 -14 -3 -6 -6z"></path>
      <path d="M2053 443 c9 -2 25 -2 35 0 9 3 1 5 -18 5 -19 0 -27 -2 -17 -5z"></path>
      <path d="M3348 443 c12 -2 30 -2 40 0 9 3 -1 5 -23 4 -22 0 -30 -2 -17 -4z"></path>
      <path d="M4318 443 c7 -3 16 -2 19 1 4 3 -2 6 -13 5 -11 0 -14 -3 -6 -6z"></path>
      <path d="M348 433 c12 -2 32 -2 45 0 12 2 2 4 -23 4 -25 0 -35 -2 -22 -4z"></path>
      <path d="M1212 413 c-23 -15 -39 -29 -37 -32 3 -2 13 3 23 12 10 9 33 23 52 31 19 8 28 15 20 16 -9 0 -35 -12 -58 -27z"></path>
      <path d="M1338 433 c7 -3 16 -2 19 1 4 3 -2 6 -13 5 -11 0 -14 -3 -6 -6z"></path>
      <path d="M1998 433 c7 -3 16 -2 19 1 4 3 -2 6 -13 5 -11 0 -14 -3 -6 -6z"></path>
      <path d="M2135 430 c27 -12 43 -12 25 0 -8 5 -22 9 -30 9 -10 0 -8 -3 5 -9z"></path>
      <path d="M2788 433 c7 -3 16 -2 19 1 4 3 -2 6 -13 5 -11 0 -14 -3 -6 -6z"></path>
      <path d="M2868 433 c7 -3 16 -2 19 1 4 3 -2 6 -13 5 -11 0 -14 -3 -6 -6z"></path>
      <path d="M3288 433 c6 -2 18 -2 25 0 6 3 1 5 -13 5 -14 0 -19 -2 -12 -5z"></path>
      <path d="M3418 433 c7 -3 16 -2 19 1 4 3 -2 6 -13 5 -11 0 -14 -3 -6 -6z"></path>
      <path d="M3878 433 c7 -3 16 -2 19 1 4 3 -2 6 -13 5 -11 0 -14 -3 -6 -6z"></path>
      <path d="M3977 425 c18 -8 42 -29 53 -47 11 -18 20 -27 20 -19 0 20 -65 81 -86 81 -12 -1 -7 -6 13 -15z"></path>
      <path d="M4258 433 c6 -2 18 -2 25 0 6 3 1 5 -13 5 -14 0 -19 -2 -12 -5z"></path>
      <path d="M4378 433 c6 -2 18 -2 25 0 6 3 1 5 -13 5 -14 0 -19 -2 -12 -5z"></path>
      <path d="M812 228 l-2 -208 60 0 60 0 -2 208 -3 207 -2 -203 -3 -202 -50 0 -50 0 -3 203 -2 202 -3 -207z"></path>
      <path d="M1052 228 l-2 -208 60 0 60 0 -2 153 -2 152 -3 -147 -4 -148 -49 0 -50 0 -3 203 -2 202 -3 -207z"></path>
      <path d="M1161 414 c0 -11 3 -14 6 -6 3 7 2 16 -1 19 -3 4 -6 -2 -5 -13z"></path>
      <path d="M1391 404 c13 -17 26 -30 28 -27 3 2 -8 16 -24 31 l-28 27 24 -31z"></path>
      <path d="M1512 393 c-2 -39 0 -43 21 -42 16 1 17 3 5 6 -11 3 -18 17 -21 41 l-4 37 -1 -42z"></path>
      <path d="M1800 395 l0 -34 -62 -3 -63 -3 -1 -113 0 -112 3 110 4 110 64 0 65 0 0 40 c0 22 -2 40 -5 40 -3 0 -5 -16 -5 -35z"></path>
      <path d="M2524 411 c-18 -11 -35 -25 -40 -33 -4 -7 1 -5 12 4 11 9 35 24 54 32 19 8 28 15 20 16 -8 0 -29 -9 -46 -19z"></path>
      <path d="M2608 375 c-1 -30 0 -55 5 -55 4 0 7 25 7 55 0 71 -7 71 -12 0z"></path>
      <path d="M2730 410 c-14 -11 -21 -20 -17 -20 5 0 20 9 34 20 14 11 22 20 17 20 -5 0 -20 -9 -34 -20z"></path>
      <path d="M3478 410 c42 -26 56 -26 17 0 -16 11 -34 20 -40 20 -5 0 5 -9 23 -20z"></path>
      <path d="M3815 404 l-30 -26 35 23 c45 29 45 29 34 29 -5 0 -22 -12 -39 -26z"></path>
      <path d="M4193 410 c-32 -19 -53 -48 -53 -72 1 -7 7 1 15 19 8 19 29 40 52 52 21 11 34 20 28 21 -5 0 -24 -9 -42 -20z"></path>
      <path d="M4438 420 c17 -7 22 -17 22 -46 0 -30 -3 -35 -17 -30 -15 5 -14 3 2 -9 19 -15 20 -14 23 31 3 48 -7 64 -38 63 -8 0 -5 -4 8 -9z"></path>
      <path d="M2200 395 c13 -14 26 -25 28 -25 3 0 -5 11 -18 25 -13 14 -26 25 -28 25 -3 0 5 -11 18 -25z"></path>
      <path d="M3213 394 l-28 -25 33 22 c17 13 32 24 32 26 0 8 -11 1 -37 -23z"></path>
      <path d="M1890 369 c-12 -16 -21 -32 -18 -34 2 -2 13 12 26 31 28 42 21 45 -8 3z"></path>
      <path d="M3536 355 c24 -39 24 -40 24 -28 0 6 -9 21 -21 34 l-20 24 17 -30z"></path>
      <path d="M4328 373 c7 -3 16 -2 19 1 4 3 -2 6 -13 5 -11 0 -14 -3 -6 -6z"></path>
      <path d="M1984 348 l-19 -23 23 19 c21 18 27 26 19 26 -2 0 -12 -10 -23 -22z"></path>
      <path d="M2868 363 c6 -2 18 -2 25 0 6 3 1 5 -13 5 -14 0 -19 -2 -12 -5z"></path>
      <path d="M3296 339 c-14 -17 -26 -38 -26 -47 0 -9 8 -1 18 18 9 19 28 40 42 47 17 9 20 13 8 13 -9 0 -28 -14 -42 -31z"></path>
      <path d="M3378 363 c7 -3 16 -2 19 1 4 3 -2 6 -13 5 -11 0 -14 -3 -6 -6z"></path>
      <path d="M4275 360 c-3 -6 1 -7 9 -4 18 7 21 14 7 14 -6 0 -13 -4 -16 -10z"></path>
      <path d="M1238 353 c7 -3 16 -2 19 1 4 3 -2 6 -13 5 -11 0 -14 -3 -6 -6z"></path>
      <path d="M1421 344 c0 -11 3 -14 6 -6 3 7 2 16 -1 19 -3 4 -6 -2 -5 -13z"></path>
      <path d="M2805 330 c-26 -27 -29 -39 -31 -98 l-2 -67 7 69 c7 60 12 73 40 98 17 15 28 28 23 28 -5 0 -21 -14 -37 -30z"></path>
      <path d="M3175 349 c-4 -6 -5 -12 -2 -15 2 -3 7 2 10 11 7 17 1 20 -8 4z"></path>
      <path d="M3410 356 c0 -2 8 -10 18 -17 15 -13 16 -12 3 4 -13 16 -21 21 -21 13z"></path>
      <path d="M3828 353 c7 -3 16 -2 19 1 4 3 -2 6 -13 5 -11 0 -14 -3 -6 -6z"></path>
      <path d="M3878 353 c7 -3 16 -2 19 1 4 3 -2 6 -13 5 -11 0 -14 -3 -6 -6z"></path>
      <path d="M1271 347 c2 -1 13 -9 24 -17 19 -14 19 -14 6 3 -7 9 -18 17 -24 17 -6 0 -8 -1 -6 -3z"></path>
      <path d="M1562 225 c-1 -72 2 -135 6 -142 4 -6 6 37 4 95 -4 169 -9 188 -10 47z"></path>
      <path d="M3922 335 c4 -6 12 -22 17 -36 6 -15 10 -18 10 -8 1 9 -7 25 -16 36 -10 10 -15 14 -11 8z"></path>
      <path d="M2241 324 c0 -11 3 -14 6 -6 3 7 2 16 -1 19 -3 4 -6 -2 -5 -13z"></path>
      <path d="M2944 235 c0 -60 1 -84 3 -52 2 32 2 81 0 110 -2 29 -3 3 -3 -58z"></path>
      <path d="M4057 265 c6 -104 11 -119 12 -30 0 39 -4 79 -8 90 -5 11 -6 -16 -4 -60z"></path>
      <path d="M4251 325 c-1 -22 16 -45 33 -45 5 0 3 6 -6 13 -9 6 -18 21 -21 32 -5 20 -5 20 -6 0z"></path>
      <path d="M2485 320 c-13 -5 -14 -9 -5 -9 8 0 24 4 35 9 13 5 14 9 5 9 -8 0 -24 -4 -35 -9z"></path>
      <path d="M1962 300 c0 -14 2 -19 5 -12 2 6 2 18 0 25 -3 6 -5 1 -5 -13z"></path>
      <path d="M2142 300 c0 -14 2 -19 5 -12 2 6 2 18 0 25 -3 6 -5 1 -5 -13z"></path>
      <path d="M3447 285 c7 -49 13 -58 13 -19 0 16 -5 36 -10 44 -6 10 -7 2 -3 -25z"></path>
      <path d="M1312 290 c0 -14 2 -19 5 -12 2 6 2 18 0 25 -3 6 -5 1 -5 -13z"></path>
      <path d="M1430 170 l0 -139 -57 -4 -58 -3 63 -2 62 -2 0 145 c0 80 -2 145 -5 145 -3 0 -5 -63 -5 -140z"></path>
      <path d="M3561 294 c0 -11 3 -14 6 -6 3 7 2 16 -1 19 -3 4 -6 -2 -5 -13z"></path>
      <path d="M2253 255 c0 -27 2 -38 4 -22 2 15 2 37 0 50 -2 12 -4 0 -4 -28z"></path>
      <path d="M2662 270 c0 -19 2 -27 5 -17 2 9 2 25 0 35 -3 9 -5 1 -5 -18z"></path>
      <path d="M1853 225 c0 -38 2 -53 4 -32 2 20 2 52 0 70 -2 17 -4 1 -4 -38z"></path>
      <path d="M3153 230 c0 -36 2 -50 4 -32 2 17 2 47 0 65 -2 17 -4 3 -4 -33z"></path>
      <path d="M4141 274 c0 -11 3 -14 6 -6 3 7 2 16 -1 19 -3 4 -6 -2 -5 -13z"></path>
      <path d="M4308 273 c7 -3 16 -2 19 1 4 3 -2 6 -13 5 -11 0 -14 -3 -6 -6z"></path>
      <path d="M3263 225 c0 -27 2 -38 4 -22 2 15 2 37 0 50 -2 12 -4 0 -4 -28z"></path>
      <path d="M3953 230 c0 -25 2 -35 4 -22 2 12 2 32 0 45 -2 12 -4 2 -4 -23z"></path>
      <path d="M4348 263 c6 -2 18 -2 25 0 6 3 1 5 -13 5 -14 0 -19 -2 -12 -5z"></path>
      <path d="M3573 225 c0 -22 2 -30 4 -17 2 12 2 30 0 40 -3 9 -5 -1 -4 -23z"></path>
      <path d="M4420 241 c19 -11 40 -32 47 -47 7 -16 12 -23 13 -16 1 32 -54 83 -87 82 -4 -1 8 -9 27 -19z"></path>
      <path d="M4165 230 c10 -11 20 -20 23 -20 3 0 -3 9 -13 20 -10 11 -20 20 -23 20 -3 0 3 -9 13 -20z"></path>
      <path d="M2032 213 c37 -2 100 -2 140 0 40 1 10 3 -67 3 -77 0 -110 -1 -73 -3z"></path>
      <path d="M2663 175 c0 -22 2 -30 4 -17 2 12 2 30 0 40 -3 9 -5 -1 -4 -23z"></path>
      <path d="M3450 184 c0 -14 -5 -35 -11 -47 -10 -21 -10 -21 5 -3 15 18 23 76 11 76 -3 0 -5 -12 -5 -26z"></path>
      <path d="M1961 182 c-1 -29 59 -92 86 -92 12 1 8 5 -12 14 -36 16 -54 35 -65 73 -8 26 -8 26 -9 5z"></path>
      <path d="M4258 183 c6 -2 18 -2 25 0 6 3 1 5 -13 5 -14 0 -19 -2 -12 -5z"></path>
      <path d="M3562 160 c0 -14 2 -19 5 -12 2 6 2 18 0 25 -3 6 -5 1 -5 -13z"></path>
      <path d="M3930 147 c-10 -21 -26 -36 -50 -44 -28 -9 -30 -12 -12 -12 26 -1 82 49 82 73 0 22 -3 20 -20 -17z"></path>
      <path d="M4308 173 c7 -3 16 -2 19 1 4 3 -2 6 -13 5 -11 0 -14 -3 -6 -6z"></path>
      <path d="M4351 153 c12 -20 12 -26 0 -45 -13 -21 -13 -22 2 -9 10 7 17 21 17 31 0 10 -7 24 -17 31 -15 13 -15 12 -2 -8z"></path>
      <path d="M2780 154 c0 -6 7 -19 16 -30 14 -18 14 -18 3 6 -14 31 -19 36 -19 24z"></path>
      <path d="M3160 152 c-1 -45 79 -127 132 -137 18 -3 58 -5 88 -2 l55 3 -67 2 c-106 3 -154 30 -189 107 -10 22 -19 34 -19 27z"></path>
      <path d="M4028 103 c-15 -29 -25 -53 -23 -53 8 0 57 90 53 97 -1 5 -15 -15 -30 -44z"></path>
      <path d="M4481 144 c0 -11 3 -14 6 -6 3 7 2 16 -1 19 -3 4 -6 -2 -5 -13z"></path>
      <path d="M2195 113 c-27 -12 -43 -23 -35 -23 8 1 26 7 40 15 14 8 28 14 33 15 12 0 8 -78 -5 -83 -10 -4 -10 -6 0 -6 17 -1 24 20 20 66 l-3 40 -50 -24z"></path>
      <path d="M4132 92 c-2 -48 0 -53 24 -62 14 -6 33 -10 42 -9 9 1 0 5 -20 11 -36 9 -37 11 -41 61 l-3 52 -2 -53z"></path>
      <path d="M3550 122 c0 -6 -14 -28 -32 -49 -29 -34 -29 -35 -4 -13 31 28 50 59 42 68 -3 3 -6 0 -6 -6z"></path>
      <path d="M1692 104 c10 -10 20 -16 22 -13 3 3 -5 11 -17 18 -21 13 -21 12 -5 -5z"></path>
      <path d="M2907 109 c-10 -6 -34 -9 -52 -7 -19 2 -31 0 -29 -4 8 -13 67 -8 94 7 14 8 21 14 15 14 -5 0 -18 -4 -28 -10z"></path>
      <path d="M3313 98 c11 -10 33 -17 51 -17 31 1 31 1 -6 8 -20 4 -43 12 -50 17 -8 5 -5 1 5 -8z"></path>
      <path d="M4190 100 c8 -5 20 -10 25 -10 6 0 3 5 -5 10 -8 5 -19 10 -25 10 -5 0 -3 -5 5 -10z"></path>
      <path d="M1788 93 c6 -2 12 -17 12 -33 0 -16 -6 -31 -12 -33 -8 -3 -6 -6 5 -6 13 -1 17 7 17 39 0 32 -4 40 -17 39 -11 0 -13 -3 -5 -6z"></path>
      <path d="M1900 75 c13 -14 26 -25 28 -25 3 0 -5 11 -18 25 -13 14 -26 25 -28 25 -3 0 5 -11 18 -25z"></path>
      <path d="M2680 93 c0 -6 8 -17 18 -24 16 -13 16 -13 2 6 -8 11 -16 22 -17 24 -2 2 -3 0 -3 -6z"></path>
      <path d="M3803 93 c9 -2 23 -2 30 0 6 3 -1 5 -18 5 -16 0 -22 -2 -12 -5z"></path>
      <path d="M1738 83 c6 -2 18 -2 25 0 6 3 1 5 -13 5 -14 0 -19 -2 -12 -5z"></path>
      <path d="M2083 83 c9 -2 25 -2 35 0 9 3 1 5 -18 5 -19 0 -27 -2 -17 -5z"></path>
      <path d="M4253 83 c15 -2 39 -2 55 0 15 2 2 4 -28 4 -30 0 -43 -2 -27 -4z"></path>
      <path d="M4439 63 l-24 -28 28 24 c25 23 32 31 24 31 -2 0 -14 -12 -28 -27z"></path>
      <path d="M1603 37 c11 -9 27 -17 36 -16 10 0 7 4 -8 10 -14 5 -30 13 -36 17 -6 4 -2 -1 8 -11z"></path>
      <path d="M1947 39 c7 -7 15 -10 18 -7 3 3 -2 9 -12 12 -14 6 -15 5 -6 -5z"></path>
      <path d="M2744 26 c13 -10 37 -15 65 -15 l46 2 -50 6 c-27 4 -57 10 -65 14 -8 5 -6 1 4 -7z"></path>
      <path d="M2870 30 c-9 -6 -10 -10 -3 -10 6 0 15 5 18 10 8 12 4 12 -15 0z"></path>
      <path d="M1988 23 c7 -3 16 -2 19 1 4 3 -2 6 -13 5 -11 0 -14 -3 -6 -6z"></path>
      <path d="M2188 23 c7 -3 16 -2 19 1 4 3 -2 6 -13 5 -11 0 -14 -3 -6 -6z"></path>
      <path d="M2368 23 c17 -2 47 -2 65 0 17 2 3 4 -33 4 -36 0 -50 -2 -32 -4z"></path>
      <path d="M3688 23 c17 -2 47 -2 65 0 17 2 3 4 -33 4 -36 0 -50 -2 -32 -4z"></path>
      <path d="M1688 13 c18 -2 45 -2 60 0 15 2 0 4 -33 4 -33 0 -45 -2 -27 -4z"></path>
      <path d="M2053 13 c20 -2 54 -2 75 0 20 2 3 4 -38 4 -41 0 -58 -2 -37 -4z"></path>
      <path d="M3878 13 c12 -2 30 -2 40 0 9 3 -1 5 -23 4 -22 0 -30 -2 -17 -4z"></path>
      <path d="M4253 13 c20 -2 54 -2 75 0 20 2 3 4 -38 4 -41 0 -58 -2 -37 -4z"></path>
    </g>
  </symbol>

</svg>
