<?xml version="1.0" encoding="UTF-8"?>
<svg xmlns="http://www.w3.org/2000/svg" xmlns:xlink="http://www.w3.org/1999/xlink" width="0" height="0">

	<symbol xmlns="http://www.w3.org/2000/svg" viewBox="20 20 210 42" id="neptune">
		<path style="fill: var(--neptune-color-0);" d="m38.216 46.109 -8.772 -17.675h-5.875v23.509h4.098V33.431l9.256 18.512h5.39V28.435h-4.098zm18.957 -10.821c-1.191 -0.686 -2.554 -1.03 -4.098 -1.03 -1.595 0 -3.018 0.363 -4.28 1.09s-2.241 1.777 -2.958 3.149 -1.07 2.988 -1.07 4.845c0 2.009 0.353 3.694 1.05 5.047s1.666 2.362 2.907 3.038c1.231 0.666 2.685 0.999 4.34 0.999 1.474 0 2.776 -0.252 3.886 -0.767 1.11 -0.505 2.009 -1.231 2.675 -2.16s1.08 -2.019 1.231 -3.281h-4.179c-0.151 0.959 -0.535 1.706 -1.161 2.221 -0.616 0.515 -1.393 0.777 -2.332 0.777 -0.878 0 -1.635 -0.202 -2.271 -0.616s-1.131 -1.019 -1.464 -1.827q-0.409 -0.984 -0.485 -2.362h11.961c0.01 -0.373 0.02 -0.828 0.02 -1.363 0 -1.847 -0.323 -3.432 -0.979 -4.754 -0.686 -1.312 -1.605 -2.322 -2.796 -3.008m-6.319 2.725c0.616 -0.414 1.322 -0.616 2.13 -0.616 0.777 0 1.433 0.172 1.989 0.515 0.545 0.343 0.959 0.868 1.242 1.565 0.222 0.535 0.353 1.181 0.404 1.918h-7.611q0.121 -0.878 0.424 -1.575c0.343 -0.787 0.818 -1.393 1.423 -1.807m35.813 -8.398H83.275l-0.081 1.686c-0.04 0.828 -0.182 1.494 -0.414 1.999s-0.585 0.868 -1.05 1.09 -1.06 0.333 -1.797 0.333h-0.363v3.21h2.947v9.327c0 1.191 0.212 2.15 0.636 2.887s1.03 1.262 1.807 1.595 1.706 0.505 2.806 0.505c0.434 0 0.848 -0.03 1.242 -0.081s0.767 -0.131 1.11 -0.232v-3.2c-0.404 0.101 -0.838 0.151 -1.312 0.151 -0.686 0 -1.221 -0.162 -1.595 -0.474s-0.555 -0.848 -0.555 -1.595v-8.883h3.755V34.723h-3.755v-5.108zm56.113 13.445c0 -1.847 -0.323 -3.432 -0.979 -4.754s-1.575 -2.332 -2.776 -3.018c-1.191 -0.686 -2.554 -1.03 -4.098 -1.03 -1.595 0 -3.018 0.363 -4.28 1.09s-2.241 1.777 -2.958 3.149 -1.07 2.988 -1.07 4.845c0 2.009 0.353 3.694 1.05 5.047s1.666 2.362 2.907 3.038c1.231 0.666 2.685 0.999 4.34 0.999 1.474 0 2.776 -0.252 3.886 -0.767 1.11 -0.505 2.009 -1.231 2.675 -2.16s1.08 -2.019 1.231 -3.281h-4.179c-0.151 0.959 -0.535 1.706 -1.161 2.221 -0.616 0.515 -1.393 0.777 -2.332 0.777 -0.878 0 -1.635 -0.202 -2.271 -0.616s-1.131 -1.019 -1.464 -1.827q-0.409 -0.984 -0.485 -2.362h11.961zm-10.064 -5.047c0.616 -0.414 1.322 -0.616 2.13 -0.616 0.777 0 1.433 0.172 1.989 0.515 0.545 0.343 0.959 0.868 1.242 1.565 0.222 0.535 0.353 1.181 0.404 1.918h-7.611q0.121 -0.878 0.424 -1.575c0.333 -0.787 0.808 -1.393 1.423 -1.807m-56.678 -2.665c-1.04 -0.737 -2.281 -1.1 -3.694 -1.1 -0.939 0 -1.797 0.182 -2.564 0.545s-1.423 0.878 -1.948 1.565c-0.202 0.262 -0.373 0.545 -0.535 0.838V34.723h-4.169v22.318h4.169v-7.813l0.495 0.858c0.444 0.777 1.1 1.433 1.918 1.807 0.01 0 0.01 0.01 0.02 0.01 0.747 0.343 1.575 0.505 2.513 0.505 1.433 0 2.675 -0.373 3.735 -1.11s1.877 -1.787 2.443 -3.159c0.565 -1.363 0.848 -2.978 0.848 -4.825 0 -1.857 -0.273 -3.472 -0.828 -4.835 -0.565 -1.343 -1.363 -2.392 -2.402 -3.129m-1.514 11.043c-0.283 0.868 -0.707 1.544 -1.282 2.029 -0.565 0.485 -1.272 0.717 -2.1 0.717 -0.818 0 -1.524 -0.242 -2.1 -0.717 -0.575 -0.485 -1.019 -1.161 -1.312 -2.029s-0.444 -1.888 -0.444 -3.038c0 -1.161 0.151 -2.17 0.444 -3.048s0.737 -1.554 1.312 -2.049 1.282 -0.737 2.1 -0.737c0.828 0 1.534 0.242 2.1 0.737s0.999 1.171 1.282 2.039q0.424 1.302 0.424 3.058c0 1.161 -0.141 2.17 -0.424 3.038m28.203 -1.726q0 1.423 -0.454 2.423c-0.303 0.666 -0.717 1.171 -1.242 1.524 -0.535 0.353 -1.151 0.525 -1.857 0.525 -0.929 0 -1.635 -0.262 -2.13 -0.797s-0.737 -1.272 -0.737 -2.221V34.723h-4.169v11.891c0 1.201 0.222 2.241 0.656 3.109q0.651 1.302 1.908 1.999c0.838 0.464 1.837 0.696 3.008 0.696 0.999 0 1.888 -0.182 2.665 -0.555 0.01 0 0.01 -0.01 0.02 -0.01 0.919 -0.444 1.645 -1.181 2.15 -2.059l0.313 -0.545v2.695h4.017V34.723h-4.149zm19.401 -9.68c-0.818 -0.485 -1.787 -0.727 -2.927 -0.727q-1.529 0 -2.725 0.545c-0.01 0 -0.01 0.01 -0.02 0.01 -0.929 0.434 -1.676 1.181 -2.18 2.069l-0.323 0.555V34.723h-4.068v17.22h4.169v-9.842c0 -0.969 0.151 -1.807 0.454 -2.493s0.727 -1.211 1.282 -1.554c0.555 -0.353 1.191 -0.525 1.928 -0.525 0.908 0 1.595 0.252 2.059 0.767q0.696 0.772 0.696 2.211v11.426h4.169V40.154q0 -1.787 -0.636 -3.119c-0.444 -0.878 -1.06 -1.565 -1.877 -2.049" />
		<path style="fill: var(--neptune-color-1);" d="M162.786 24.538c-2.513 0.989 -4.835 2.614 -6.702 4.875 -2.574 3.109 -3.846 6.945 -3.846 10.76s1.272 7.651 3.846 10.76c1.867 2.261 4.179 3.876 6.702 4.875 7.631 3.018 16.322 -0.212 20.43 -7.318l4.795 -8.317 -4.795 -8.317c-4.108 -7.096 -12.799 -10.326 -20.43 -7.318"/>
		<path style="fill: var(--neptune-color-1);" d="M214.558 24.841h-17.695L188.011 40.174l8.852 15.333 8.842 -15.333h17.705z" />
	</symbol>

  <symbol xmlns="http://www.w3.org/2000/svg" viewBox="0 0 455 225" id="sap">
    <linearGradient id="a" x2="0" y2="225" gradientUnits="userSpaceOnUse">
      <stop stop-color="#0ae"></stop>
      <stop stop-color="#05a" offset="1"></stop>
    </linearGradient>
    <path d="m455 0h-455v225h230" fill="url(#a)"></path>
    <path d="m225 45v106l-39-106h-39l-33 88c-4-22-27-30-45-36-12-4-25-9-25-16 0-5 7-10 20-9 9 1 17 1 33 9l16-27c-15-8-35-12-51-12-19 0-35 6-45 16-7 7-10 16-11 26 0 14 5 24 16 32 9 6 20 10 30 13 13 4 23 8 23 15-1 9-11 11-18 11-12 1-22-1-37-10l-14 27c15 9 31 13 50 13 13 0 33-4 44-14l-2 9h38l7-17c15 4 32 5 47 0l5 17h68v-40h14c35 0 56-17 56-47 0-34-20-48-63-48zm-73 88 14-45h1l14 45c-10 3-20 3-29 0zm111-23v-36h10c13 0 23 4 23 17 0 14-10 19-23 19z" fill="#fff"></path>
  </symbol>
	
  <symbol xmlns="http://www.w3.org/2000/svg" xmlns:xlink="http://www.w3.org/1999/xlink" viewBox="0 0 89 15.086" id="emixa">
		<path style="fill: var(--emixa-color);" d="M196.855,0H199.3a.385.385,0,0,1,.317.167l3.513,5.108L206.637.169A.385.385,0,0,1,206.954,0h2.46a.385.385,0,0,1,.317.6L199.893,14.92a.384.384,0,0,1-.317.167h-2.46a.385.385,0,0,1-.317-.6l4.639-6.75-4.9-7.129a.385.385,0,0,1,.317-.6M206.5,10.191l2.945,4.293a.385.385,0,0,1-.317.6h-2.451a.384.384,0,0,1-.317-.167l-1.56-2.269Z" transform="translate(-143.104 -0.001)"></path>
		<path style="fill: var(--emixa-color);" d="M0,12.093V14.73q0-1.483,0-2.637ZM0,.385V2.554a.385.385,0,0,0,.385.385H9.206a.385.385,0,0,0,.315-.164L11.045.606A.385.385,0,0,0,10.73,0H.385A.385.385,0,0,0,0,.385" transform="translate(0 0)"></path>
		<path style="fill: var(--emixa-color);" d="M11.086,25.069H3.39v3.164h7.7a.385.385,0,0,1,.385.385v2.224a.385.385,0,0,1-.385.385H.385A.385.385,0,0,1,0,30.842v-8.3a.385.385,0,0,1,.385-.385h10.7a.385.385,0,0,1,.385.385v2.139a.385.385,0,0,1-.385.385" transform="translate(0 -16.141)"></path>
		<path style="fill: var(--emixa-color);" d="M75.375,4.906l-.012,9.8a.385.385,0,0,1-.385.385H72.363a.385.385,0,0,1-.385-.385V.385A.385.385,0,0,1,72.363,0h2.8a.384.384,0,0,1,.316.165l4.073,5.841L83.643.164A.386.386,0,0,1,83.959,0h2.8a.385.385,0,0,1,.385.385l0,14.316a.385.385,0,0,1-.385.385h-2.62a.385.385,0,0,1-.385-.385V4.892l-3.879,5.591a.385.385,0,0,1-.632,0Z" transform="translate(-52.427 0)"></path>
		<path style="fill: var(--emixa-color);" d="M156.858.006l2.62,0a.385.385,0,0,1,.385.385V14.705a.385.385,0,0,1-.385.385h-2.62a.385.385,0,0,1-.385-.385V.391a.385.385,0,0,1,.385-.385" transform="translate(-113.971 -0.004)"></path>
		<path style="fill: var(--emixa-color);" d="M270.488,14.55C271.541,12.086,275.9,1.9,276.613.232A.383.383,0,0,1,276.967,0h2.582a.383.383,0,0,1,.354.233c.71,1.673,5.029,11.861,6.061,14.319a.385.385,0,0,1-.355.534h-2.667a.385.385,0,0,1-.356-.238L278.194,4.209,273.8,14.848a.385.385,0,0,1-.356.238h-2.6a.385.385,0,0,1-.354-.536" transform="translate(-196.994 0)"></path>
  </symbol>

  <symbol xmlns="http://www.w3.org/2000/svg" xmlns:xlink="http://www.w3.org/1999/xlink" viewBox="0 0 650 135" id="innov8ion">
    <path style="fill: var(--innov8ion-color);" d="M25,27.8h14.5v84.5H25V27.8z"></path>
    <path style="fill: var(--innov8ion-color);" d="M437.3,48.9h14.5v63.4h-14.5V48.9z"></path>
    <g>
      <g>
        <polygon style="fill: var(--innov8ion-color);" points="46.4,112.4 61,112.4 61,56.9 46.4,36.1"></polygon>
        <polygon style="fill: var(--innov8ion-color);" points="120.7,28.1 105,28.1 105,74.2 120.7,96.5"></polygon>
        <polygon style="fill: var(--innov8ion-color);" points="67.5,28.1 61,28.1 46.4,28.1 46.4,29.5 79.5,76.7 79.5,76.7 105,112.4 120.7,112.4 120.7,103.2 95.1,66.7"></polygon>
      </g>
    </g>
    <g>
      <g>
        <polygon style="fill: var(--innov8ion-color);" points="625,96.7 625,28.1 609.4,28.1 609.4,74.4"></polygon>
        <polygon style="fill: var(--innov8ion-color);" points="550.7,36.3 550.7,112.4 565.3,112.4 565.3,57.1"></polygon>
        <polygon style="fill: var(--innov8ion-color);" points="594.8,60.1 571.9,28.1 565.3,28.1 550.7,28.1 550.7,29.6 579.7,71.1 609.4,112.4 625,112.4 625,103.3"></polygon>
      </g>
    </g>
    <g>
      <g>
        <polygon style="fill: var(--innov8ion-color);" points="204.4,97 204.4,28.1 188.8,28.1 188.8,74.6"></polygon>
        <path style="fill: var(--innov8ion-color);" d="M169.6,53.8c-0.1-0.1-0.1-0.2-0.1-0.3l-18.1-25.3h-6.6h-14.6v1.8l21,30l37.7,52.5h15.6v-8.8L169.6,53.8z"></path>
        <polygon style="fill: var(--innov8ion-color);" points="130.1,36.5 130.1,112.4 144.7,112.4 144.7,57.3"></polygon>
      </g>
    </g>
    <g>
      <g>
        <polygon style="fill: var(--innov8ion-color);" points="338.5,110.1 365.7,28.4 346.6,28.4 329.6,81.6"></polygon>
        <path style="fill: var(--innov8ion-color);" d="M318.6,59.5c0-0.1,0-0.1,0-0.2l-9.8-30.9h-19l27.3,83.9h18.2L318.6,59.5z"></path>
      </g>
    </g>
    <g>
      <g>
        <path style="fill: var(--innov8ion-color);" d="M250.8,95.5c-2.8-0.2-5.5-0.8-8-2c-3.1-1.4-5.8-3.2-8.1-5.5c-2.3-2.3-4.2-5-5.5-8.1c-1.4-3.1-2.1-6.4-2.1-9.9 c0-3.5,0.7-6.8,2.1-9.9c1.4-3.1,3.2-5.8,5.5-8.2c2.3-2.3,5-4.2,8.1-5.6c2.5-1.1,5.2-1.8,8-2V26.6c-5.3,0.2-10.3,1.3-15,3.3 c-5.3,2.3-9.8,5.4-13.8,9.3c-3.9,3.9-7,8.5-9.3,13.8c-2.3,5.3-3.4,11-3.4,17c0,6,1.1,11.7,3.4,16.9c2.3,5.3,5.4,9.8,9.3,13.8 c3.9,3.9,8.5,7,13.8,9.3c4.7,2,9.7,3.1,15,3.3V95.5z"></path>
        <path style="fill: var(--innov8ion-color);" d="M292.8,53c-2.3-5.3-5.4-9.9-9.3-13.8c-3.9-3.9-8.5-7-13.8-9.3c-4.7-2-9.7-3.1-15-3.3v17.8 c2.8,0.2,5.5,0.8,8,2c3.1,1.4,5.7,3.2,8.1,5.6c2.3,2.4,4.1,5.1,5.5,8.2c1.3,3.1,2,6.4,2,9.9c0,3.5-0.7,6.8-2,9.9 c-1.3,3.1-3.2,5.8-5.5,8.1c-2.3,2.3-5,4.2-8.1,5.5c-2.5,1.1-5.2,1.8-8,2v17.8c5.3-0.2,10.3-1.3,15-3.3c5.3-2.3,9.9-5.4,13.8-9.3 c3.9-3.9,7-8.5,9.3-13.8c2.3-5.2,3.5-10.9,3.5-16.9C296.2,63.9,295.1,58.3,292.8,53z"></path>
      </g>
    </g>
    <g>
      <g>
        <path style="fill: var(--innov8ion-color);" d="M396.8,98.5h-7.5c-5,0-6.5-2.4-7.2-4.1l0,0c-0.4-0.9-0.5-1.4-0.5-1.6l0-0.1l0-9.4c0-0.2,0.1-0.5,0.2-1.1 c0.6-2.7,2.3-4.1,5.3-4.5c0.2,0,0.3,0,0.6-0.1l0-15.5c-0.1,0-0.3,0-1-0.2c-2.8-0.7-4.4-2.3-4.8-5c-0.2-1.2-0.2-1.5-0.2-1.5v-7.6 c0-4.3,2-6.2,6.5-6.2l8.7,0V26.1h-8c-1.4,0-2.8,0.1-4,0.3c-8,1.1-13.6,4.8-16.6,11.1c-1.4,2.9-2.1,5.6-2.1,8.1v9.4 c0,1,0.1,2.2,0.3,3.4c0.8,5.3,2.8,9.3,5.9,11.7c-3.1,2.4-5.1,6.3-5.9,11.6c-0.2,1.2-0.3,2.3-0.3,3.4v9.4l0,0.2 c0.8,7.6,4.5,13.3,11.1,16.7c3.3,1.7,7.2,2.6,11.5,2.6h8V98.5z"></path>
        <path style="fill: var(--innov8ion-color);" d="M430,58.3c0.2-1.2,0.3-2.3,0.3-3.4v-9.4c0-2.5-0.7-5.2-2.1-8.1c-3.7-7.5-10.6-11.3-20.6-11.3h-7v15.5l8.5,0 c3.3,0.3,5,1.7,5.5,4.6c0.2,1.1,0.2,1.5,0.2,1.5v7.6c0,3.6-1.7,5.7-5.5,6.5c-0.7,0.2-1.2,0.2-1.4,0.2l0,15.5 c0.4,0.1,0.6,0.1,0.7,0.1c4.6,0.5,5.6,2.8,6,4.7c0.1,0.3,0.2,0.6,0.2,0.8v9.1c0,1.9-0.5,3.2-1.7,3.9l-0.3,0.2 c-1.4,1.4-3.5,2.1-6.5,2.1h-5.8v15.5h7c4.5,0,8.4-0.9,11.5-2.6c7.4-4.1,11.1-9.8,11.1-16.9V85c0-1-0.1-2.2-0.3-3.4 c-0.8-5.3-2.8-9.2-5.9-11.6C427.3,67.5,429.2,63.6,430,58.3z"></path>
      </g>
    </g>
    <g>
      <g>
        <path style="fill: var(--innov8ion-color);" d="M501.2,95.5c-3.2-0.1-6.2-0.8-9-2c-3.1-1.4-5.8-3.2-8.1-5.5c-2.3-2.3-4.2-5-5.5-8.1c-1.4-3.1-2.1-6.4-2.1-9.9 c0-3.5,0.7-6.8,2.1-9.9c1.4-3.1,3.2-5.8,5.5-8.2c2.3-2.3,5-4.2,8.1-5.6c2.8-1.2,5.8-1.9,9-2V26.5c-5.7,0.1-11,1.2-16,3.4 c-5.3,2.3-9.8,5.4-13.8,9.3c-3.9,3.9-7,8.5-9.3,13.8c-2.3,5.3-3.4,11-3.4,17c0,6,1.1,11.7,3.4,16.9c2.3,5.3,5.4,9.8,9.3,13.8 c3.9,3.9,8.5,7,13.8,9.3c5,2.1,10.3,3.2,16,3.4V95.5z"></path>
        <path style="fill: var(--innov8ion-color);" d="M542.2,53c-2.3-5.3-5.4-9.9-9.3-13.8c-3.9-3.9-8.5-7-13.8-9.3c-4.4-1.9-9.1-3-14-3.3v17.8 c2.5,0.3,4.8,0.9,7,1.9c3.1,1.4,5.7,3.2,8.1,5.6c2.3,2.4,4.1,5.1,5.5,8.2c1.3,3.1,2,6.4,2,9.9c0,3.5-0.7,6.8-2,9.9 c-1.3,3.1-3.2,5.8-5.5,8.1c-2.3,2.3-5,4.2-8.1,5.5c-2.2,1-4.6,1.6-7,1.9v17.8c4.9-0.3,9.6-1.4,14-3.3c5.3-2.3,9.9-5.4,13.8-9.3 c3.9-3.9,7-8.5,9.3-13.8c2.3-5.2,3.5-10.9,3.5-16.9C545.6,63.9,544.5,58.3,542.2,53z"></path>
      </g>
    </g>
    <rect style="fill: var(--innov8ion-color);" x="437.3" y="28.1" width="14.5" height="16.1"></rect>
    <path style="fill: var(--innov8ion-color);" d="M405.8,57c1.2,0,2.2-1,2.2-2.2v-6.5c0-1.2-1-2.2-2.2-2.2h-16c-1.2,0-2.2,1-2.2,2.2v6.5c0,1.2,1,2.2,2.2,2.2h6.1 v25.3h-6.1c-1.2,0-2.2,1-2.2,2.2v6.5c0,1.2,1,2.2,2.2,2.2h16c1.2,0,2.2-1,2.2-2.2v-6.5c0-1.2-1-2.2-2.2-2.2h-6.1V57H405.8z"></path>
  </symbol>

  <symbol xmlns="http://www.w3.org/2000/svg" viewBox="0 0 1786 274" id="comweg">
    <path style="fill: var(--comweg-color-0);" opacity="1.000000" stroke="none" d=" M393.468658,275.000000 C391.836334,274.337799 390.731140,273.244873 389.500244,273.077728 C369.425629,270.351379 350.615112,264.342590 334.316772,251.875214 C315.362244,237.376007 303.454712,218.322281 300.232208,194.716782 C298.129059,179.310806 297.735260,163.645493 297.091400,148.075012 C296.623657,136.763763 296.744324,125.410568 297.056610,114.088593 C297.594940,94.569801 299.421234,75.217827 308.784271,57.542633 C321.605103,33.340008 341.738495,18.056629 367.617004,9.881842 C384.436401,4.568741 401.750702,2.541738 419.246674,3.112776 C444.659393,3.942202 469.059570,8.881851 490.406555,23.930408 C512.966431,39.834007 525.978088,61.553108 529.990845,88.780548 C533.529968,112.794121 531.581543,136.958725 531.951538,161.056061 C532.231201,179.273041 530.255798,197.175674 523.433472,214.325119 C515.834778,233.425964 503.101318,247.933655 485.414276,258.301117 C471.559326,266.422363 456.493896,270.683502 440.757599,273.023926 C439.535278,273.205719 438.379517,273.834869 437.096405,274.628052 C422.645782,275.000000 408.291534,275.000000 393.468658,275.000000 M458.904327,143.181824 C458.602875,135.887115 458.314026,128.591858 457.996521,121.297852 C457.671722,113.835617 457.740143,106.326286 456.891296,98.923004 C455.069000,83.029076 448.100006,70.029572 432.527832,64.116356 C425.935303,61.612961 418.271240,61.230339 411.079865,61.149090 C395.501831,60.973076 383.448700,68.308990 377.238556,82.343369 C373.516785,90.754219 371.512756,100.536736 371.291382,109.764030 C370.745148,132.531586 371.078033,155.364014 372.209106,178.113129 C373.007294,194.166138 380.280823,207.083832 395.857788,213.914520 C404.047424,217.505768 412.795624,217.762054 421.375427,216.821609 C435.037018,215.324173 445.832611,209.040070 452.030975,196.040833 C456.132050,187.440094 457.479614,178.318665 457.963379,169.001938 C458.393799,160.712097 458.514832,152.406204 458.904327,143.181824 z"></path>
    <path style="fill: var(--comweg-color-1);" opacity="1.000000" stroke="none" d=" M1787.000000,189.531342 C1786.344971,190.462357 1785.193726,190.846176 1785.106323,191.398422 C1781.794067,212.315430 1771.675781,229.529800 1755.997070,243.368240 C1742.207764,255.538971 1725.827881,263.123840 1707.909912,266.864929 C1697.876831,268.959686 1687.575806,269.866974 1677.358398,270.964020 C1656.401733,273.214050 1635.962036,270.289520 1615.967163,264.011169 C1599.068848,258.705200 1584.407837,249.693817 1572.799438,236.220184 C1561.972778,223.653854 1554.875366,209.125671 1552.038818,192.733078 C1547.088989,164.126022 1549.078247,135.227127 1549.216675,106.453850 C1549.283691,92.503723 1550.697876,78.496841 1555.844482,65.082954 C1563.858521,44.195587 1577.425781,28.366407 1596.917114,17.582754 C1612.068481,9.200097 1628.343262,4.426122 1645.592163,2.915064 C1646.303589,2.852738 1646.956665,2.125206 1647.318359,1.353783 C1660.354248,1.000000 1673.708496,1.000000 1687.213135,1.353882 C1689.705933,2.144685 1692.047852,2.583486 1694.390625,3.018193 C1713.323853,6.531296 1731.818359,11.489916 1748.147217,22.107456 C1766.467651,34.020023 1780.628174,49.273949 1785.101196,71.656906 C1785.211426,72.209045 1786.344116,72.556908 1787.000000,73.000031 C1787.000000,76.361290 1787.000000,79.722572 1786.756104,83.200493 C1783.208618,89.675331 1777.350586,89.078796 1771.523682,89.039902 C1754.529785,88.926476 1737.530884,88.797165 1720.541870,89.109070 C1714.546509,89.219131 1711.126099,86.500031 1708.267578,81.769173 C1704.017578,74.735764 1699.364502,68.019272 1691.821777,63.929173 C1680.499268,57.789314 1668.362061,56.820873 1656.114502,59.206505 C1647.012207,60.979485 1638.647949,64.591652 1632.591797,72.621147 C1625.848511,81.561592 1623.352051,91.714142 1623.129395,102.355782 C1622.690430,123.340019 1622.853760,144.341583 1623.092163,165.332291 C1623.160522,171.351273 1623.747070,177.497726 1625.126465,183.342514 C1628.706543,198.512329 1637.333862,209.466705 1653.521362,211.854034 C1663.738281,213.360779 1674.176025,213.422409 1684.523071,213.980194 C1700.999512,214.868408 1717.435425,201.830811 1721.039917,187.438904 C1722.649170,181.013153 1725.077026,174.899689 1730.732300,170.826187 C1733.427002,168.885193 1736.360718,167.276047 1740.015991,164.999817 C1738.187378,164.999817 1737.266846,164.999817 1736.346436,164.999817 C1718.185425,164.999802 1700.024536,165.014160 1681.863525,164.990540 C1676.738892,164.983871 1672.179077,161.668152 1672.115723,157.212616 C1672.031494,151.304367 1672.022217,145.254822 1673.155396,139.497177 C1675.966919,125.211960 1692.093994,115.490517 1702.662720,115.815750 C1723.136963,116.445801 1743.644531,116.050865 1764.137695,115.977135 C1773.492310,115.943474 1780.001953,120.161522 1784.151611,128.440445 C1784.683960,129.502640 1786.030640,130.156784 1787.000000,131.000000 C1787.000000,150.354233 1787.000000,169.708450 1787.000000,189.531342 z"></path>
    <path style="fill: var(--comweg-color-2);" opacity="1.000000" stroke="none" d=" M0.999999,90.468658 C1.700431,88.631432 2.770569,87.333054 3.045723,85.883743 C7.039554,64.847137 15.714337,46.281803 31.811186,31.737041 C46.778885,18.212555 64.491814,10.111393 84.219002,6.475711 C120.328445,-0.179185 155.510803,2.093698 188.753296,18.961746 C214.008850,31.777027 229.984619,52.068989 235.444107,80.116531 C236.391144,84.981842 236.819489,90.010147 236.873047,94.969803 C236.926071,99.877876 233.962372,102.867714 229.077560,102.904854 C210.083313,103.049294 191.087250,103.001709 172.092117,102.942749 C168.234619,102.930779 165.421631,100.982414 163.992004,97.351852 C162.589478,93.790123 161.377899,90.153656 160.009003,86.578140 C155.156464,73.903526 146.583862,64.556694 133.018753,62.539223 C123.187454,61.077068 112.655609,61.027489 102.932198,62.910046 C88.314285,65.740227 76.965843,80.465675 76.209366,97.159012 C75.117340,121.256668 75.014870,145.416245 75.192261,169.544235 C75.247505,177.057053 76.778351,184.803116 79.031746,192.004944 C83.747307,207.075775 95.019630,215.049438 110.348732,216.748367 C117.038460,217.489792 124.028976,217.005798 130.715546,215.983627 C145.597076,213.708725 155.427002,204.670364 160.143845,190.667313 C165.956146,173.412201 166.498672,174.989822 182.312515,174.998367 C196.975769,175.006271 211.639053,174.981247 226.302261,175.008163 C234.553467,175.023300 237.484726,177.714218 236.928650,185.749100 C235.633728,204.458923 229.837875,221.429825 217.562347,236.070724 C199.895081,257.142334 176.247345,266.650940 150.274979,271.991058 C146.932281,272.678345 143.624634,273.536072 140.150375,274.657410 C125.645775,275.000000 111.291542,275.000000 96.318306,274.657410 C92.385323,273.536896 89.094345,272.638580 85.753670,272.000458 C63.590187,267.766785 43.444614,259.437897 27.461588,242.917450 C13.721026,228.714905 6.425506,211.340698 3.042547,192.100739 C2.788990,190.658691 1.700411,189.363480 1.000002,188.000000 C1.000000,155.645767 1.000000,123.291542 0.999999,90.468658 z"></path>
    <path style="fill: var(--comweg-color-3);" opacity="1.000000" stroke="none" d=" M939.979370,58.124195 C937.978149,46.195980 935.963806,34.713348 934.022888,23.218315 C933.558044,20.465015 933.053772,17.669003 933.067871,14.895181 C933.092041,10.140035 936.073608,7.074312 940.815552,7.046600 C957.976807,6.946313 975.139771,6.914112 992.300415,7.061203 C998.070068,7.110658 1001.723877,10.571730 1002.831299,16.944595 C1004.715881,27.789721 1006.286011,38.689468 1007.990967,49.565838 C1009.771912,60.927246 1011.534424,72.291595 1013.344360,83.648384 C1015.541382,97.434273 1017.761292,111.216591 1020.006897,124.994659 C1021.363708,133.319946 1022.788086,141.634232 1024.397705,151.239487 C1026.105225,149.440872 1027.171143,148.822540 1027.446533,147.953674 C1033.350830,129.322556 1039.152954,110.659119 1045.006714,92.011948 C1047.073730,85.427528 1048.887085,78.733940 1051.450684,72.344727 C1053.329712,67.661751 1056.918823,64.772942 1062.619629,64.927910 C1072.276489,65.190437 1081.945679,64.980698 1091.609619,65.007454 C1097.475342,65.023697 1101.274414,67.563286 1103.070679,73.168228 C1110.789917,97.253784 1118.376343,121.381874 1126.070801,145.475418 C1126.581787,147.075104 1127.588745,148.516388 1129.614014,149.852554 C1131.075806,141.238953 1132.556885,132.628540 1133.995361,124.011055 C1136.915405,106.518631 1139.842896,89.027336 1142.709961,71.526184 C1145.179688,56.449310 1147.556885,41.357277 1150.004150,26.276678 C1150.608154,22.555065 1151.209961,18.826555 1152.017578,15.146181 C1153.190308,9.802071 1156.187988,7.101855 1161.698853,7.058937 C1179.192993,6.922696 1196.689941,6.892062 1214.183105,7.074022 C1219.806641,7.132515 1222.155029,12.391777 1221.418579,17.841274 C1219.749146,30.193005 1217.265991,42.433632 1215.175171,54.729870 C1212.752197,68.979591 1210.398682,83.241135 1208.007690,97.496307 C1205.101196,114.825241 1202.157471,132.148010 1199.285400,149.482635 C1196.815186,164.392899 1194.468262,179.323639 1191.983398,194.231415 C1189.553711,208.808548 1187.035034,223.370956 1184.522095,237.934097 C1183.434326,244.238113 1182.374268,250.550262 1181.103271,256.818420 C1179.337769,265.524475 1174.546509,269.808533 1165.923340,269.943787 C1153.263428,270.142365 1140.584473,270.341858 1127.940186,269.854279 C1121.156860,269.592712 1116.602661,268.050476 1113.385376,258.915314 C1102.360596,227.612259 1091.117920,196.385956 1079.914551,165.146088 C1079.386108,163.672592 1078.436890,162.349960 1076.873779,159.459457 C1074.578735,165.238815 1072.676514,169.608658 1071.091064,174.090591 C1061.227783,201.973541 1051.426270,229.878387 1041.625244,257.783356 C1038.661865,266.220490 1033.469727,269.989136 1024.600952,269.997314 C1014.270508,270.006805 1003.936890,269.837494 993.610229,270.035278 C975.398254,270.384094 974.227661,263.140594 972.035217,250.522430 C969.027466,233.211685 966.182190,215.872589 963.298096,198.540527 C960.844421,183.795334 958.457275,169.039047 955.998413,154.294724 C953.540283,139.554611 951.018616,124.825104 948.545044,110.087555 C946.016846,95.024612 943.511108,79.957870 941.000854,64.891930 C940.649841,62.785542 940.328308,60.674248 939.979370,58.124195 z"></path>
    <path style="fill: var(--comweg-color-4);" opacity="1.000000" stroke="none" d=" M674.972290,168.000000 C674.972290,197.662994 674.976746,226.825974 674.961426,255.988968 C674.960510,257.814819 675.038025,259.687927 674.679993,261.458282 C673.078247,269.377991 671.042725,270.982422 662.813843,270.994141 C648.149048,271.015015 633.484131,271.025421 618.819397,270.989990 C610.153137,270.969025 607.005188,267.848755 607.004456,259.358337 C606.997803,186.034241 607.082275,112.709991 606.936401,39.386185 C606.904541,23.338480 622.685669,9.255478 637.506042,8.111040 C645.126282,7.522600 652.829651,8.043211 660.494995,7.995232 C668.180298,7.947127 671.778442,13.131205 675.019043,18.990063 C690.171631,46.385220 705.376038,73.751808 720.579651,101.118759 C725.244751,109.516136 730.029541,117.847649 734.632629,126.278587 C736.674805,130.018906 738.148071,129.490433 740.013733,126.146912 C748.651611,110.666649 757.386841,95.240669 766.071594,79.786499 C778.401794,57.845375 790.637512,35.850456 803.112366,13.991907 C805.465088,9.869513 809.748047,8.060841 814.489441,8.034634 C828.653870,7.956341 842.819275,7.953127 856.983765,8.025291 C863.761841,8.059822 867.977661,12.481681 867.986328,19.456366 C868.017517,44.453175 867.999756,69.450043 867.999817,94.446892 C867.999939,148.940018 868.002136,203.433136 867.997314,257.926270 C867.996399,267.956268 864.961731,270.992249 854.948120,270.998352 C840.616577,271.007111 826.285034,271.017731 811.953552,270.992737 C804.316223,270.979431 801.003601,267.704102 801.002563,260.228333 C800.997009,219.566788 801.016541,178.905228 800.955322,138.243774 C800.951904,135.942368 800.308716,133.641922 799.963318,131.341034 C799.510071,131.292465 799.056885,131.243912 798.603638,131.195358 C795.501465,136.582169 792.310059,141.919922 789.313416,147.364838 C779.651245,164.920517 770.083862,182.528366 760.428467,200.087814 C757.567261,205.291321 753.260376,208.157639 747.105286,208.026138 C741.441895,207.905136 735.744568,207.635880 730.114990,208.088501 C722.016296,208.739655 716.775452,204.885193 713.162659,198.288696 C704.090942,181.724777 695.183472,165.071014 686.178650,148.470398 C683.040161,142.684525 679.809326,136.948776 676.620605,131.190155 C676.071167,131.288696 675.521790,131.387253 674.972351,131.485794 C674.972351,143.490524 674.972351,155.495270 674.972290,168.000000 z"></path>
    <path style="fill: var(--comweg-color-5);" opacity="1.000000" stroke="none" d=" M1349.019897,72.086227 C1350.402954,76.065712 1352.364624,79.596588 1352.838501,83.316933 C1353.485840,88.399597 1352.901367,93.628853 1353.024780,98.790970 C1353.205933,106.364540 1357.941406,110.987976 1365.423706,110.992958 C1391.915405,111.010590 1418.407471,111.067932 1444.898804,110.957542 C1452.591064,110.925491 1456.562378,114.310631 1456.147949,122.198143 C1455.563110,133.330597 1456.016846,144.516754 1455.993164,155.679886 C1455.979248,162.248901 1453.251099,164.990540 1446.686279,164.993195 C1411.200806,165.007599 1375.715332,165.000046 1340.231689,165.000046 C1342.798096,167.137604 1345.430542,169.082962 1347.767944,171.334412 C1351.332886,174.768112 1353.255859,178.918137 1353.049561,184.066528 C1352.829590,189.555984 1352.919678,195.062592 1353.020386,200.559052 C1353.164917,208.443939 1357.840820,212.993591 1365.696533,212.995697 C1401.185425,213.005188 1436.674438,212.995911 1472.163330,213.002853 C1480.023926,213.004395 1483.997437,216.914169 1483.999268,224.603165 C1484.002075,236.599426 1484.012329,248.595703 1483.994385,260.591949 C1483.986206,266.037659 1480.297852,269.797882 1474.833984,269.995697 C1474.168457,270.019806 1473.501221,269.999939 1472.834839,269.999939 C1413.686646,270.000031 1354.538330,270.001434 1295.390137,269.998474 C1287.424927,269.998077 1285.001831,267.605865 1285.001587,259.743500 C1284.998901,185.933182 1285.161621,112.122200 1284.854614,38.313164 C1284.797852,24.653564 1297.379272,10.092683 1311.065796,8.061798 C1315.613037,7.387045 1320.252563,7.050910 1324.850708,7.044013 C1372.502441,6.972527 1420.154175,6.997554 1467.806030,7.002247 C1477.093140,7.003162 1480.999878,10.857265 1481.000000,19.973057 C1481.000122,31.136240 1481.002686,42.299423 1480.999146,53.462608 C1480.996826,61.030972 1477.974731,63.994118 1470.189087,63.996223 C1437.532593,64.005051 1404.876099,63.999985 1372.219604,64.000000 C1361.892578,64.000008 1351.565430,64.000000 1340.743896,64.000000 C1343.685791,66.773285 1346.310547,69.247673 1349.019897,72.086227 z"></path>
  </symbol>

</svg>