<?xml version="1.0" encoding="UTF-8"?>
<svg xmlns="http://www.w3.org/2000/svg" xmlns:xlink="http://www.w3.org/1999/xlink" width="0" height="0">

	<symbol id="sap" xmlns="http://www.w3.org/2000/svg" viewBox="0 0 455 225">
    <linearGradient id="a" x2="0" y2="225" gradientUnits="userSpaceOnUse">
      <stop stop-color="#0ae"></stop>
      <stop stop-color="#05a" offset="1"></stop>
    </linearGradient>
    <path d="m455 0h-455v225h230" fill="url(#a)"></path>
    <path d="m225 45v106l-39-106h-39l-33 88c-4-22-27-30-45-36-12-4-25-9-25-16 0-5 7-10 20-9 9 1 17 1 33 9l16-27c-15-8-35-12-51-12-19 0-35 6-45 16-7 7-10 16-11 26 0 14 5 24 16 32 9 6 20 10 30 13 13 4 23 8 23 15-1 9-11 11-18 11-12 1-22-1-37-10l-14 27c15 9 31 13 50 13 13 0 33-4 44-14l-2 9h38l7-17c15 4 32 5 47 0l5 17h68v-40h14c35 0 56-17 56-47 0-34-20-48-63-48zm-73 88 14-45h1l14 45c-10 3-20 3-29 0zm111-23v-36h10c13 0 23 4 23 17 0 14-10 19-23 19z" fill="#fff"></path>
  </symbol>

	<symbol id="neptune" xmlns="http://www.w3.org/2000/svg" viewBox="20 20 210 42">
		<path style="fill: var(--neptune-color-0);" d="m38.216 46.109 -8.772 -17.675h-5.875v23.509h4.098V33.431l9.256 18.512h5.39V28.435h-4.098zm18.957 -10.821c-1.191 -0.686 -2.554 -1.03 -4.098 -1.03 -1.595 0 -3.018 0.363 -4.28 1.09s-2.241 1.777 -2.958 3.149 -1.07 2.988 -1.07 4.845c0 2.009 0.353 3.694 1.05 5.047s1.666 2.362 2.907 3.038c1.231 0.666 2.685 0.999 4.34 0.999 1.474 0 2.776 -0.252 3.886 -0.767 1.11 -0.505 2.009 -1.231 2.675 -2.16s1.08 -2.019 1.231 -3.281h-4.179c-0.151 0.959 -0.535 1.706 -1.161 2.221 -0.616 0.515 -1.393 0.777 -2.332 0.777 -0.878 0 -1.635 -0.202 -2.271 -0.616s-1.131 -1.019 -1.464 -1.827q-0.409 -0.984 -0.485 -2.362h11.961c0.01 -0.373 0.02 -0.828 0.02 -1.363 0 -1.847 -0.323 -3.432 -0.979 -4.754 -0.686 -1.312 -1.605 -2.322 -2.796 -3.008m-6.319 2.725c0.616 -0.414 1.322 -0.616 2.13 -0.616 0.777 0 1.433 0.172 1.989 0.515 0.545 0.343 0.959 0.868 1.242 1.565 0.222 0.535 0.353 1.181 0.404 1.918h-7.611q0.121 -0.878 0.424 -1.575c0.343 -0.787 0.818 -1.393 1.423 -1.807m35.813 -8.398H83.275l-0.081 1.686c-0.04 0.828 -0.182 1.494 -0.414 1.999s-0.585 0.868 -1.05 1.09 -1.06 0.333 -1.797 0.333h-0.363v3.21h2.947v9.327c0 1.191 0.212 2.15 0.636 2.887s1.03 1.262 1.807 1.595 1.706 0.505 2.806 0.505c0.434 0 0.848 -0.03 1.242 -0.081s0.767 -0.131 1.11 -0.232v-3.2c-0.404 0.101 -0.838 0.151 -1.312 0.151 -0.686 0 -1.221 -0.162 -1.595 -0.474s-0.555 -0.848 -0.555 -1.595v-8.883h3.755V34.723h-3.755v-5.108zm56.113 13.445c0 -1.847 -0.323 -3.432 -0.979 -4.754s-1.575 -2.332 -2.776 -3.018c-1.191 -0.686 -2.554 -1.03 -4.098 -1.03 -1.595 0 -3.018 0.363 -4.28 1.09s-2.241 1.777 -2.958 3.149 -1.07 2.988 -1.07 4.845c0 2.009 0.353 3.694 1.05 5.047s1.666 2.362 2.907 3.038c1.231 0.666 2.685 0.999 4.34 0.999 1.474 0 2.776 -0.252 3.886 -0.767 1.11 -0.505 2.009 -1.231 2.675 -2.16s1.08 -2.019 1.231 -3.281h-4.179c-0.151 0.959 -0.535 1.706 -1.161 2.221 -0.616 0.515 -1.393 0.777 -2.332 0.777 -0.878 0 -1.635 -0.202 -2.271 -0.616s-1.131 -1.019 -1.464 -1.827q-0.409 -0.984 -0.485 -2.362h11.961zm-10.064 -5.047c0.616 -0.414 1.322 -0.616 2.13 -0.616 0.777 0 1.433 0.172 1.989 0.515 0.545 0.343 0.959 0.868 1.242 1.565 0.222 0.535 0.353 1.181 0.404 1.918h-7.611q0.121 -0.878 0.424 -1.575c0.333 -0.787 0.808 -1.393 1.423 -1.807m-56.678 -2.665c-1.04 -0.737 -2.281 -1.1 -3.694 -1.1 -0.939 0 -1.797 0.182 -2.564 0.545s-1.423 0.878 -1.948 1.565c-0.202 0.262 -0.373 0.545 -0.535 0.838V34.723h-4.169v22.318h4.169v-7.813l0.495 0.858c0.444 0.777 1.1 1.433 1.918 1.807 0.01 0 0.01 0.01 0.02 0.01 0.747 0.343 1.575 0.505 2.513 0.505 1.433 0 2.675 -0.373 3.735 -1.11s1.877 -1.787 2.443 -3.159c0.565 -1.363 0.848 -2.978 0.848 -4.825 0 -1.857 -0.273 -3.472 -0.828 -4.835 -0.565 -1.343 -1.363 -2.392 -2.402 -3.129m-1.514 11.043c-0.283 0.868 -0.707 1.544 -1.282 2.029 -0.565 0.485 -1.272 0.717 -2.1 0.717 -0.818 0 -1.524 -0.242 -2.1 -0.717 -0.575 -0.485 -1.019 -1.161 -1.312 -2.029s-0.444 -1.888 -0.444 -3.038c0 -1.161 0.151 -2.17 0.444 -3.048s0.737 -1.554 1.312 -2.049 1.282 -0.737 2.1 -0.737c0.828 0 1.534 0.242 2.1 0.737s0.999 1.171 1.282 2.039q0.424 1.302 0.424 3.058c0 1.161 -0.141 2.17 -0.424 3.038m28.203 -1.726q0 1.423 -0.454 2.423c-0.303 0.666 -0.717 1.171 -1.242 1.524 -0.535 0.353 -1.151 0.525 -1.857 0.525 -0.929 0 -1.635 -0.262 -2.13 -0.797s-0.737 -1.272 -0.737 -2.221V34.723h-4.169v11.891c0 1.201 0.222 2.241 0.656 3.109q0.651 1.302 1.908 1.999c0.838 0.464 1.837 0.696 3.008 0.696 0.999 0 1.888 -0.182 2.665 -0.555 0.01 0 0.01 -0.01 0.02 -0.01 0.919 -0.444 1.645 -1.181 2.15 -2.059l0.313 -0.545v2.695h4.017V34.723h-4.149zm19.401 -9.68c-0.818 -0.485 -1.787 -0.727 -2.927 -0.727q-1.529 0 -2.725 0.545c-0.01 0 -0.01 0.01 -0.02 0.01 -0.929 0.434 -1.676 1.181 -2.18 2.069l-0.323 0.555V34.723h-4.068v17.22h4.169v-9.842c0 -0.969 0.151 -1.807 0.454 -2.493s0.727 -1.211 1.282 -1.554c0.555 -0.353 1.191 -0.525 1.928 -0.525 0.908 0 1.595 0.252 2.059 0.767q0.696 0.772 0.696 2.211v11.426h4.169V40.154q0 -1.787 -0.636 -3.119c-0.444 -0.878 -1.06 -1.565 -1.877 -2.049" />
		<path style="fill: var(--neptune-color-1);" d="M162.786 24.538c-2.513 0.989 -4.835 2.614 -6.702 4.875 -2.574 3.109 -3.846 6.945 -3.846 10.76s1.272 7.651 3.846 10.76c1.867 2.261 4.179 3.876 6.702 4.875 7.631 3.018 16.322 -0.212 20.43 -7.318l4.795 -8.317 -4.795 -8.317c-4.108 -7.096 -12.799 -10.326 -20.43 -7.318"/>
		<path style="fill: var(--neptune-color-1);" d="M214.558 24.841h-17.695L188.011 40.174l8.852 15.333 8.842 -15.333h17.705z" />
	</symbol>

</svg>
