<?xml version="1.0" encoding="UTF-8"?>
<svg xmlns="http://www.w3.org/2000/svg" xmlns:xlink="http://www.w3.org/1999/xlink" width="0" height="0">

	<symbol id="sap" xmlns="http://www.w3.org/2000/svg" viewBox="0 0 455 225">
    <linearGradient id="a" x2="0" y2="225" gradientUnits="userSpaceOnUse">
      <stop stop-color="#0ae"></stop>
      <stop stop-color="#05a" offset="1"></stop>
    </linearGradient>
    <path d="m455 0h-455v225h230" fill="url(#a)"></path>
    <path d="m225 45v106l-39-106h-39l-33 88c-4-22-27-30-45-36-12-4-25-9-25-16 0-5 7-10 20-9 9 1 17 1 33 9l16-27c-15-8-35-12-51-12-19 0-35 6-45 16-7 7-10 16-11 26 0 14 5 24 16 32 9 6 20 10 30 13 13 4 23 8 23 15-1 9-11 11-18 11-12 1-22-1-37-10l-14 27c15 9 31 13 50 13 13 0 33-4 44-14l-2 9h38l7-17c15 4 32 5 47 0l5 17h68v-40h14c35 0 56-17 56-47 0-34-20-48-63-48zm-73 88 14-45h1l14 45c-10 3-20 3-29 0zm111-23v-36h10c13 0 23 4 23 17 0 14-10 19-23 19z" fill="#fff"></path>
  </symbol>

  <symbol xmlns="http://www.w3.org/2000/svg" xmlns:xlink="http://www.w3.org/1999/xlink" viewBox="0 0 89 15.086" id="emixa">
    <defs>
      <clipPath id="clip-path">
        <rect id="Rectangle_67" width="89" height="15.086" transform="translate(0 0)" fill="none"></rect>
      </clipPath>
    </defs>
    <g id="Group_7" transform="translate(0 0)">
      <g id="Group_6" transform="translate(0 0)" clip-path="url(#clip-path)">
        <path id="Path_3" d="M196.855,0H199.3a.385.385,0,0,1,.317.167l3.513,5.108L206.637.169A.385.385,0,0,1,206.954,0h2.46a.385.385,0,0,1,.317.6L199.893,14.92a.384.384,0,0,1-.317.167h-2.46a.385.385,0,0,1-.317-.6l4.639-6.75-4.9-7.129a.385.385,0,0,1,.317-.6M206.5,10.191l2.945,4.293a.385.385,0,0,1-.317.6h-2.451a.384.384,0,0,1-.317-.167l-1.56-2.269Z" transform="translate(-143.104 -0.001)" fill="#fff"></path>
        <path id="Path_4" d="M0,12.093V14.73q0-1.483,0-2.637ZM0,.385V2.554a.385.385,0,0,0,.385.385H9.206a.385.385,0,0,0,.315-.164L11.045.606A.385.385,0,0,0,10.73,0H.385A.385.385,0,0,0,0,.385" transform="translate(0 0)" fill="#fff"></path>
        <path id="Path_5" d="M11.086,25.069H3.39v3.164h7.7a.385.385,0,0,1,.385.385v2.224a.385.385,0,0,1-.385.385H.385A.385.385,0,0,1,0,30.842v-8.3a.385.385,0,0,1,.385-.385h10.7a.385.385,0,0,1,.385.385v2.139a.385.385,0,0,1-.385.385" transform="translate(0 -16.141)" fill="#fff"></path>
        <path id="Path_6" d="M75.375,4.906l-.012,9.8a.385.385,0,0,1-.385.385H72.363a.385.385,0,0,1-.385-.385V.385A.385.385,0,0,1,72.363,0h2.8a.384.384,0,0,1,.316.165l4.073,5.841L83.643.164A.386.386,0,0,1,83.959,0h2.8a.385.385,0,0,1,.385.385l0,14.316a.385.385,0,0,1-.385.385h-2.62a.385.385,0,0,1-.385-.385V4.892l-3.879,5.591a.385.385,0,0,1-.632,0Z" transform="translate(-52.427 0)" fill="#fff"></path>
        <path id="Path_7" d="M156.858.006l2.62,0a.385.385,0,0,1,.385.385V14.705a.385.385,0,0,1-.385.385h-2.62a.385.385,0,0,1-.385-.385V.391a.385.385,0,0,1,.385-.385" transform="translate(-113.971 -0.004)" fill="#fff"></path>
        <path id="Path_8" d="M270.488,14.55C271.541,12.086,275.9,1.9,276.613.232A.383.383,0,0,1,276.967,0h2.582a.383.383,0,0,1,.354.233c.71,1.673,5.029,11.861,6.061,14.319a.385.385,0,0,1-.355.534h-2.667a.385.385,0,0,1-.356-.238L278.194,4.209,273.8,14.848a.385.385,0,0,1-.356.238h-2.6a.385.385,0,0,1-.354-.536" transform="translate(-196.994 0)" fill="#fff"></path>
      </g>
    </g>
  </symbol>

</svg>
