<?xml version="1.0" encoding="utf-8"?>
<svg version="1.1" id="Layer_1" xmlns="http://www.w3.org/2000/svg" x="0px" y="0px" width="100%" viewBox="0 0 8000 8000" enable-background="new 0 0 8000 8000">
  <path fill="#A67B5B" opacity="1.000000" stroke="none" d=" M5896.456543,3320.064453 C5894.576172,3339.916992 5893.127930,3359.821777 5890.724609,3379.610596 C5885.989258,3418.604492 5880.768066,3457.539551 5875.663086,3496.488037 C5870.991211,3532.134277 5866.099121,3567.751953 5861.504395,3603.408203 C5856.824707,3639.730469 5852.464355,3676.093750 5847.825195,3712.421631 C5843.186523,3748.745361 5838.346680,3785.043457 5833.650391,3821.359863 C5829.125000,3856.358643 5824.697266,3891.369873 5820.175781,3926.368896 C5815.313477,3964.006104 5810.337402,4001.628174 5805.513184,4039.270020 C5800.942871,4074.934570 5796.509766,4110.616699 5792.009766,4146.290527 C5787.510742,4181.963867 5783.053711,4217.643066 5778.486328,4253.307617 C5773.666016,4290.950195 5768.703125,4328.574219 5763.866699,4366.214844 C5759.453613,4400.556641 5755.151855,4434.912598 5750.753906,4469.256348 C5745.765137,4508.218262 5740.755859,4547.177246 5735.696777,4586.129883 C5731.066406,4621.783203 5726.309082,4657.419922 5721.697754,4693.075684 C5717.085938,4728.733398 5712.585938,4764.405273 5708.037109,4800.071289 C5703.488281,4835.737305 5698.956543,4871.405762 5694.389648,4907.069336 C5690.921875,4934.145020 5687.421387,4961.216797 5683.915527,4988.287598 C5679.211914,5024.604004 5674.464844,5060.914062 5669.782715,5097.233398 C5665.186523,5132.892578 5660.665527,5168.561035 5656.081543,5204.222168 C5651.243652,5241.862793 5646.340820,5279.494629 5641.521484,5317.137695 C5636.955566,5352.801758 5632.499023,5388.479492 5627.922363,5424.142090 C5623.261230,5460.464355 5618.492188,5496.772949 5613.809082,5533.092773 C5609.210938,5568.751953 5604.670898,5604.419922 5600.087402,5640.081055 C5595.249512,5677.720703 5590.379883,5715.356934 5585.545410,5752.997070 C5581.050293,5787.999023 5576.551270,5823.000000 5572.113281,5858.008789 C5567.759277,5892.357910 5563.937500,5926.783203 5558.992676,5961.046387 C5556.132324,5980.867676 5550.049316,5999.975586 5541.156250,6018.051758 C5536.745605,6027.017578 5532.251465,6035.942383 5526.261719,6046.940430 C5501.866211,6083.040039 5473.506836,6112.097168 5442.244629,6138.298828 C5401.720703,6172.264648 5356.918457,6199.863281 5310.228516,6224.446777 C5212.502441,6275.900879 5109.061523,6312.742188 5003.211426,6343.058594 C4877.600098,6379.034668 4749.604004,6404.073242 4620.444336,6423.117188 C4573.059570,6430.103027 4525.343262,6434.858398 4477.754883,6440.432129 C4461.230469,6442.367188 4444.638672,6443.739258 4428.071289,6445.301758 C4404.222168,6447.550293 4380.393555,6450.102539 4356.507324,6451.856445 C4328.615723,6453.903320 4300.675293,6455.290527 4272.749512,6456.853516 C4233.528809,6459.049316 4194.321289,6462.470703 4155.074707,6463.027832 C4045.126221,6464.587891 3935.147461,6467.033203 3825.238281,6460.790527 C3797.315430,6459.204590 3769.375732,6457.801270 3741.426025,6456.826660 C3702.139404,6455.457520 3662.996582,6452.337402 3623.882324,6448.569336 C3589.427002,6445.249512 3554.817139,6443.268555 3520.481445,6439.028320 C3465.678711,6432.260254 3411.004395,6424.398438 3356.352783,6416.470215 C3284.530518,6406.050293 3213.344482,6392.144043 3142.615479,6375.918457 C3021.675293,6348.173340 2903.033936,6313.163086 2788.955566,6263.760742 C2725.804688,6236.413574 2665.100098,6204.615723 2608.997559,6164.527832 C2563.680176,6132.146973 2522.805420,6095.233398 2492.096924,6048.131836 C2491.054443,6046.532715 2489.329834,6045.377930 2487.923096,6044.015625 C2485.420654,6038.603027 2483.100342,6033.096680 2480.384766,6027.792969 C2466.869141,6001.401367 2459.074463,5973.460938 2455.792480,5943.971191 C2451.817139,5908.250000 2446.824951,5872.642578 2442.228027,5836.991211 C2437.546631,5800.682617 2432.770508,5764.385742 2428.110107,5728.074219 C2423.534180,5692.419434 2419.097656,5656.747070 2414.514648,5621.092773 C2409.762451,5584.123047 2404.903320,5547.166504 2400.099854,5510.203613 C2395.210693,5472.578613 2390.282471,5434.959473 2385.464111,5397.325684 C2380.898682,5361.669922 2376.472168,5325.995605 2371.949219,5290.333984 C2367.510254,5255.333008 2363.038574,5220.335938 2358.558350,5185.339844 C2353.656006,5147.046387 2348.770752,5108.751465 2343.798828,5070.466797 C2339.083984,5034.162109 2334.197266,4997.879883 2329.514648,4961.571289 C2324.917236,4925.919922 2320.510498,4890.243652 2315.967773,4854.584961 C2311.424561,4818.926758 2306.822754,4783.276367 2302.235840,4747.623047 C2298.838623,4721.216309 2295.440430,4694.809082 2292.014648,4668.405762 C2287.218506,4631.440918 2282.348877,4594.485840 2277.598389,4557.515137 C2273.017090,4521.861328 2268.614990,4486.183594 2264.013184,4450.532227 C2257.877686,4403.001953 2251.545898,4355.497070 2245.449951,4307.961426 C2240.793457,4271.646484 2236.458740,4235.290527 2231.821045,4198.973145 C2227.183838,4162.658691 2222.296875,4126.375977 2217.613281,4090.067383 C2213.014648,4054.416504 2208.543701,4018.749268 2203.998047,3983.091553 C2199.452393,3947.433594 2194.900146,3911.776123 2190.318848,3876.122803 C2186.925537,3849.715088 2183.479248,3823.314209 2180.058594,3796.909912 C2175.269775,3759.943848 2170.440674,3722.982910 2165.706299,3686.010010 C2161.056152,3649.693604 2156.579834,3613.354980 2151.887939,3577.044189 C2145.831787,3530.174805 2139.492676,3483.341309 2133.547852,3436.458008 C2128.607422,3397.495117 2124.061035,3358.481934 2120.735840,3318.619141 C2134.299805,3355.745117 2155.070312,3389.016113 2181.249756,3418.478516 C2205.539307,3445.814209 2231.681641,3471.610107 2260.856201,3493.945801 C2303.168945,3526.340332 2348.358398,3554.349121 2395.321777,3579.360107 C2434.675781,3600.318115 2474.923096,3619.558350 2516.375244,3636.120117 C2559.573975,3653.379395 2602.544678,3671.255371 2646.898193,3685.455566 C2675.376953,3694.573242 2703.792969,3703.908691 2732.431396,3712.499512 C2764.216309,3722.034180 2796.010742,3731.675537 2828.180664,3739.759033 C2878.983398,3752.524658 2930.061279,3764.210938 2981.106445,3775.990723 C3005.639160,3781.652344 3030.311035,3786.750732 3055.017090,3791.610596 C3076.446533,3795.826416 3098.000244,3799.419189 3119.522461,3803.153809 C3144.323730,3807.458008 3169.104980,3811.912354 3193.979736,3815.750244 C3216.233887,3819.183838 3238.610840,3821.812256 3260.919189,3824.901123 C3277.302490,3827.169678 3293.632568,3829.840332 3310.040527,3831.900879 C3325.162598,3833.800049 3340.429199,3834.627441 3355.501221,3836.823730 C3375.819336,3839.784912 3395.994141,3843.736328 3416.616211,3844.128418 C3419.270752,3844.179199 3421.926514,3844.531250 3424.568115,3844.854492 C3443.616211,3847.183594 3462.617188,3850.019043 3481.718262,3851.764893 C3503.513672,3853.756836 3525.397705,3854.783203 3547.242188,3856.239990 C3548.569824,3856.328125 3549.991943,3856.240479 3551.199951,3856.690674 C3562.779297,3861.007324 3574.865479,3859.655762 3586.799561,3860.005371 C3593.456299,3860.200684 3600.491943,3859.103271 3606.688965,3860.896729 C3619.177734,3864.511230 3631.754639,3863.657227 3644.351074,3863.983643 C3651.012451,3864.156250 3657.997803,3862.949219 3664.281250,3864.548096 C3684.678711,3869.739258 3705.360107,3867.170410 3725.899902,3868.099609 C3731.885010,3868.370361 3738.243896,3867.335938 3743.782471,3869.026123 C3754.290039,3872.232910 3764.859863,3871.498535 3775.466797,3871.896484 C3805.992432,3873.041260 3836.715576,3869.340576 3867.042969,3875.643066 C3869.601807,3876.174805 3872.360107,3875.761475 3875.025879,3875.761719 C3963.662354,3875.765869 4052.298584,3875.782227 4140.935059,3875.730957 C4146.245605,3875.728027 4151.571289,3875.345215 4156.863770,3874.859863 C4165.424805,3874.074463 4173.952148,3872.432373 4182.516113,3872.258545 C4205.167480,3871.798096 4227.831055,3871.940430 4250.489746,3871.819336 C4255.154297,3871.794434 4260.078613,3872.620361 4264.436523,3871.424561 C4284.113281,3866.025879 4304.170898,3868.751465 4324.049316,3867.885742 C4330.699219,3867.595947 4337.718750,3868.628174 4343.919434,3866.823242 C4353.795898,3863.947998 4363.671875,3864.454834 4373.608887,3863.960449 C4400.793945,3862.606934 4427.971680,3861.114258 4455.150879,3859.637451 C4457.133301,3859.529541 4459.094727,3859.060303 4461.074219,3858.833252 C4469.617676,3857.852539 4478.151855,3856.760498 4486.714844,3855.991455 C4491.350098,3855.575439 4496.407227,3856.840576 4500.636719,3855.433105 C4520.587402,3848.794678 4541.586914,3853.562256 4561.937988,3848.685303 C4579.142578,3844.563232 4597.492676,3845.227051 4615.332520,3843.735352 C4617.313965,3843.569580 4619.270996,3843.122559 4621.247070,3842.866211 C4638.965820,3840.565918 4656.671387,3838.146240 4674.412109,3836.028564 C4689.547363,3834.222412 4704.770508,3833.105469 4719.869629,3831.056885 C4733.632812,3829.189209 4747.240234,3826.193848 4760.990234,3824.205566 C4783.277344,3820.982422 4805.726562,3818.782471 4827.922852,3815.053711 C4861.870605,3809.350342 4895.661133,3802.708740 4929.520020,3796.473633 C4961.447266,3790.594238 4993.551270,3785.530762 5025.262695,3778.657227 C5069.323730,3769.106689 5113.175293,3758.541992 5156.964355,3747.793945 C5214.362305,3733.705811 5271.308594,3717.897949 5327.472656,3699.468262 C5362.840820,3687.862793 5398.048340,3675.723877 5433.042969,3663.037354 C5475.556152,3647.625732 5517.324707,3630.264404 5558.121094,3610.759033 C5600.154785,3590.661621 5641.871582,3569.849121 5681.411133,3545.059570 C5708.431152,3528.119385 5735.449707,3511.117920 5759.730469,3490.251953 C5771.821289,3479.862061 5782.912109,3468.064941 5795.954102,3459.080811 C5816.749512,3444.754883 5831.059082,3424.485596 5846.306152,3405.532959 C5865.861816,3381.223145 5881.731934,3354.031982 5892.549805,3324.335693 C5893.160156,3322.659912 5895.123047,3321.476807 5896.456543,3320.064453 M4109.729980,4623.628418 C4067.171387,4661.522949 4036.059082,4707.543945 4013.569580,4759.601562 C4007.763672,4773.040039 4002.789307,4786.835938 3997.255859,4800.395508 C3996.152100,4803.100098 3995.994385,4807.271484 3990.115967,4806.332520 C3988.393066,4801.924316 3986.364014,4797.121582 3984.624756,4792.215820 C3975.473633,4766.404297 3964.144775,4741.557617 3950.563965,4717.815430 C3928.223145,4678.759277 3901.019043,4643.688965 3865.588379,4615.372559 C3818.910889,4578.068359 3765.659912,4557.246582 3706.371582,4552.475098 C3664.934326,4549.139648 3623.910889,4552.879883 3583.651367,4563.960449 C3516.365479,4582.479492 3458.409424,4616.070801 3413.248779,4669.916016 C3379.090576,4710.642578 3353.499268,4756.414062 3335.863525,4806.568848 C3322.516113,4844.526367 3314.277832,4883.401855 3314.693604,4923.901855 C3315.144775,4967.880859 3316.603027,5011.698730 3323.092773,5055.362793 C3329.962402,5101.580566 3339.718262,5147.028320 3353.868652,5191.514648 C3393.980469,5317.618164 3461.921387,5427.055664 3552.863037,5522.618652 C3593.384033,5565.198730 3637.406006,5603.861816 3684.631348,5638.835449 C3775.098389,5705.830078 3872.526123,5760.106445 3978.093018,5799.640625 C3988.263184,5803.449707 3997.227051,5804.118652 4006.840820,5799.571289 C4009.842285,5798.150879 4013.037109,5797.138184 4016.147461,5795.949707 C4071.014648,5774.984863 4123.810059,5749.677734 4174.877441,5720.675293 C4266.370117,5668.713867 4349.941895,5606.447266 4423.636719,5531.102051 C4511.032227,5441.749512 4578.175293,5339.578125 4620.822754,5221.741699 C4642.667969,5161.381836 4657.353027,5099.334961 4664.223145,5035.513672 C4666.929199,5010.374512 4669.113770,4985.160156 4670.738770,4959.928711 C4672.584473,4931.271973 4671.500000,4902.595703 4666.653809,4874.275391 C4655.574707,4809.535645 4630.428711,4750.528320 4592.469727,4697.008789 C4565.584961,4659.102051 4533.569824,4626.412598 4493.156738,4602.801758 C4433.746582,4568.091797 4369.770508,4550.473633 4300.692871,4551.597656 C4229.393066,4552.757812 4166.215332,4575.248535 4109.729980,4623.628418 z"/>
  <path fill="#F3EBDE" opacity="1.000000" stroke="none" d=" M5983.840820,2475.605469 C5983.088867,2482.815430 5982.387207,2490.031250 5981.562012,2497.232910 C5981.186035,2500.514160 5980.310059,2503.751221 5980.100098,2507.036377 C5978.877441,2526.176270 5975.981934,2545.073975 5972.899414,2563.993408 C5970.458496,2578.976074 5969.612305,2594.216553 5967.980469,2609.333984 C5966.419434,2623.792969 5965.482910,2638.369385 5962.960449,2652.662842 C5959.741211,2670.906006 5958.054688,2689.286377 5955.867676,2707.634766 C5953.994141,2723.351074 5951.187988,2738.954346 5949.101562,2754.648438 C5947.186035,2769.058594 5945.791016,2783.537354 5943.964844,2797.960449 C5941.975098,2813.674805 5939.752441,2829.359863 5937.630859,2845.057617 C5937.099121,2848.987549 5936.428223,2852.904541 5936.055664,2856.849609 C5934.316895,2875.255371 5932.217773,2893.581055 5928.942871,2911.819336 C5926.377930,2926.100098 5925.732910,2940.717285 5923.960938,2955.151367 C5921.870605,2972.179199 5919.447754,2989.165771 5917.238281,3006.178955 C5915.450684,3019.937256 5914.037598,3033.749756 5911.967773,3047.464111 C5909.309570,3065.083008 5908.320801,3082.881836 5904.926758,3100.456787 C5902.054688,3115.328369 5901.384277,3130.641846 5900.035645,3145.786133 C5898.746094,3160.265137 5894.018555,3174.421875 5894.740234,3192.062988 C5890.351562,3212.605713 5887.494141,3230.351807 5883.921875,3247.953125 C5867.860840,3327.104492 5829.861328,3393.410156 5767.869629,3445.680176 C5739.804688,3469.344482 5710.438965,3491.203613 5679.459961,3510.887451 C5607.778320,3556.432373 5531.386719,3592.568359 5452.545898,3623.657471 C5347.064941,3665.251465 5238.744629,3697.805176 5128.650391,3724.712891 C5036.760254,3747.171387 4944.196289,3766.247070 4850.776367,3781.078125 C4801.458984,3788.907715 4752.090332,3796.465576 4702.640625,3803.402832 C4668.354004,3808.213135 4633.921875,3812.064209 4599.493652,3815.773926 C4566.383789,3819.341553 4533.215820,3822.416016 4500.035645,3825.273682 C4456.902344,3828.988037 4413.761230,3832.724365 4370.566895,3835.607910 C4332.679199,3838.137451 4294.729004,3839.939209 4256.778809,3841.288086 C4192.189453,3843.583984 4127.590332,3846.046875 4062.973877,3847.038818 C3959.004395,3848.634766 3855.071777,3846.151367 3751.223633,3840.892822 C3694.667236,3838.029541 3638.063965,3835.524902 3581.626953,3831.031494 C3518.562988,3826.010742 3455.588623,3819.592041 3392.715576,3812.530273 C3337.133789,3806.287598 3281.619385,3799.166748 3226.298828,3790.933594 C3134.748291,3777.307373 3043.760010,3760.451172 2953.440186,3740.083008 C2835.758057,3713.544189 2719.665283,3681.521973 2606.413086,3639.708984 C2530.080811,3611.527100 2455.630859,3579.147949 2384.652588,3539.138184 C2335.769775,3511.583984 2289.366943,3480.455078 2246.892334,3443.652344 C2206.474609,3408.631592 2174.586914,3367.350586 2154.339355,3317.542725 C2141.490479,3285.935791 2133.117188,3253.123535 2127.547852,3219.492188 C2126.068359,3210.559326 2126.961670,3200.785645 2120.534912,3193.090576 C2121.850342,3171.065918 2117.573242,3149.417969 2115.476562,3127.677002 C2112.942383,3101.398193 2107.716553,3075.390625 2104.345947,3049.177002 C2101.055908,3023.592041 2098.899902,2997.862305 2095.733887,2972.259766 C2093.870605,2957.189941 2090.667725,2942.288330 2088.695068,2927.228760 C2086.718750,2912.139893 2085.736816,2896.923096 2083.925293,2881.809326 C2082.038086,2866.063477 2079.680908,2850.374268 2077.528564,2834.660156 C2075.734375,2821.558838 2073.728271,2808.481934 2072.189941,2795.350586 C2069.265869,2770.386963 2066.864990,2745.359863 2063.745850,2720.421875 C2061.861084,2705.353760 2058.698242,2690.447510 2056.725342,2675.387939 C2054.748291,2660.298828 2053.739258,2645.084717 2051.932373,2629.970215 C2050.050049,2614.223877 2047.732788,2598.529541 2045.584351,2582.815186 C2043.793091,2569.713379 2041.756592,2556.641357 2040.219971,2543.510010 C2038.527710,2529.050537 2037.441895,2514.520508 2035.774780,2500.057617 C2034.944092,2492.851562 2033.405396,2485.727295 2033.702393,2477.074463 C2110.188232,2517.881104 2188.339111,2553.341309 2268.641602,2584.180420 C2426.285156,2644.721436 2588.716553,2688.686768 2753.628662,2723.971924 C2878.701904,2750.732910 3004.638672,2772.644531 3131.536377,2788.696777 C3206.856445,2798.224854 3282.248047,2807.368164 3357.776367,2815.013916 C3422.717529,2821.587891 3487.831055,2826.938965 3552.989746,2830.765381 C3640.785645,2835.921143 3728.660645,2840.587158 3816.568604,2842.791748 C3972.480469,2846.701904 4128.429688,2846.456055 4284.309570,2840.048828 C4322.925293,2838.461914 4361.538086,2836.772705 4400.139160,2834.862061 C4423.429688,2833.708740 4446.713379,2832.285156 4469.967285,2830.548096 C4513.812988,2827.272217 4557.648438,2823.845703 4601.462402,2820.170898 C4635.980957,2817.275146 4670.516113,2814.425293 4704.943359,2810.637207 C4755.916504,2805.028564 4806.873535,2799.158936 4857.702637,2792.387695 C4917.105469,2784.473877 4976.487305,2776.246582 5035.653320,2766.752686 C5117.830078,2753.566895 5199.585449,2737.991943 5280.916016,2720.217285 C5409.794922,2692.050781 5537.178711,2658.431152 5662.011719,2615.613281 C5770.521973,2578.394043 5876.307617,2534.810791 5976.514160,2478.482422 C5978.779297,2477.208740 5981.391113,2476.550781 5983.840820,2475.605469 z"/>
  <path fill="#382F2A" opacity="1.000000" stroke="none" d=" M5829.128906,1135.386475 C5835.181641,1156.370972 5842.289551,1177.117798 5847.081055,1198.386475 C5859.355957,1252.870728 5868.220703,1308.006104 5876.109863,1363.285034 C5880.617676,1394.871948 5884.780273,1426.508057 5889.194824,1458.108643 C5889.460938,1460.012695 5890.581543,1461.797363 5891.808594,1466.845581 C5893.903320,1487.178467 5895.239258,1504.331909 5897.155273,1521.420288 C5899.143066,1539.147461 5901.919434,1556.785889 5903.928711,1574.510864 C5905.718750,1590.297485 5906.240234,1606.251831 5908.567871,1621.947510 C5911.772461,1643.556763 5915.733398,1665.039673 5916.161621,1686.963989 C5916.200684,1688.945435 5916.658691,1690.918457 5916.917969,1692.895996 C5917.948730,1700.749756 5919.062500,1708.594116 5919.974121,1716.461670 C5920.432617,1720.421509 5919.763672,1724.659058 5920.909668,1728.367554 C5926.466309,1746.351196 5925.068359,1765.201416 5927.214844,1783.530640 C5929.730957,1805.017456 5929.051270,1827.092651 5924.421875,1848.986206 C5917.617676,1881.164307 5907.246582,1911.684082 5889.792969,1939.545288 C5880.271484,1954.744263 5869.520996,1968.978271 5856.590820,1981.746094 C5834.730957,2003.330200 5810.250000,2021.459106 5785.455566,2039.317139 C5751.350098,2063.881348 5714.091797,2083.128174 5677.127441,2102.725586 C5656.042480,2113.904053 5633.681152,2122.732422 5611.668945,2132.088867 C5585.995605,2143.001221 5560.494629,2154.540283 5534.173340,2163.656250 C5487.097168,2179.959473 5439.605469,2195.108154 5392.022461,2209.887207 C5345.151367,2224.445068 5297.755371,2237.237061 5249.902832,2248.207031 C5213.109863,2256.642090 5176.260742,2264.854736 5139.336426,2272.694336 C5107.632324,2279.425781 5075.823730,2285.689941 5043.987305,2291.774414 C5023.855957,2295.622070 5003.589844,2298.765137 4983.383301,2302.217285 C4964.476562,2305.447754 4945.626465,2309.072998 4926.646973,2311.790771 C4903.731445,2315.071777 4880.694336,2317.494629 4857.732422,2320.460938 C4847.241211,2321.815918 4836.802734,2323.584961 4826.339844,2325.162109 C4811.311523,2327.427246 4796.331055,2330.096680 4781.242676,2331.841797 C4764.804688,2333.742920 4748.267090,2334.780273 4731.774414,2336.210938 C4730.448730,2336.325684 4729.134766,2336.566162 4727.815918,2336.752441 C4710.806641,2339.152588 4693.848633,2342.955078 4676.773926,2343.587646 C4656.846191,2344.325928 4637.373047,2350.210449 4617.299805,2348.142578 C4603.111816,2352.864258 4588.406250,2351.883545 4573.804688,2352.169189 C4571.176758,2352.220703 4568.571289,2353.013428 4565.938477,2353.323975 C4558.064941,2354.252930 4550.199707,2355.633545 4542.299805,2355.902832 C4517.098633,2356.761963 4492.157227,2361.971680 4466.813965,2360.341064 C4465.525879,2360.258057 4464.089355,2360.530762 4462.908691,2361.057617 C4454.009766,2365.029541 4444.580078,2363.789795 4435.303223,2363.981201 C4423.981934,2364.214844 4412.220703,2362.482422 4401.446289,2365.003418 C4388.150391,2368.114990 4375.047852,2367.660645 4361.805176,2367.972412 C4349.816406,2368.254395 4337.413086,2366.428467 4325.936035,2368.935791 C4311.983887,2371.983887 4298.215820,2371.772949 4284.304688,2371.950439 C4267.643066,2372.163330 4250.976562,2371.944092 4234.313965,2372.100586 C4229.014648,2372.150391 4223.707031,2372.672363 4218.427246,2373.211670 C4210.541992,2374.017578 4202.679199,2375.824951 4194.805176,2375.835693 C4070.158936,2376.004395 3945.512695,2375.957031 3820.866455,2375.943359 C3816.203125,2375.942871 3811.205566,2376.848877 3806.935791,2375.509277 C3790.609131,2370.386963 3773.911621,2372.686035 3757.363037,2371.982666 C3734.180664,2370.997559 3710.766602,2374.770264 3687.819336,2368.338379 C3684.097412,2367.295410 3679.861328,2368.051758 3675.862793,2368.039307 C3663.198242,2367.999512 3650.531738,2368.110107 3637.870117,2367.910400 C3632.576172,2367.827148 3627.283447,2367.198242 3622.006348,2366.658936 C3614.118164,2365.853271 3606.263428,2364.468018 3598.360107,2364.124023 C3586.383789,2363.602539 3573.937256,2365.720215 3562.494385,2363.145020 C3547.877930,2359.855713 3533.439941,2360.423096 3518.869141,2359.976562 C3514.211914,2359.833984 3509.184326,2360.672607 3504.974121,2359.204834 C3493.921875,2355.351562 3482.645752,2356.213623 3471.370605,2355.967285 C3466.052246,2355.851074 3460.322510,2356.625732 3455.514893,2354.921387 C3446.373779,2351.680664 3437.158447,2352.216064 3427.873535,2351.978027 C3422.552490,2351.841797 3416.824707,2352.697998 3412.006348,2351.020508 C3402.873779,2347.841064 3393.671875,2348.208740 3384.379150,2347.951660 C3379.741699,2347.823486 3375.104492,2347.353516 3370.488525,2346.844971 C3362.611572,2345.977295 3354.763428,2344.842529 3346.880371,2344.041992 C3341.595703,2343.505371 3336.252197,2343.543701 3330.971191,2342.982178 C3323.094971,2342.144775 3315.260010,2340.926025 3307.389404,2340.026855 C3303.428223,2339.574219 3299.396484,2339.696289 3295.449951,2339.164062 C3278.427734,2336.869385 3261.423340,2334.441650 3244.416260,2332.035645 C3235.250488,2330.739258 3226.121094,2329.123047 3216.924072,2328.121094 C3201.128174,2326.399902 3185.210205,2325.625488 3169.492432,2323.401855 C3146.594482,2320.162354 3123.833984,2315.957275 3101.003662,2312.233398 C3091.863281,2310.742920 3082.699219,2309.394531 3073.535156,2308.055908 C3052.590576,2304.996826 3031.511719,2302.670410 3010.718994,2298.801514 C2972.997803,2291.781982 2935.572510,2283.133545 2897.790771,2276.489014 C2850.136963,2268.107422 2803.274414,2256.247070 2756.090332,2245.820801 C2734.747070,2241.104980 2713.940430,2234.009521 2692.677979,2228.871338 C2649.412598,2218.415771 2606.730469,2205.985352 2564.653564,2191.564209 C2522.548584,2177.132568 2480.196533,2163.212646 2438.889404,2146.722656 C2398.772461,2130.707520 2359.357422,2112.817139 2321.042480,2092.616943 C2281.589355,2071.816895 2243.047363,2049.664795 2207.778076,2022.208008 C2198.886719,2015.285889 2190.769531,2007.278809 2181.475342,2000.982544 C2161.187988,1987.239990 2146.526855,1968.091187 2132.878418,1948.692749 C2113.651855,1921.366699 2100.681885,1890.777710 2094.504883,1857.543335 C2089.403076,1830.094116 2083.902100,1802.818359 2091.281982,1774.851318 C2092.607178,1769.829346 2091.612061,1764.232056 2092.050781,1758.930298 C2092.595459,1752.345947 2093.503174,1745.791138 2094.281494,1739.226807 C2094.826904,1734.626099 2095.552002,1730.042969 2095.964600,1725.431274 C2097.497803,1708.279785 2098.119873,1690.994141 2100.734375,1674.013062 C2102.147949,1664.830566 2103.389648,1655.734009 2104.283936,1646.475830 C2105.933838,1629.394409 2109.105225,1612.465576 2111.323730,1595.431519 C2113.118896,1581.648682 2114.552734,1567.815796 2115.953369,1553.985352 C2117.621094,1537.514404 2117.683838,1520.727661 2121.078857,1504.634033 C2123.750732,1491.968750 2124.012207,1479.645508 2123.568604,1467.031372 C2125.084229,1462.744751 2127.330566,1458.569946 2128.005859,1454.154663 C2137.468750,1392.286255 2146.203369,1330.301636 2156.191895,1268.519531 C2163.309326,1224.493286 2172.248291,1180.775513 2188.126953,1138.192871 C2190.832764,1152.073120 2192.001709,1165.981567 2191.800537,1179.870117 C2191.613770,1192.788696 2194.739746,1204.877808 2198.656982,1216.848633 C2210.091309,1251.789429 2232.102295,1280.126831 2256.796143,1306.332642 C2269.958252,1320.300293 2284.483154,1333.256958 2299.719238,1344.940186 C2331.900879,1369.617676 2365.797607,1391.958008 2401.804688,1410.671875 C2429.535889,1425.084473 2457.756104,1438.708252 2486.453613,1451.070190 C2523.042236,1466.831421 2559.974365,1481.949951 2597.419189,1495.522217 C2632.993164,1508.416138 2669.343506,1519.201904 2705.498779,1530.444092 C2725.760254,1536.744019 2746.167480,1542.706665 2766.772461,1547.743774 C2820.831055,1560.959351 2874.983643,1573.802734 2929.203857,1586.339600 C2951.767578,1591.556641 2974.576416,1595.731812 2997.314941,1600.169922 C3016.129150,1603.842163 3034.971436,1607.389893 3053.859375,1610.659058 C3080.580811,1615.284424 3107.342773,1619.682983 3134.113525,1624.015381 C3145.868164,1625.917358 3157.707275,1627.291016 3169.472656,1629.131592 C3183.182617,1631.276001 3196.836182,1633.783325 3210.546631,1635.923462 C3226.864014,1638.470459 3243.180664,1641.081421 3259.563965,1643.133911 C3275.328125,1645.108765 3291.180176,1646.381226 3306.988525,1648.008789 C3322.137451,1649.568237 3337.585449,1649.820923 3352.349121,1653.122314 C3371.266357,1657.352417 3390.527100,1656.807495 3409.541748,1659.351074 C3429.766113,1662.056641 3450.196045,1666.390625 3470.951416,1664.210571 C3472.879395,1664.008057 3475.090820,1664.235840 3476.843262,1665.007202 C3485.761963,1668.933594 3495.165283,1667.773682 3504.444336,1668.007446 C3509.103516,1668.124878 3514.126709,1667.233643 3518.351074,1668.667236 C3531.372070,1673.086670 3544.690186,1671.659302 3557.939941,1672.017456 C3563.927490,1672.179321 3570.347656,1671.164307 3575.803223,1672.985718 C3586.287598,1676.485596 3596.836670,1675.758301 3607.439697,1675.988281 C3618.092773,1676.219360 3629.166504,1674.666504 3639.290527,1677.091187 C3651.252930,1679.955933 3663.017822,1679.704102 3674.937744,1679.974976 C3686.924072,1680.247314 3699.280029,1678.622192 3710.801270,1681.036987 C3722.759766,1683.543579 3734.503906,1683.861450 3746.436279,1683.942627 C3765.765137,1684.074097 3785.095215,1683.966309 3804.424316,1684.073120 C3809.743164,1684.102417 3815.491943,1683.323853 3820.287109,1685.034790 C3830.087891,1688.531616 3839.992676,1687.910645 3849.931152,1687.916626 C3948.578369,1687.976074 4047.225586,1688.059814 4145.872559,1687.879150 C4163.750488,1687.846313 4181.855957,1690.112793 4199.405273,1684.304688 C4201.223145,1683.703125 4203.377930,1684.120117 4205.376465,1684.064331 C4241.885254,1683.045288 4278.463867,1686.102295 4314.921387,1680.383057 C4328.586426,1678.239258 4342.863281,1680.065186 4356.858887,1679.923706 C4362.171875,1679.870117 4367.884277,1680.522461 4372.704102,1678.830444 C4381.854980,1675.617920 4391.080078,1676.187378 4400.361816,1676.011230 C4410.352051,1675.821533 4420.770508,1677.425781 4430.230957,1675.104248 C4443.479492,1671.853271 4456.605469,1672.320801 4469.856934,1671.975098 C4475.844727,1671.818970 4482.271484,1672.845581 4487.721191,1671.016968 C4498.203613,1667.499390 4508.751953,1668.259644 4519.354004,1667.978760 C4524.677246,1667.838013 4530.407227,1668.779053 4535.233398,1667.127441 C4545.669434,1663.556641 4556.235840,1664.210571 4566.848145,1663.949829 C4571.497070,1663.835693 4576.328613,1664.119873 4580.748047,1662.964355 C4599.491699,1658.062988 4618.929688,1659.814819 4637.897949,1656.357422 C4654.758789,1653.284180 4672.154785,1653.151733 4689.311523,1651.688477 C4690.628906,1651.575928 4691.917969,1651.159790 4693.231445,1650.958008 C4708.252441,1648.651001 4723.230957,1645.997559 4738.309570,1644.161499 C4754.077637,1642.241455 4770.025879,1641.709229 4785.743652,1639.493530 C4808.642578,1636.265747 4831.381348,1631.922119 4854.232422,1628.333740 C4882.332031,1623.920898 4910.568848,1620.322510 4938.578125,1615.409058 C4971.797363,1609.581543 5004.776367,1602.394287 5037.967773,1596.397095 C5091.434570,1586.736572 5144.273926,1574.209961 5196.999512,1561.316284 C5236.276367,1551.711182 5275.020508,1539.932129 5314.034180,1529.239746 C5365.995117,1514.998901 5416.688477,1496.888184 5467.084473,1478.060791 C5512.585938,1461.062012 5556.393066,1440.108398 5599.887695,1418.419556 C5628.559570,1404.121826 5655.836426,1387.528320 5682.416016,1370.038452 C5711.211914,1351.090210 5737.874512,1329.049805 5762.106445,1304.153076 C5783.250000,1282.429321 5800.923340,1258.464600 5812.420898,1230.519043 C5823.835938,1202.772827 5832.415527,1174.229370 5824.753906,1143.551514 C5823.850586,1139.934448 5826.056641,1137.249878 5829.128906,1135.386475 z"/>
  <path fill="#F3EBDE" opacity="1.000000" stroke="none" d=" M2486.814941,6045.008789 C2489.329834,6045.377930 2491.054443,6046.532715 2492.096924,6048.131836 C2522.805420,6095.233398 2563.680176,6132.146973 2608.997559,6164.527832 C2665.100098,6204.615723 2725.804688,6236.413574 2788.955566,6263.760742 C2903.033936,6313.163086 3021.675293,6348.173340 3142.615479,6375.918457 C3213.344482,6392.144043 3284.530518,6406.050293 3356.352783,6416.470215 C3411.004395,6424.398438 3465.678711,6432.260254 3520.481445,6439.028320 C3554.817139,6443.268555 3589.427002,6445.249512 3623.882324,6448.569336 C3662.996582,6452.337402 3702.139404,6455.457520 3741.426025,6456.826660 C3769.375732,6457.801270 3797.315430,6459.204590 3825.238281,6460.790527 C3935.147461,6467.033203 4045.126221,6464.587891 4155.074707,6463.027832 C4194.321289,6462.470703 4233.528809,6459.049316 4272.749512,6456.853516 C4300.675293,6455.290527 4328.615723,6453.903320 4356.507324,6451.856445 C4380.393555,6450.102539 4404.222168,6447.550293 4428.071289,6445.301758 C4444.638672,6443.739258 4461.230469,6442.367188 4477.754883,6440.432129 C4525.343262,6434.858398 4573.059570,6430.103027 4620.444336,6423.117188 C4749.604004,6404.073242 4877.600098,6379.034668 5003.211426,6343.058594 C5109.061523,6312.742188 5212.502441,6275.900879 5310.228516,6224.446777 C5356.918457,6199.863281 5401.720703,6172.264648 5442.244629,6138.298828 C5473.506836,6112.097168 5501.866211,6083.040039 5525.848633,6048.330566 C5532.077148,6050.356934 5532.363281,6054.918457 5531.317871,6059.707520 C5527.217773,6078.498535 5525.841797,6097.622559 5523.828125,6116.689453 C5522.233398,6131.791504 5519.349121,6146.751953 5517.402344,6161.822754 C5515.368652,6177.568848 5513.793457,6193.373535 5511.977539,6209.147949 C5510.615723,6220.978027 5509.441406,6232.836914 5507.730469,6244.616699 C5505.546875,6259.653320 5502.614746,6274.583496 5500.562012,6289.635254 C5499.133789,6300.110352 5499.247070,6310.628418 5496.963379,6321.201660 C5493.770020,6335.990234 5493.737305,6351.437988 5491.913574,6366.550781 C5490.014648,6382.292969 5487.442871,6397.953613 5485.445312,6413.685059 C5483.445801,6429.434082 5481.809082,6445.229980 5479.982910,6461.001465 C5478.613770,6472.830078 5477.446777,6484.689941 5475.739258,6496.470703 C5473.559570,6511.507324 5470.692383,6526.444824 5468.568848,6541.488770 C5467.091797,6551.957520 5467.356934,6562.477539 5465.007324,6573.064453 C5461.731445,6587.825684 5461.738770,6603.291992 5459.920410,6618.405762 C5458.026367,6634.150391 5456.059570,6649.908691 5453.321777,6665.520996 C5451.146973,6677.924805 5451.476074,6690.490723 5448.863770,6702.997070 C5446.473145,6714.440430 5445.995605,6726.556641 5444.199707,6738.362793 C5439.828613,6767.108887 5438.445312,6796.227539 5432.833496,6824.870117 C5429.917969,6839.747070 5429.438477,6855.110352 5428.004883,6870.267578 C5422.707031,6926.275879 5405.212891,6977.453125 5371.283691,7023.126465 C5351.011719,7050.415039 5324.325195,7069.676270 5297.621094,7089.309570 C5252.364746,7122.584473 5202.656738,7148.200195 5151.935547,7171.669434 C5116.407715,7188.108398 5080.136719,7203.072754 5043.019043,7215.784668 C5019.768066,7223.747559 4996.844727,7232.739746 4973.375977,7239.978027 C4925.218750,7254.830078 4876.654297,7268.282227 4827.641113,7280.103516 C4776.784668,7292.369629 4725.639160,7303.211426 4674.121582,7312.269531 C4642.867676,7317.764160 4611.529785,7322.781250 4580.258789,7328.180664 C4560.041504,7331.671387 4539.866211,7335.044434 4519.322754,7336.492188 C4506.215820,7337.415039 4493.306641,7341.003906 4480.271973,7343.176270 C4476.355469,7343.828125 4472.294434,7343.561523 4468.335938,7344.023438 C4460.469727,7344.940430 4452.637695,7346.145508 4444.773438,7347.082031 C4440.817383,7347.553223 4436.807617,7347.568359 4432.847656,7348.015625 C4424.974609,7348.904785 4417.136719,7350.127441 4409.251465,7350.874512 C4402.643555,7351.500488 4395.973145,7351.457520 4389.361328,7352.055664 C4381.470215,7352.768555 4373.608887,7353.827637 4365.741211,7354.787598 C4363.767578,7355.028320 4361.829590,7355.663574 4359.854980,7355.777832 C4334.698730,7357.230469 4309.532715,7358.532227 4284.382324,7360.081055 C4277.134766,7360.527344 4269.937500,7361.749512 4262.698730,7362.407715 C4255.438477,7363.067383 4248.160645,7363.764160 4240.879395,7363.916016 C4228.222656,7364.180176 4215.347656,7362.561035 4202.933105,7364.325195 C4153.194824,7371.391602 4103.259766,7367.096680 4053.434570,7367.895020 C4003.467773,7368.694824 3953.477783,7368.042480 3903.497803,7368.020508 C3887.504395,7368.013184 3871.510010,7368.080078 3855.517578,7367.936523 C3844.917969,7367.841309 3834.465088,7367.979004 3823.867188,7365.122559 C3815.743408,7362.932129 3806.670166,7364.307617 3798.021973,7364.013184 C3780.144287,7363.404297 3762.151123,7365.705566 3744.452148,7360.478516 C3738.916260,7358.842773 3732.530029,7360.117676 3726.534180,7360.002930 C3714.605713,7359.773926 3702.643311,7360.868652 3690.934570,7356.791992 C3686.724365,7355.326172 3681.697754,7356.152832 3677.041260,7356.028809 C3665.779785,7355.729004 3654.520020,7356.732422 3643.427490,7352.897461 C3638.609131,7351.231445 3632.851807,7352.448242 3627.558838,7351.950195 C3620.330322,7351.268555 3613.134766,7350.224609 3605.932129,7349.281738 C3603.961182,7349.023438 3601.961914,7348.078125 3600.066650,7348.285156 C3581.946533,7350.262207 3564.509277,7344.500488 3546.597900,7343.630859 C3531.498291,7342.897461 3516.533447,7339.392578 3501.507568,7337.125000 C3491.045166,7335.545898 3480.597656,7333.857910 3470.113281,7332.441406 C3448.484375,7329.517090 3426.741699,7327.310547 3405.216553,7323.770508 C3373.236816,7318.510254 3341.348877,7312.642090 3309.526855,7306.488281 C3278.993164,7300.583008 3248.461426,7294.555664 3218.171875,7287.533691 C3187.831055,7280.499512 3157.644043,7272.690918 3127.655518,7264.273926 C3090.610840,7253.877441 3053.637451,7243.133301 3017.019043,7231.341309 C2989.858643,7222.594238 2963.088867,7212.503418 2936.546387,7201.997070 C2895.744385,7185.846680 2855.260742,7168.827148 2816.541016,7148.064941 C2795.479004,7136.770020 2775.096924,7124.210449 2754.351562,7112.320312 C2734.714844,7101.065918 2716.606445,7087.695312 2698.763428,7073.804199 C2673.907227,7054.454102 2650.901123,7032.861816 2634.176270,7006.501953 C2615.752686,6977.463867 2600.397705,6946.450195 2595.537109,6911.283203 C2592.821777,6891.638672 2589.500244,6872.125000 2587.513916,6852.333984 C2585.075684,6828.041504 2580.136230,6804.009766 2576.786865,6779.795410 C2574.702148,6764.721191 2573.595215,6749.513184 2571.983643,6734.372070 C2570.512939,6720.550781 2569.631592,6706.622070 2567.270264,6692.951172 C2563.887695,6673.367676 2561.769775,6653.685059 2559.748535,6633.940430 C2558.203125,6618.845703 2555.404541,6603.868164 2552.851562,6588.891602 C2550.958740,6577.789551 2551.899902,6566.585449 2549.117188,6555.309570 C2545.505371,6540.672363 2545.621338,6525.128418 2543.943359,6509.996582 C2542.777344,6499.483398 2541.385498,6488.992188 2539.928223,6478.514648 C2537.562256,6461.502930 2534.858154,6444.535156 2532.676758,6427.500488 C2530.827148,6413.059082 2529.766846,6398.516602 2527.897217,6384.078613 C2525.861572,6368.357422 2523.283203,6352.706055 2520.972168,6337.019531 C2520.584961,6334.392090 2520.223389,6331.748047 2520.070068,6329.099609 C2518.959473,6309.922363 2516.134277,6290.986816 2512.853027,6272.067871 C2510.594482,6259.044922 2509.729248,6245.785156 2508.003662,6232.663086 C2505.678467,6214.977051 2502.917725,6197.346191 2500.732422,6179.644043 C2498.867432,6164.535156 2497.679688,6149.344238 2495.955078,6134.216797 C2494.232422,6119.104980 2492.244141,6104.022949 2490.310059,6088.936035 C2489.637939,6083.695312 2487.509521,6078.281250 2488.279297,6073.291504 C2489.745117,6063.796387 2483.000244,6055.377441 2486.814941,6045.008789 z"/>
  <path fill="#382F2A" opacity="1.000000" stroke="none" d=" M5984.615234,2474.492676 C5981.391113,2476.550781 5978.779297,2477.208740 5976.514160,2478.482422 C5876.307617,2534.810791 5770.521973,2578.394043 5662.011719,2615.613281 C5537.178711,2658.431152 5409.794922,2692.050781 5280.916016,2720.217285 C5199.585449,2737.991943 5117.830078,2753.566895 5035.653320,2766.752686 C4976.487305,2776.246582 4917.105469,2784.473877 4857.702637,2792.387695 C4806.873535,2799.158936 4755.916504,2805.028564 4704.943359,2810.637207 C4670.516113,2814.425293 4635.980957,2817.275146 4601.462402,2820.170898 C4557.648438,2823.845703 4513.812988,2827.272217 4469.967285,2830.548096 C4446.713379,2832.285156 4423.429688,2833.708740 4400.139160,2834.862061 C4361.538086,2836.772705 4322.925293,2838.461914 4284.309570,2840.048828 C4128.429688,2846.456055 3972.480469,2846.701904 3816.568604,2842.791748 C3728.660645,2840.587158 3640.785645,2835.921143 3552.989746,2830.765381 C3487.831055,2826.938965 3422.717529,2821.587891 3357.776367,2815.013916 C3282.248047,2807.368164 3206.856445,2798.224854 3131.536377,2788.696777 C3004.638672,2772.644531 2878.701904,2750.732910 2753.628662,2723.971924 C2588.716553,2688.686768 2426.285156,2644.721436 2268.641602,2584.180420 C2188.339111,2553.341309 2110.188232,2517.881104 2033.812256,2475.330078 C2026.924194,2471.419678 2021.582642,2467.526855 2015.936279,2464.142334 C1973.630737,2438.783203 1932.971680,2411.083740 1895.310303,2379.156738 C1861.678833,2350.645996 1830.865601,2319.440186 1805.529175,2283.170898 C1780.081543,2246.742432 1761.520020,2207.387451 1754.276855,2163.104004 C1750.261230,2138.552002 1750.625244,2113.961426 1753.262329,2089.465820 C1757.679077,2048.438232 1764.888428,2007.793701 1773.873535,1967.542358 C1785.313599,1916.291992 1797.768799,1865.268188 1811.927368,1814.061157 C1814.705811,1818.524536 1815.984741,1823.088501 1815.877808,1827.619873 C1815.142334,1858.766235 1822.801025,1888.262207 1834.601562,1916.573486 C1851.133911,1956.237671 1875.927979,1990.838745 1904.722168,2022.410767 C1926.681763,2046.488525 1951.464844,2067.609619 1977.235352,2087.640381 C2028.316650,2127.345215 2083.281006,2160.774658 2140.691650,2190.314209 C2177.367188,2209.184570 2214.795166,2226.415283 2252.699951,2242.760742 C2302.781982,2264.358154 2353.850586,2283.225342 2405.427002,2300.696777 C2448.805420,2315.391113 2492.677490,2328.650391 2536.478516,2342.064209 C2558.024170,2348.662842 2579.808594,2354.544678 2601.651123,2360.097900 C2643.390137,2370.709717 2685.182861,2381.129395 2727.080566,2391.093018 C2753.493164,2397.374268 2780.131592,2402.706787 2806.677734,2408.423340 C2829.314453,2413.298096 2851.919189,2418.334961 2874.619873,2422.894043 C2897.323975,2427.453857 2920.097168,2431.690430 2942.899414,2435.734619 C2965.674316,2439.774170 2988.514893,2443.447510 3011.342285,2447.184814 C3021.793701,2448.895996 3032.272461,2450.450195 3042.757568,2451.941406 C3055.855469,2453.804199 3068.983154,2455.456055 3082.079346,2457.331055 C3097.121094,2459.484375 3112.134766,2461.833740 3127.174561,2464.000977 C3140.267334,2465.887695 3153.384277,2467.605469 3166.481689,2469.459961 C3181.530029,2471.589844 3196.527832,2474.149658 3211.622803,2475.858887 C3228.064941,2477.720703 3244.835449,2477.565918 3261.000977,2480.684082 C3272.235352,2482.851562 3283.278076,2483.948486 3294.572021,2484.152344 C3296.558838,2484.188232 3298.755371,2484.104248 3300.486328,2484.888916 C3308.723877,2488.622314 3317.432129,2487.794189 3326.060547,2488.067871 C3330.025391,2488.193604 3333.978760,2488.813232 3337.927490,2489.289795 C3345.138916,2490.159912 3352.327393,2491.258057 3359.555908,2491.939453 C3364.848633,2492.438477 3370.606689,2491.219238 3375.423828,2492.885498 C3385.859131,2496.494385 3396.426758,2495.772705 3407.035889,2496.043457 C3411.681396,2496.161865 3416.703857,2495.605225 3420.879395,2497.164551 C3429.986084,2500.565186 3439.251953,2499.761719 3448.528076,2500.000244 C3454.518555,2500.154053 3460.937256,2498.994141 3466.413086,2500.756592 C3479.506348,2504.971191 3492.772705,2503.623291 3506.016357,2504.022217 C3512.002686,2504.202393 3518.425781,2503.179199 3523.876221,2505.008789 C3534.360352,2508.529053 3544.909424,2507.790771 3555.509766,2507.984619 C3563.505127,2508.130859 3571.904785,2506.560059 3579.421875,2508.490479 C3599.180664,2513.563965 3619.125000,2511.325195 3638.993408,2512.056885 C3643.639648,2512.227783 3648.657715,2511.619141 3652.839844,2513.166748 C3661.950439,2516.538086 3671.214111,2515.877441 3680.492920,2515.951660 C3695.820801,2516.074463 3711.151367,2515.906738 3726.477783,2516.104980 C3731.764648,2516.173340 3737.050049,2516.892578 3742.321777,2517.451660 C3749.548584,2518.218262 3756.756348,2519.791260 3763.981201,2519.844971 C3801.301514,2520.122314 3838.624512,2519.972412 3875.946045,2520.111816 C3881.905273,2520.134033 3887.876953,2520.713135 3893.815430,2521.309814 C3901.042480,2522.036621 3908.237549,2523.805176 3915.450928,2523.828125 C3978.764160,2524.030029 4042.078613,2523.948242 4105.392578,2523.929932 C4109.387695,2523.928711 4113.696289,2524.697998 4117.324219,2523.496338 C4132.956543,2518.317627 4148.999512,2520.256836 4164.891113,2520.109863 C4194.213379,2519.838867 4223.540039,2520.067139 4252.863281,2519.891113 C4258.807617,2519.855469 4264.756836,2519.045654 4270.686035,2518.421875 C4277.256348,2517.730469 4283.794922,2516.288818 4290.368164,2516.150391 C4307.022949,2515.799805 4323.688965,2516.006592 4340.350586,2515.964844 C4344.348145,2515.954834 4348.625977,2516.759033 4352.296875,2515.632080 C4371.240723,2509.815430 4390.642578,2512.754883 4409.840332,2511.982910 C4415.825195,2511.742188 4422.250977,2512.845703 4427.703125,2511.024170 C4438.185547,2507.521729 4448.732422,2508.240723 4459.334961,2508.002686 C4468.654785,2507.793457 4478.389648,2509.219482 4487.189941,2506.975830 C4498.449219,2504.104492 4509.555664,2504.235840 4520.823730,2503.986572 C4526.813965,2503.854248 4533.229980,2504.963135 4538.702637,2503.191406 C4550.483887,2499.376953 4562.382812,2500.264648 4574.312500,2499.965576 C4578.966309,2499.849121 4584.024414,2500.583984 4588.182129,2499.023438 C4597.926758,2495.364990 4607.864746,2496.265137 4617.802246,2495.975586 C4622.457031,2495.840088 4627.501953,2496.626221 4631.680664,2495.102783 C4641.420410,2491.551514 4651.334961,2492.135986 4661.290527,2491.962646 C4664.614258,2491.904785 4668.198242,2492.343018 4671.211426,2491.277588 C4689.086914,2484.956299 4708.081543,2489.109619 4726.396973,2484.587891 C4742.270020,2480.668945 4759.253418,2481.260986 4775.742188,2479.810059 C4777.718750,2479.636475 4779.664551,2479.127441 4781.632812,2478.830322 C4796.659668,2476.563477 4811.621582,2473.346924 4826.733398,2472.302734 C4844.638672,2471.065186 4862.106445,2467.621338 4879.734863,2464.848877 C4892.803711,2462.793701 4906.032227,2461.778320 4919.137695,2459.932617 C4933.527344,2457.906494 4947.856934,2455.452148 4962.214355,2453.197510 C4981.817383,2450.119385 5001.428223,2447.092041 5021.024902,2443.972412 C5039.967285,2440.956543 5058.969238,2438.244629 5077.812500,2434.697021 C5109.013672,2428.822998 5140.148926,2422.581299 5171.238281,2416.137695 C5213.357910,2407.408203 5255.483398,2398.681396 5297.461914,2389.304688 C5327.198242,2382.662598 5356.707031,2374.996582 5386.294922,2367.697021 C5438.469727,2354.825684 5490.170410,2340.175293 5541.377441,2323.959473 C5595.846191,2306.710693 5650.167969,2288.904541 5703.263184,2267.659424 C5750.164062,2248.892578 5797.046875,2230.082275 5842.104004,2207.071045 C5865.833496,2194.952637 5890.477539,2184.415527 5913.335938,2170.851807 C5948.703125,2149.865479 5984.791016,2129.851807 6017.397949,2104.482178 C6035.708984,2090.235107 6055.072266,2077.116943 6072.039551,2061.414062 C6106.223633,2029.777222 6138.565430,1996.399292 6162.728516,1955.872803 C6184.908691,1918.672119 6199.807129,1879.555420 6200.056641,1835.703613 C6200.075684,1832.377197 6200.008789,1829.000977 6200.542969,1825.739868 C6201.169922,1821.915894 6204.308594,1820.623901 6207.759766,1820.029297 C6214.276855,1845.109863 6221.347656,1870.062256 6227.193359,1895.298340 C6238.753906,1945.204590 6250.108887,1995.183594 6257.592285,2045.907349 C6260.601074,2066.298828 6263.098145,2086.805664 6264.770996,2107.345947 C6268.599121,2154.345215 6258.365234,2198.565430 6237.126953,2240.484131 C6217.966309,2278.301270 6192.191406,2311.177734 6162.625000,2341.263672 C6126.041016,2378.489746 6084.979980,2410.203613 6041.427246,2438.734619 C6023.063477,2450.764648 6004.087891,2461.859375 5984.615234,2474.492676 z"/>
  <path fill="#51443B" opacity="1.000000" stroke="none" d=" M5829.098633,1133.867065 C5826.056641,1137.249878 5823.850586,1139.934448 5824.753906,1143.551514 C5832.415527,1174.229370 5823.835938,1202.772827 5812.420898,1230.519043 C5800.923340,1258.464600 5783.250000,1282.429321 5762.106445,1304.153076 C5737.874512,1329.049805 5711.211914,1351.090210 5682.416016,1370.038452 C5655.836426,1387.528320 5628.559570,1404.121826 5599.887695,1418.419556 C5556.393066,1440.108398 5512.585938,1461.062012 5467.084473,1478.060791 C5416.688477,1496.888184 5365.995117,1514.998901 5314.034180,1529.239746 C5275.020508,1539.932129 5236.276367,1551.711182 5196.999512,1561.316284 C5144.273926,1574.209961 5091.434570,1586.736572 5037.967773,1596.397095 C5004.776367,1602.394287 4971.797363,1609.581543 4938.578125,1615.409058 C4910.568848,1620.322510 4882.332031,1623.920898 4854.232422,1628.333740 C4831.381348,1631.922119 4808.642578,1636.265747 4785.743652,1639.493530 C4770.025879,1641.709229 4754.077637,1642.241455 4738.309570,1644.161499 C4723.230957,1645.997559 4708.252441,1648.651001 4693.231445,1650.958008 C4691.917969,1651.159790 4690.628906,1651.575928 4689.311523,1651.688477 C4672.154785,1653.151733 4654.758789,1653.284180 4637.897949,1656.357422 C4618.929688,1659.814819 4599.491699,1658.062988 4580.748047,1662.964355 C4576.328613,1664.119873 4571.497070,1663.835693 4566.848145,1663.949829 C4556.235840,1664.210571 4545.669434,1663.556641 4535.233398,1667.127441 C4530.407227,1668.779053 4524.677246,1667.838013 4519.354004,1667.978760 C4508.751953,1668.259644 4498.203613,1667.499390 4487.721191,1671.016968 C4482.271484,1672.845581 4475.844727,1671.818970 4469.856934,1671.975098 C4456.605469,1672.320801 4443.479492,1671.853271 4430.230957,1675.104248 C4420.770508,1677.425781 4410.352051,1675.821533 4400.361816,1676.011230 C4391.080078,1676.187378 4381.854980,1675.617920 4372.704102,1678.830444 C4367.884277,1680.522461 4362.171875,1679.870117 4356.858887,1679.923706 C4342.863281,1680.065186 4328.586426,1678.239258 4314.921387,1680.383057 C4278.463867,1686.102295 4241.885254,1683.045288 4205.376465,1684.064331 C4203.377930,1684.120117 4201.223145,1683.703125 4199.405273,1684.304688 C4181.855957,1690.112793 4163.750488,1687.846313 4145.872559,1687.879150 C4047.225586,1688.059814 3948.578369,1687.976074 3849.931152,1687.916626 C3839.992676,1687.910645 3830.087891,1688.531616 3820.287109,1685.034790 C3815.491943,1683.323853 3809.743164,1684.102417 3804.424316,1684.073120 C3785.095215,1683.966309 3765.765137,1684.074097 3746.436279,1683.942627 C3734.503906,1683.861450 3722.759766,1683.543579 3710.801270,1681.036987 C3699.280029,1678.622192 3686.924072,1680.247314 3674.937744,1679.974976 C3663.017822,1679.704102 3651.252930,1679.955933 3639.290527,1677.091187 C3629.166504,1674.666504 3618.092773,1676.219360 3607.439697,1675.988281 C3596.836670,1675.758301 3586.287598,1676.485596 3575.803223,1672.985718 C3570.347656,1671.164307 3563.927490,1672.179321 3557.939941,1672.017456 C3544.690186,1671.659302 3531.372070,1673.086670 3518.351074,1668.667236 C3514.126709,1667.233643 3509.103516,1668.124878 3504.444336,1668.007446 C3495.165283,1667.773682 3485.761963,1668.933594 3476.843262,1665.007202 C3475.090820,1664.235840 3472.879395,1664.008057 3470.951416,1664.210571 C3450.196045,1666.390625 3429.766113,1662.056641 3409.541748,1659.351074 C3390.527100,1656.807495 3371.266357,1657.352417 3352.349121,1653.122314 C3337.585449,1649.820923 3322.137451,1649.568237 3306.988525,1648.008789 C3291.180176,1646.381226 3275.328125,1645.108765 3259.563965,1643.133911 C3243.180664,1641.081421 3226.864014,1638.470459 3210.546631,1635.923462 C3196.836182,1633.783325 3183.182617,1631.276001 3169.472656,1629.131592 C3157.707275,1627.291016 3145.868164,1625.917358 3134.113525,1624.015381 C3107.342773,1619.682983 3080.580811,1615.284424 3053.859375,1610.659058 C3034.971436,1607.389893 3016.129150,1603.842163 2997.314941,1600.169922 C2974.576416,1595.731812 2951.767578,1591.556641 2929.203857,1586.339600 C2874.983643,1573.802734 2820.831055,1560.959351 2766.772461,1547.743774 C2746.167480,1542.706665 2725.760254,1536.744019 2705.498779,1530.444092 C2669.343506,1519.201904 2632.993164,1508.416138 2597.419189,1495.522217 C2559.974365,1481.949951 2523.042236,1466.831421 2486.453613,1451.070190 C2457.756104,1438.708252 2429.535889,1425.084473 2401.804688,1410.671875 C2365.797607,1391.958008 2331.900879,1369.617676 2299.719238,1344.940186 C2284.483154,1333.256958 2269.958252,1320.300293 2256.796143,1306.332642 C2232.102295,1280.126831 2210.091309,1251.789429 2198.656982,1216.848633 C2194.739746,1204.877808 2191.613770,1192.788696 2191.800537,1179.870117 C2192.001709,1165.981567 2190.832764,1152.073120 2189.028320,1137.027710 C2192.060303,1113.151367 2203.447510,1093.695312 2215.970703,1074.780762 C2242.051025,1035.390259 2275.266602,1002.985291 2313.178467,975.083618 C2365.527832,936.556641 2422.647461,906.531433 2481.828613,880.227661 C2570.889893,840.643372 2663.242676,810.392029 2757.141113,784.802612 C2861.947754,756.240540 2967.987305,733.060120 3075.200928,715.586426 C3142.249512,704.658875 3209.411133,694.267822 3276.742188,685.284546 C3330.877930,678.061768 3385.289551,672.734314 3439.678223,667.626709 C3498.057129,662.144470 3556.537842,657.706604 3615.004150,653.206665 C3640.917236,651.212219 3666.889160,649.791138 3692.861084,648.800354 C3748.811035,646.665894 3804.765869,644.214783 3860.741699,643.292847 C3938.713867,642.008545 4016.720947,640.845886 4094.687256,641.782959 C4171.320801,642.703857 4247.971191,645.310120 4324.522949,649.044678 C4391.733398,652.323608 4458.852539,657.757324 4525.946777,663.059998 C4573.102051,666.786743 4620.239746,671.108337 4667.219727,676.580505 C4724.116699,683.207703 4780.959961,690.528564 4837.605469,699.022949 C4896.214844,707.811829 4954.760254,717.306030 5012.980469,728.355591 C5163.656738,756.952576 5312.201172,793.757874 5456.036621,847.847168 C5516.596680,870.621033 5575.652344,896.724365 5631.977051,928.695190 C5670.898438,950.787903 5707.858887,975.699402 5741.349609,1005.598389 C5767.431641,1028.882935 5789.034180,1055.836304 5807.786133,1085.153564 C5817.152344,1099.797852 5824.179688,1115.621704 5829.098633,1133.867065 M5294.342285,1007.293701 C5278.952637,1001.048279 5263.797852,994.128723 5248.131348,988.680054 C5194.812988,970.137146 5140.874512,953.604187 5086.127930,939.721069 C5049.511719,930.435547 5012.598633,922.643921 4975.616699,914.961243 C4925.065918,904.459717 4874.361328,895.110352 4823.268066,887.782776 C4812.139160,886.186707 4801.052246,884.291565 4789.921875,882.707092 C4773.566406,880.378845 4757.188965,878.207336 4740.820801,875.966858 C4736.886230,875.428284 4732.955566,874.854004 4729.017578,874.342712 C4712.629395,872.215271 4696.243652,870.071472 4679.846680,868.011047 C4675.244141,867.432617 4670.599121,867.195068 4665.989258,866.664062 C4658.771973,865.832703 4651.578613,864.792358 4644.355469,864.022888 C4640.390625,863.600586 4635.999512,864.533264 4632.473145,863.146179 C4622.782715,859.335205 4612.814453,860.199646 4602.867188,859.951050 C4599.542480,859.868042 4595.907715,860.404541 4592.954590,859.262085 C4581.343262,854.769592 4569.049316,857.659668 4557.437500,855.521118 C4544.921387,853.216125 4532.351074,853.173340 4519.920898,851.617065 C4499.432617,849.051819 4478.990723,847.621155 4458.391602,847.600647 C4457.089355,847.599304 4455.684570,847.334473 4454.500977,846.805298 C4446.245117,843.115051 4437.494141,844.186279 4428.874512,844.007141 C4418.219727,843.785645 4407.164062,845.319763 4397.013184,842.954163 C4385.064453,840.169556 4373.301270,840.237915 4361.373535,840.009827 C4349.384277,839.780457 4337.007812,841.448608 4325.506348,838.987854 C4312.880371,836.286621 4300.463867,836.166809 4287.870605,836.031555 C4273.874023,835.881226 4259.873535,836.077087 4245.877930,835.889526 C4240.583984,835.818665 4235.290039,835.186890 4230.011719,834.652710 C4222.123047,833.854065 4214.249023,832.159180 4206.367188,832.149719 C4074.385254,831.991516 3942.403320,832.034973 3810.421387,832.042786 C3805.756104,832.043030 3800.844482,831.197449 3796.466309,832.344543 C3772.160400,838.712830 3747.429932,834.917114 3722.917480,835.978027 C3716.262695,836.266052 3709.179688,834.764709 3703.007080,836.551453 C3685.271973,841.685242 3667.290039,839.295715 3649.415771,839.989075 C3642.761475,840.247192 3635.654297,838.898682 3629.535156,840.799011 C3616.402100,844.877563 3603.159912,843.611633 3589.914307,844.004700 C3582.594971,844.221924 3574.825928,843.004272 3568.062012,845.065674 C3557.508789,848.281799 3547.010986,847.689270 3536.413818,848.008423 C3531.091797,848.168701 3525.345947,847.205200 3520.537598,848.884705 C3509.442139,852.760437 3498.177734,851.698792 3486.915527,852.011841 C3482.257812,852.141357 3477.302246,851.405212 3472.999268,852.735474 C3454.347900,858.501770 3434.838135,856.573242 3415.819336,859.210876 C3392.979492,862.378479 3369.806396,863.867798 3346.891602,867.350769 C3333.160400,869.437744 3319.273438,870.507996 3305.450195,871.978088 C3290.307129,873.588501 3275.112305,874.795044 3260.022949,876.802124 C3244.963135,878.805420 3230.005127,881.573181 3215.005127,884.021912 C3201.309326,886.257812 3187.600586,888.419617 3173.927490,890.787598 C3156.975586,893.723389 3140.074219,896.950867 3123.115479,899.845154 C3104.203857,903.072693 3085.112061,905.391846 3066.347168,909.300232 C3023.567871,918.210327 2980.710205,926.923950 2938.320068,937.468323 C2900.360596,946.910583 2862.854248,958.266296 2825.393066,969.588623 C2797.408203,978.046753 2770.140625,988.619324 2742.990479,999.555176 C2701.531250,1016.254883 2661.382812,1035.146362 2624.604248,1060.896240 C2604.891113,1074.697998 2585.799805,1088.832153 2572.566650,1109.471069 C2560.195068,1128.765991 2548.540527,1148.842285 2552.531494,1172.612549 C2556.185303,1194.375854 2565.195801,1214.248779 2580.741455,1230.998291 C2606.440674,1258.687988 2636.857910,1279.674561 2670.098633,1296.991577 C2700.804199,1312.987915 2732.410889,1326.823486 2764.940430,1338.794189 C2806.741699,1354.176514 2848.815430,1368.732544 2891.930908,1379.790039 C2940.054688,1392.132202 2988.532715,1403.115356 3036.955078,1414.261353 C3058.881104,1419.308350 3080.881836,1424.570190 3103.143311,1427.486816 C3131.377930,1431.186157 3158.947510,1438.403076 3187.424561,1441.032715 C3213.023193,1443.396362 3238.300537,1449.141479 3263.878418,1452.547119 C3275.700928,1454.121216 3287.575195,1455.139771 3299.352295,1456.803833 C3319.655762,1459.672485 3339.759277,1463.934692 3360.390625,1464.113159 C3363.677734,1464.141479 3366.953613,1464.984009 3370.241943,1465.391357 C3377.453613,1466.285156 3384.663574,1467.195679 3391.886230,1467.993042 C3396.500732,1468.502441 3401.145508,1468.739746 3405.760742,1469.244263 C3413.639648,1470.105469 3421.494629,1471.197998 3429.382324,1471.963379 C3434.013184,1472.412598 3439.073242,1471.337646 3443.265625,1472.835571 C3453.660156,1476.549561 3464.258057,1475.834839 3474.873535,1476.034058 C3478.865723,1476.109009 3483.200928,1475.419922 3486.780518,1476.724121 C3498.445801,1480.973877 3510.440918,1479.755005 3522.371826,1480.027100 C3526.365479,1480.118042 3530.680664,1479.387573 3534.290039,1480.641479 C3547.276123,1485.152710 3560.619629,1483.701172 3573.871826,1484.017456 C3579.198975,1484.144531 3584.910400,1483.072388 3589.782715,1484.627319 C3605.477295,1489.635986 3621.489502,1487.370361 3637.371582,1488.034912 C3644.009766,1488.312744 3651.010498,1487.509155 3657.188232,1489.375122 C3665.758545,1491.963501 3674.251953,1491.911743 3682.876953,1491.967773 C3697.541016,1492.062988 3712.206543,1491.964111 3726.870361,1492.092407 C3731.516846,1492.133057 3736.543945,1491.596924 3740.724121,1493.143311 C3749.834473,1496.513672 3759.096191,1495.886597 3768.378418,1495.956055 C3783.042236,1496.065918 3797.716064,1495.695923 3812.369873,1496.097290 C3832.240967,1496.641602 3852.321777,1493.728149 3871.920166,1499.664673 C3874.987305,1500.593628 3878.546875,1499.942627 3881.878906,1499.942993 C3965.867432,1499.951782 4049.856201,1499.971191 4133.844727,1499.899902 C4139.139160,1499.895386 4144.444824,1499.283936 4149.724121,1498.748047 C4157.611328,1497.947632 4165.461914,1496.438232 4173.359863,1496.174683 C4186.677246,1495.730225 4200.028809,1496.343872 4213.348633,1495.940918 C4237.207520,1495.219116 4261.267578,1498.569336 4284.891113,1492.310425 C4288.639160,1491.317383 4292.853516,1492.057983 4296.852539,1492.047729 C4310.850586,1492.011475 4324.849121,1492.066650 4338.846191,1491.935547 C4343.493164,1491.892090 4348.522461,1492.433960 4352.701660,1490.886230 C4361.809570,1487.513306 4371.069824,1488.194458 4380.352539,1488.032104 C4391.676758,1487.834229 4403.405762,1489.502686 4414.223145,1487.077759 C4427.497070,1484.102051 4440.598145,1484.326050 4453.851074,1483.986816 C4459.839355,1483.833618 4466.264648,1484.857300 4471.716309,1483.031860 C4482.199219,1479.521729 4492.747559,1480.268433 4503.351074,1479.990112 C4508.674316,1479.850464 4514.398926,1480.787231 4519.232910,1479.147583 C4529.669434,1475.607910 4540.230957,1476.161499 4550.848633,1475.978516 C4554.840820,1475.909668 4559.105957,1476.503784 4562.773926,1475.325562 C4581.385254,1469.347046 4600.924805,1471.650391 4619.952148,1468.781860 C4641.424805,1465.544922 4663.303711,1464.272705 4684.877930,1460.716064 C4698.573730,1458.458008 4712.496094,1457.586426 4726.306152,1455.998291 C4740.769043,1454.335083 4755.252441,1452.798218 4769.664551,1450.761963 C4783.403320,1448.820679 4797.039551,1446.165649 4810.759277,1444.077637 C4831.684570,1440.892944 4852.729004,1438.412598 4873.564941,1434.740479 C4898.315430,1430.378540 4922.806641,1424.536743 4947.573730,1420.287842 C4995.263184,1412.106567 5042.324707,1401.022949 5089.180664,1389.250854 C5135.484375,1377.617676 5181.314941,1364.217041 5226.396484,1348.180908 C5265.950684,1334.110840 5304.621094,1318.338379 5342.005371,1299.218750 C5375.417480,1282.130371 5406.198242,1261.867188 5432.218262,1234.343628 C5442.988281,1222.951050 5451.583984,1210.749390 5457.610840,1196.551636 C5466.922363,1174.617920 5466.888672,1152.603271 5457.211914,1130.782593 C5451.232910,1117.298828 5442.916016,1105.454712 5432.783691,1094.606201 C5409.742676,1069.937134 5381.800293,1052.142090 5352.484375,1036.312378 C5334.319824,1026.504028 5315.592773,1017.738159 5294.342285,1007.293701 z"/>
  <path fill="#51443B" opacity="1.000000" stroke="none" d=" M6207.920898,1818.463745 C6204.308594,1820.623901 6201.169922,1821.915894 6200.542969,1825.739868 C6200.008789,1829.000977 6200.075684,1832.377197 6200.056641,1835.703613 C6199.807129,1879.555420 6184.908691,1918.672119 6162.728516,1955.872803 C6138.565430,1996.399292 6106.223633,2029.777222 6072.039551,2061.414062 C6055.072266,2077.116943 6035.708984,2090.235107 6017.397949,2104.482178 C5984.791016,2129.851807 5948.703125,2149.865479 5913.335938,2170.851807 C5890.477539,2184.415527 5865.833496,2194.952637 5842.104004,2207.071045 C5797.046875,2230.082275 5750.164062,2248.892578 5703.263184,2267.659424 C5650.167969,2288.904541 5595.846191,2306.710693 5541.377441,2323.959473 C5490.170410,2340.175293 5438.469727,2354.825684 5386.294922,2367.697021 C5356.707031,2374.996582 5327.198242,2382.662598 5297.461914,2389.304688 C5255.483398,2398.681396 5213.357910,2407.408203 5171.238281,2416.137695 C5140.148926,2422.581299 5109.013672,2428.822998 5077.812500,2434.697021 C5058.969238,2438.244629 5039.967285,2440.956543 5021.024902,2443.972412 C5001.428223,2447.092041 4981.817383,2450.119385 4962.214355,2453.197510 C4947.856934,2455.452148 4933.527344,2457.906494 4919.137695,2459.932617 C4906.032227,2461.778320 4892.803711,2462.793701 4879.734863,2464.848877 C4862.106445,2467.621338 4844.638672,2471.065186 4826.733398,2472.302734 C4811.621582,2473.346924 4796.659668,2476.563477 4781.632812,2478.830322 C4779.664551,2479.127441 4777.718750,2479.636475 4775.742188,2479.810059 C4759.253418,2481.260986 4742.270020,2480.668945 4726.396973,2484.587891 C4708.081543,2489.109619 4689.086914,2484.956299 4671.211426,2491.277588 C4668.198242,2492.343018 4664.614258,2491.904785 4661.290527,2491.962646 C4651.334961,2492.135986 4641.420410,2491.551514 4631.680664,2495.102783 C4627.501953,2496.626221 4622.457031,2495.840088 4617.802246,2495.975586 C4607.864746,2496.265137 4597.926758,2495.364990 4588.182129,2499.023438 C4584.024414,2500.583984 4578.966309,2499.849121 4574.312500,2499.965576 C4562.382812,2500.264648 4550.483887,2499.376953 4538.702637,2503.191406 C4533.229980,2504.963135 4526.813965,2503.854248 4520.823730,2503.986572 C4509.555664,2504.235840 4498.449219,2504.104492 4487.189941,2506.975830 C4478.389648,2509.219482 4468.654785,2507.793457 4459.334961,2508.002686 C4448.732422,2508.240723 4438.185547,2507.521729 4427.703125,2511.024170 C4422.250977,2512.845703 4415.825195,2511.742188 4409.840332,2511.982910 C4390.642578,2512.754883 4371.240723,2509.815430 4352.296875,2515.632080 C4348.625977,2516.759033 4344.348145,2515.954834 4340.350586,2515.964844 C4323.688965,2516.006592 4307.022949,2515.799805 4290.368164,2516.150391 C4283.794922,2516.288818 4277.256348,2517.730469 4270.686035,2518.421875 C4264.756836,2519.045654 4258.807617,2519.855469 4252.863281,2519.891113 C4223.540039,2520.067139 4194.213379,2519.838867 4164.891113,2520.109863 C4148.999512,2520.256836 4132.956543,2518.317627 4117.324219,2523.496338 C4113.696289,2524.697998 4109.387695,2523.928711 4105.392578,2523.929932 C4042.078613,2523.948242 3978.764160,2524.030029 3915.450928,2523.828125 C3908.237549,2523.805176 3901.042480,2522.036621 3893.815430,2521.309814 C3887.876953,2520.713135 3881.905273,2520.134033 3875.946045,2520.111816 C3838.624512,2519.972412 3801.301514,2520.122314 3763.981201,2519.844971 C3756.756348,2519.791260 3749.548584,2518.218262 3742.321777,2517.451660 C3737.050049,2516.892578 3731.764648,2516.173340 3726.477783,2516.104980 C3711.151367,2515.906738 3695.820801,2516.074463 3680.492920,2515.951660 C3671.214111,2515.877441 3661.950439,2516.538086 3652.839844,2513.166748 C3648.657715,2511.619141 3643.639648,2512.227783 3638.993408,2512.056885 C3619.125000,2511.325195 3599.180664,2513.563965 3579.421875,2508.490479 C3571.904785,2506.560059 3563.505127,2508.130859 3555.509766,2507.984619 C3544.909424,2507.790771 3534.360352,2508.529053 3523.876221,2505.008789 C3518.425781,2503.179199 3512.002686,2504.202393 3506.016357,2504.022217 C3492.772705,2503.623291 3479.506348,2504.971191 3466.413086,2500.756592 C3460.937256,2498.994141 3454.518555,2500.154053 3448.528076,2500.000244 C3439.251953,2499.761719 3429.986084,2500.565186 3420.879395,2497.164551 C3416.703857,2495.605225 3411.681396,2496.161865 3407.035889,2496.043457 C3396.426758,2495.772705 3385.859131,2496.494385 3375.423828,2492.885498 C3370.606689,2491.219238 3364.848633,2492.438477 3359.555908,2491.939453 C3352.327393,2491.258057 3345.138916,2490.159912 3337.927490,2489.289795 C3333.978760,2488.813232 3330.025391,2488.193604 3326.060547,2488.067871 C3317.432129,2487.794189 3308.723877,2488.622314 3300.486328,2484.888916 C3298.755371,2484.104248 3296.558838,2484.188232 3294.572021,2484.152344 C3283.278076,2483.948486 3272.235352,2482.851562 3261.000977,2480.684082 C3244.835449,2477.565918 3228.064941,2477.720703 3211.622803,2475.858887 C3196.527832,2474.149658 3181.530029,2471.589844 3166.481689,2469.459961 C3153.384277,2467.605469 3140.267334,2465.887695 3127.174561,2464.000977 C3112.134766,2461.833740 3097.121094,2459.484375 3082.079346,2457.331055 C3068.983154,2455.456055 3055.855469,2453.804199 3042.757568,2451.941406 C3032.272461,2450.450195 3021.793701,2448.895996 3011.342285,2447.184814 C2988.514893,2443.447510 2965.674316,2439.774170 2942.899414,2435.734619 C2920.097168,2431.690430 2897.323975,2427.453857 2874.619873,2422.894043 C2851.919189,2418.334961 2829.314453,2413.298096 2806.677734,2408.423340 C2780.131592,2402.706787 2753.493164,2397.374268 2727.080566,2391.093018 C2685.182861,2381.129395 2643.390137,2370.709717 2601.651123,2360.097900 C2579.808594,2354.544678 2558.024170,2348.662842 2536.478516,2342.064209 C2492.677490,2328.650391 2448.805420,2315.391113 2405.427002,2300.696777 C2353.850586,2283.225342 2302.781982,2264.358154 2252.699951,2242.760742 C2214.795166,2226.415283 2177.367188,2209.184570 2140.691650,2190.314209 C2083.281006,2160.774658 2028.316650,2127.345215 1977.235352,2087.640381 C1951.464844,2067.609619 1926.681763,2046.488525 1904.722168,2022.410767 C1875.927979,1990.838745 1851.133911,1956.237671 1834.601562,1916.573486 C1822.801025,1888.262207 1815.142334,1858.766235 1815.877808,1827.619873 C1815.984741,1823.088501 1814.705811,1818.524536 1812.814209,1812.861572 C1819.957764,1764.183350 1835.028442,1719.200928 1862.113892,1678.688477 C1887.852051,1640.191040 1919.488647,1607.125488 1954.714233,1577.386353 C2005.754761,1534.295410 2061.689941,1498.520264 2122.136963,1467.231201 C2124.012207,1479.645508 2123.750732,1491.968750 2121.078857,1504.634033 C2117.683838,1520.727661 2117.621094,1537.514404 2115.953369,1553.985352 C2114.552734,1567.815796 2113.118896,1581.648682 2111.323730,1595.431519 C2109.105225,1612.465576 2105.933838,1629.394409 2104.283936,1646.475830 C2103.389648,1655.734009 2102.147949,1664.830566 2100.734375,1674.013062 C2098.119873,1690.994141 2097.497803,1708.279785 2095.964600,1725.431274 C2095.552002,1730.042969 2094.826904,1734.626099 2094.281494,1739.226807 C2093.503174,1745.791138 2092.595459,1752.345947 2092.050781,1758.930298 C2091.612061,1764.232056 2092.607178,1769.829346 2091.281982,1774.851318 C2083.902100,1802.818359 2089.403076,1830.094116 2094.504883,1857.543335 C2100.681885,1890.777710 2113.651855,1921.366699 2132.878418,1948.692749 C2146.526855,1968.091187 2161.187988,1987.239990 2181.475342,2000.982544 C2190.769531,2007.278809 2198.886719,2015.285889 2207.778076,2022.208008 C2243.047363,2049.664795 2281.589355,2071.816895 2321.042480,2092.616943 C2359.357422,2112.817139 2398.772461,2130.707520 2438.889404,2146.722656 C2480.196533,2163.212646 2522.548584,2177.132568 2564.653564,2191.564209 C2606.730469,2205.985352 2649.412598,2218.415771 2692.677979,2228.871338 C2713.940430,2234.009521 2734.747070,2241.104980 2756.090332,2245.820801 C2803.274414,2256.247070 2850.136963,2268.107422 2897.790771,2276.489014 C2935.572510,2283.133545 2972.997803,2291.781982 3010.718994,2298.801514 C3031.511719,2302.670410 3052.590576,2304.996826 3073.535156,2308.055908 C3082.699219,2309.394531 3091.863281,2310.742920 3101.003662,2312.233398 C3123.833984,2315.957275 3146.594482,2320.162354 3169.492432,2323.401855 C3185.210205,2325.625488 3201.128174,2326.399902 3216.924072,2328.121094 C3226.121094,2329.123047 3235.250488,2330.739258 3244.416260,2332.035645 C3261.423340,2334.441650 3278.427734,2336.869385 3295.449951,2339.164062 C3299.396484,2339.696289 3303.428223,2339.574219 3307.389404,2340.026855 C3315.260010,2340.926025 3323.094971,2342.144775 3330.971191,2342.982178 C3336.252197,2343.543701 3341.595703,2343.505371 3346.880371,2344.041992 C3354.763428,2344.842529 3362.611572,2345.977295 3370.488525,2346.844971 C3375.104492,2347.353516 3379.741699,2347.823486 3384.379150,2347.951660 C3393.671875,2348.208740 3402.873779,2347.841064 3412.006348,2351.020508 C3416.824707,2352.697998 3422.552490,2351.841797 3427.873535,2351.978027 C3437.158447,2352.216064 3446.373779,2351.680664 3455.514893,2354.921387 C3460.322510,2356.625732 3466.052246,2355.851074 3471.370605,2355.967285 C3482.645752,2356.213623 3493.921875,2355.351562 3504.974121,2359.204834 C3509.184326,2360.672607 3514.211914,2359.833984 3518.869141,2359.976562 C3533.439941,2360.423096 3547.877930,2359.855713 3562.494385,2363.145020 C3573.937256,2365.720215 3586.383789,2363.602539 3598.360107,2364.124023 C3606.263428,2364.468018 3614.118164,2365.853271 3622.006348,2366.658936 C3627.283447,2367.198242 3632.576172,2367.827148 3637.870117,2367.910400 C3650.531738,2368.110107 3663.198242,2367.999512 3675.862793,2368.039307 C3679.861328,2368.051758 3684.097412,2367.295410 3687.819336,2368.338379 C3710.766602,2374.770264 3734.180664,2370.997559 3757.363037,2371.982666 C3773.911621,2372.686035 3790.609131,2370.386963 3806.935791,2375.509277 C3811.205566,2376.848877 3816.203125,2375.942871 3820.866455,2375.943359 C3945.512695,2375.957031 4070.158936,2376.004395 4194.805176,2375.835693 C4202.679199,2375.824951 4210.541992,2374.017578 4218.427246,2373.211670 C4223.707031,2372.672363 4229.014648,2372.150391 4234.313965,2372.100586 C4250.976562,2371.944092 4267.643066,2372.163330 4284.304688,2371.950439 C4298.215820,2371.772949 4311.983887,2371.983887 4325.936035,2368.935791 C4337.413086,2366.428467 4349.816406,2368.254395 4361.805176,2367.972412 C4375.047852,2367.660645 4388.150391,2368.114990 4401.446289,2365.003418 C4412.220703,2362.482422 4423.981934,2364.214844 4435.303223,2363.981201 C4444.580078,2363.789795 4454.009766,2365.029541 4462.908691,2361.057617 C4464.089355,2360.530762 4465.525879,2360.258057 4466.813965,2360.341064 C4492.157227,2361.971680 4517.098633,2356.761963 4542.299805,2355.902832 C4550.199707,2355.633545 4558.064941,2354.252930 4565.938477,2353.323975 C4568.571289,2353.013428 4571.176758,2352.220703 4573.804688,2352.169189 C4588.406250,2351.883545 4603.111816,2352.864258 4617.299805,2348.142578 C4637.373047,2350.210449 4656.846191,2344.325928 4676.773926,2343.587646 C4693.848633,2342.955078 4710.806641,2339.152588 4727.815918,2336.752441 C4729.134766,2336.566162 4730.448730,2336.325684 4731.774414,2336.210938 C4748.267090,2334.780273 4764.804688,2333.742920 4781.242676,2331.841797 C4796.331055,2330.096680 4811.311523,2327.427246 4826.339844,2325.162109 C4836.802734,2323.584961 4847.241211,2321.815918 4857.732422,2320.460938 C4880.694336,2317.494629 4903.731445,2315.071777 4926.646973,2311.790771 C4945.626465,2309.072998 4964.476562,2305.447754 4983.383301,2302.217285 C5003.589844,2298.765137 5023.855957,2295.622070 5043.987305,2291.774414 C5075.823730,2285.689941 5107.632324,2279.425781 5139.336426,2272.694336 C5176.260742,2264.854736 5213.109863,2256.642090 5249.902832,2248.207031 C5297.755371,2237.237061 5345.151367,2224.445068 5392.022461,2209.887207 C5439.605469,2195.108154 5487.097168,2179.959473 5534.173340,2163.656250 C5560.494629,2154.540283 5585.995605,2143.001221 5611.668945,2132.088867 C5633.681152,2122.732422 5656.042480,2113.904053 5677.127441,2102.725586 C5714.091797,2083.128174 5751.350098,2063.881348 5785.455566,2039.317139 C5810.250000,2021.459106 5834.730957,2003.330200 5856.590820,1981.746094 C5869.520996,1968.978271 5880.271484,1954.744263 5889.792969,1939.545288 C5907.246582,1911.684082 5917.617676,1881.164307 5924.421875,1848.986206 C5929.051270,1827.092651 5929.730957,1805.017456 5927.214844,1783.530640 C5925.068359,1765.201416 5926.466309,1746.351196 5920.909668,1728.367554 C5919.763672,1724.659058 5920.432617,1720.421509 5919.974121,1716.461670 C5919.062500,1708.594116 5917.948730,1700.749756 5916.917969,1692.895996 C5916.658691,1690.918457 5916.200684,1688.945435 5916.161621,1686.963989 C5915.733398,1665.039673 5911.772461,1643.556763 5908.567871,1621.947510 C5906.240234,1606.251831 5905.718750,1590.297485 5903.928711,1574.510864 C5901.919434,1556.785889 5899.143066,1539.147461 5897.155273,1521.420288 C5895.239258,1504.331909 5893.903320,1487.178467 5892.520508,1468.197266 C5894.001953,1466.706177 5895.389648,1466.857178 5896.531738,1467.467163 C5964.140137,1503.563477 6028.153809,1544.893066 6084.556152,1597.212158 C6108.972168,1619.860474 6131.203125,1644.471680 6150.252930,1671.865601 C6171.299316,1702.130981 6186.903320,1734.899414 6195.991699,1770.706787 C6199.906738,1786.133057 6204.044922,1801.502808 6207.920898,1818.463745 z"/>
  <path fill="#77543E" opacity="1.000000" stroke="none" d=" M2120.312988,3194.592773 C2126.961670,3200.785645 2126.068359,3210.559326 2127.547852,3219.492188 C2133.117188,3253.123535 2141.490479,3285.935791 2154.339355,3317.542725 C2174.586914,3367.350586 2206.474609,3408.631592 2246.892334,3443.652344 C2289.366943,3480.455078 2335.769775,3511.583984 2384.652588,3539.138184 C2455.630859,3579.147949 2530.080811,3611.527100 2606.413086,3639.708984 C2719.665283,3681.521973 2835.758057,3713.544189 2953.440186,3740.083008 C3043.760010,3760.451172 3134.748291,3777.307373 3226.298828,3790.933594 C3281.619385,3799.166748 3337.133789,3806.287598 3392.715576,3812.530273 C3455.588623,3819.592041 3518.562988,3826.010742 3581.626953,3831.031494 C3638.063965,3835.524902 3694.667236,3838.029541 3751.223633,3840.892822 C3855.071777,3846.151367 3959.004395,3848.634766 4062.973877,3847.038818 C4127.590332,3846.046875 4192.189453,3843.583984 4256.778809,3841.288086 C4294.729004,3839.939209 4332.679199,3838.137451 4370.566895,3835.607910 C4413.761230,3832.724365 4456.902344,3828.988037 4500.035645,3825.273682 C4533.215820,3822.416016 4566.383789,3819.341553 4599.493652,3815.773926 C4633.921875,3812.064209 4668.354004,3808.213135 4702.640625,3803.402832 C4752.090332,3796.465576 4801.458984,3788.907715 4850.776367,3781.078125 C4944.196289,3766.247070 5036.760254,3747.171387 5128.650391,3724.712891 C5238.744629,3697.805176 5347.064941,3665.251465 5452.545898,3623.657471 C5531.386719,3592.568359 5607.778320,3556.432373 5679.459961,3510.887451 C5710.438965,3491.203613 5739.804688,3469.344482 5767.869629,3445.680176 C5829.861328,3393.410156 5867.860840,3327.104492 5883.921875,3247.953125 C5887.494141,3230.351807 5890.351562,3212.605713 5894.594727,3193.910645 C5907.873047,3223.226074 5906.860352,3254.606445 5902.839844,3286.166992 C5901.512695,3296.591797 5899.510254,3306.930420 5897.136719,3318.686523 C5895.123047,3321.476807 5893.160156,3322.659912 5892.549805,3324.335693 C5881.731934,3354.031982 5865.861816,3381.223145 5846.306152,3405.532959 C5831.059082,3424.485596 5816.749512,3444.754883 5795.954102,3459.080811 C5782.912109,3468.064941 5771.821289,3479.862061 5759.730469,3490.251953 C5735.449707,3511.117920 5708.431152,3528.119385 5681.411133,3545.059570 C5641.871582,3569.849121 5600.154785,3590.661621 5558.121094,3610.759033 C5517.324707,3630.264404 5475.556152,3647.625732 5433.042969,3663.037354 C5398.048340,3675.723877 5362.840820,3687.862793 5327.472656,3699.468262 C5271.308594,3717.897949 5214.362305,3733.705811 5156.964355,3747.793945 C5113.175293,3758.541992 5069.323730,3769.106689 5025.262695,3778.657227 C4993.551270,3785.530762 4961.447266,3790.594238 4929.520020,3796.473633 C4895.661133,3802.708740 4861.870605,3809.350342 4827.922852,3815.053711 C4805.726562,3818.782471 4783.277344,3820.982422 4760.990234,3824.205566 C4747.240234,3826.193848 4733.632812,3829.189209 4719.869629,3831.056885 C4704.770508,3833.105469 4689.547363,3834.222412 4674.412109,3836.028564 C4656.671387,3838.146240 4638.965820,3840.565918 4621.247070,3842.866211 C4619.270996,3843.122559 4617.313965,3843.569580 4615.332520,3843.735352 C4597.492676,3845.227051 4579.142578,3844.563232 4561.937988,3848.685303 C4541.586914,3853.562256 4520.587402,3848.794678 4500.636719,3855.433105 C4496.407227,3856.840576 4491.350098,3855.575439 4486.714844,3855.991455 C4478.151855,3856.760498 4469.617676,3857.852539 4461.074219,3858.833252 C4459.094727,3859.060303 4457.133301,3859.529541 4455.150879,3859.637451 C4427.971680,3861.114258 4400.793945,3862.606934 4373.608887,3863.960449 C4363.671875,3864.454834 4353.795898,3863.947998 4343.919434,3866.823242 C4337.718750,3868.628174 4330.699219,3867.595947 4324.049316,3867.885742 C4304.170898,3868.751465 4284.113281,3866.025879 4264.436523,3871.424561 C4260.078613,3872.620361 4255.154297,3871.794434 4250.489746,3871.819336 C4227.831055,3871.940430 4205.167480,3871.798096 4182.516113,3872.258545 C4173.952148,3872.432373 4165.424805,3874.074463 4156.863770,3874.859863 C4151.571289,3875.345215 4146.245605,3875.728027 4140.935059,3875.730957 C4052.298584,3875.782227 3963.662354,3875.765869 3875.025879,3875.761719 C3872.360107,3875.761475 3869.601807,3876.174805 3867.042969,3875.643066 C3836.715576,3869.340576 3805.992432,3873.041260 3775.466797,3871.896484 C3764.859863,3871.498535 3754.290039,3872.232910 3743.782471,3869.026123 C3738.243896,3867.335938 3731.885010,3868.370361 3725.899902,3868.099609 C3705.360107,3867.170410 3684.678711,3869.739258 3664.281250,3864.548096 C3657.997803,3862.949219 3651.012451,3864.156250 3644.351074,3863.983643 C3631.754639,3863.657227 3619.177734,3864.511230 3606.688965,3860.896729 C3600.491943,3859.103271 3593.456299,3860.200684 3586.799561,3860.005371 C3574.865479,3859.655762 3562.779297,3861.007324 3551.199951,3856.690674 C3549.991943,3856.240479 3548.569824,3856.328125 3547.242188,3856.239990 C3525.397705,3854.783203 3503.513672,3853.756836 3481.718262,3851.764893 C3462.617188,3850.019043 3443.616211,3847.183594 3424.568115,3844.854492 C3421.926514,3844.531250 3419.270752,3844.179199 3416.616211,3844.128418 C3395.994141,3843.736328 3375.819336,3839.784912 3355.501221,3836.823730 C3340.429199,3834.627441 3325.162598,3833.800049 3310.040527,3831.900879 C3293.632568,3829.840332 3277.302490,3827.169678 3260.919189,3824.901123 C3238.610840,3821.812256 3216.233887,3819.183838 3193.979736,3815.750244 C3169.104980,3811.912354 3144.323730,3807.458008 3119.522461,3803.153809 C3098.000244,3799.419189 3076.446533,3795.826416 3055.017090,3791.610596 C3030.311035,3786.750732 3005.639160,3781.652344 2981.106445,3775.990723 C2930.061279,3764.210938 2878.983398,3752.524658 2828.180664,3739.759033 C2796.010742,3731.675537 2764.216309,3722.034180 2732.431396,3712.499512 C2703.792969,3703.908691 2675.376953,3694.573242 2646.898193,3685.455566 C2602.544678,3671.255371 2559.573975,3653.379395 2516.375244,3636.120117 C2474.923096,3619.558350 2434.675781,3600.318115 2395.321777,3579.360107 C2348.358398,3554.349121 2303.168945,3526.340332 2260.856201,3493.945801 C2231.681641,3471.610107 2205.539307,3445.814209 2181.249756,3418.478516 C2155.070312,3389.016113 2134.299805,3355.745117 2121.007568,3316.866211 C2111.906982,3280.706299 2107.406006,3245.292480 2116.040283,3209.427490 C2117.125488,3204.919678 2118.728027,3200.535889 2120.312988,3194.592773 z"/>
  <path fill="#FAF3E9" opacity="1.000000" stroke="none" d=" M4110.781250,4622.667480 C4166.215332,4575.248535 4229.393066,4552.757812 4300.692871,4551.597656 C4369.770508,4550.473633 4433.746582,4568.091797 4493.156738,4602.801758 C4533.569824,4626.412598 4565.584961,4659.102051 4592.469727,4697.008789 C4630.428711,4750.528320 4655.574707,4809.535645 4666.653809,4874.275391 C4671.500000,4902.595703 4672.584473,4931.271973 4670.738770,4959.928711 C4669.113770,4985.160156 4666.929199,5010.374512 4664.223145,5035.513672 C4657.353027,5099.334961 4642.667969,5161.381836 4620.822754,5221.741699 C4578.175293,5339.578125 4511.032227,5441.749512 4423.636719,5531.102051 C4349.941895,5606.447266 4266.370117,5668.713867 4174.877441,5720.675293 C4123.810059,5749.677734 4071.014648,5774.984863 4016.147461,5795.949707 C4013.037109,5797.138184 4009.842285,5798.150879 4006.840820,5799.571289 C3997.227051,5804.118652 3988.263184,5803.449707 3978.093018,5799.640625 C3872.526123,5760.106445 3775.098389,5705.830078 3684.631348,5638.835449 C3637.406006,5603.861816 3593.384033,5565.198730 3552.863037,5522.618652 C3461.921387,5427.055664 3393.980469,5317.618164 3353.868652,5191.514648 C3339.718262,5147.028320 3329.962402,5101.580566 3323.092773,5055.362793 C3316.603027,5011.698730 3315.144775,4967.880859 3314.693604,4923.901855 C3314.277832,4883.401855 3322.516113,4844.526367 3335.863525,4806.568848 C3353.499268,4756.414062 3379.090576,4710.642578 3413.248779,4669.916016 C3458.409424,4616.070801 3516.365479,4582.479492 3583.651367,4563.960449 C3623.910889,4552.879883 3664.934326,4549.139648 3706.371582,4552.475098 C3765.659912,4557.246582 3818.910889,4578.068359 3865.588379,4615.372559 C3901.019043,4643.688965 3928.223145,4678.759277 3950.563965,4717.815430 C3964.144775,4741.557617 3975.473633,4766.404297 3984.624756,4792.215820 C3986.364014,4797.121582 3988.393066,4801.924316 3990.115967,4806.332520 C3995.994385,4807.271484 3996.152100,4803.100098 3997.255859,4800.395508 C4002.789307,4786.835938 4007.763672,4773.040039 4013.569580,4759.601562 C4036.059082,4707.543945 4067.171387,4661.522949 4110.781250,4622.667480 z"/>
  <path fill="#382F2A" opacity="1.000000" stroke="none" d=" M5295.730469,1007.899048 C5315.592773,1017.738159 5334.319824,1026.504028 5352.484375,1036.312378 C5381.800293,1052.142090 5409.742676,1069.937134 5432.783691,1094.606201 C5442.916016,1105.454712 5451.232910,1117.298828 5457.211914,1130.782593 C5466.888672,1152.603271 5466.922363,1174.617920 5457.610840,1196.551636 C5451.583984,1210.749390 5442.988281,1222.951050 5432.218262,1234.343628 C5406.198242,1261.867188 5375.417480,1282.130371 5342.005371,1299.218750 C5304.621094,1318.338379 5265.950684,1334.110840 5226.396484,1348.180908 C5181.314941,1364.217041 5135.484375,1377.617676 5089.180664,1389.250854 C5042.324707,1401.022949 4995.263184,1412.106567 4947.573730,1420.287842 C4922.806641,1424.536743 4898.315430,1430.378540 4873.564941,1434.740479 C4852.729004,1438.412598 4831.684570,1440.892944 4810.759277,1444.077637 C4797.039551,1446.165649 4783.403320,1448.820679 4769.664551,1450.761963 C4755.252441,1452.798218 4740.769043,1454.335083 4726.306152,1455.998291 C4712.496094,1457.586426 4698.573730,1458.458008 4684.877930,1460.716064 C4663.303711,1464.272705 4641.424805,1465.544922 4619.952148,1468.781860 C4600.924805,1471.650391 4581.385254,1469.347046 4562.773926,1475.325562 C4559.105957,1476.503784 4554.840820,1475.909668 4550.848633,1475.978516 C4540.230957,1476.161499 4529.669434,1475.607910 4519.232910,1479.147583 C4514.398926,1480.787231 4508.674316,1479.850464 4503.351074,1479.990112 C4492.747559,1480.268433 4482.199219,1479.521729 4471.716309,1483.031860 C4466.264648,1484.857300 4459.839355,1483.833618 4453.851074,1483.986816 C4440.598145,1484.326050 4427.497070,1484.102051 4414.223145,1487.077759 C4403.405762,1489.502686 4391.676758,1487.834229 4380.352539,1488.032104 C4371.069824,1488.194458 4361.809570,1487.513306 4352.701660,1490.886230 C4348.522461,1492.433960 4343.493164,1491.892090 4338.846191,1491.935547 C4324.849121,1492.066650 4310.850586,1492.011475 4296.852539,1492.047729 C4292.853516,1492.057983 4288.639160,1491.317383 4284.891113,1492.310425 C4261.267578,1498.569336 4237.207520,1495.219116 4213.348633,1495.940918 C4200.028809,1496.343872 4186.677246,1495.730225 4173.359863,1496.174683 C4165.461914,1496.438232 4157.611328,1497.947632 4149.724121,1498.748047 C4144.444824,1499.283936 4139.139160,1499.895386 4133.844727,1499.899902 C4049.856201,1499.971191 3965.867432,1499.951782 3881.878906,1499.942993 C3878.546875,1499.942627 3874.987305,1500.593628 3871.920166,1499.664673 C3852.321777,1493.728149 3832.240967,1496.641602 3812.369873,1496.097290 C3797.716064,1495.695923 3783.042236,1496.065918 3768.378418,1495.956055 C3759.096191,1495.886597 3749.834473,1496.513672 3740.724121,1493.143311 C3736.543945,1491.596924 3731.516846,1492.133057 3726.870361,1492.092407 C3712.206543,1491.964111 3697.541016,1492.062988 3682.876953,1491.967773 C3674.251953,1491.911743 3665.758545,1491.963501 3657.188232,1489.375122 C3651.010498,1487.509155 3644.009766,1488.312744 3637.371582,1488.034912 C3621.489502,1487.370361 3605.477295,1489.635986 3589.782715,1484.627319 C3584.910400,1483.072388 3579.198975,1484.144531 3573.871826,1484.017456 C3560.619629,1483.701172 3547.276123,1485.152710 3534.290039,1480.641479 C3530.680664,1479.387573 3526.365479,1480.118042 3522.371826,1480.027100 C3510.440918,1479.755005 3498.445801,1480.973877 3486.780518,1476.724121 C3483.200928,1475.419922 3478.865723,1476.109009 3474.873535,1476.034058 C3464.258057,1475.834839 3453.660156,1476.549561 3443.265625,1472.835571 C3439.073242,1471.337646 3434.013184,1472.412598 3429.382324,1471.963379 C3421.494629,1471.197998 3413.639648,1470.105469 3405.760742,1469.244263 C3401.145508,1468.739746 3396.500732,1468.502441 3391.886230,1467.993042 C3384.663574,1467.195679 3377.453613,1466.285156 3370.241943,1465.391357 C3366.953613,1464.984009 3363.677734,1464.141479 3360.390625,1464.113159 C3339.759277,1463.934692 3319.655762,1459.672485 3299.352295,1456.803833 C3287.575195,1455.139771 3275.700928,1454.121216 3263.878418,1452.547119 C3238.300537,1449.141479 3213.023193,1443.396362 3187.424561,1441.032715 C3158.947510,1438.403076 3131.377930,1431.186157 3103.143311,1427.486816 C3080.881836,1424.570190 3058.881104,1419.308350 3036.955078,1414.261353 C2988.532715,1403.115356 2940.054688,1392.132202 2891.930908,1379.790039 C2848.815430,1368.732544 2806.741699,1354.176514 2764.940430,1338.794189 C2732.410889,1326.823486 2700.804199,1312.987915 2670.098633,1296.991577 C2636.857910,1279.674561 2606.440674,1258.687988 2580.741455,1230.998291 C2565.195801,1214.248779 2556.185303,1194.375854 2552.531494,1172.612549 C2548.540527,1148.842285 2560.195068,1128.765991 2572.566650,1109.471069 C2585.799805,1088.832153 2604.891113,1074.697998 2624.604248,1060.896240 C2661.382812,1035.146362 2701.531250,1016.254883 2742.990479,999.555176 C2770.140625,988.619324 2797.408203,978.046753 2825.393066,969.588623 C2862.854248,958.266296 2900.360596,946.910583 2938.320068,937.468323 C2980.710205,926.923950 3023.567871,918.210327 3066.347168,909.300232 C3085.112061,905.391846 3104.203857,903.072693 3123.115479,899.845154 C3140.074219,896.950867 3156.975586,893.723389 3173.927490,890.787598 C3187.600586,888.419617 3201.309326,886.257812 3215.005127,884.021912 C3230.005127,881.573181 3244.963135,878.805420 3260.022949,876.802124 C3275.112305,874.795044 3290.307129,873.588501 3305.450195,871.978088 C3319.273438,870.507996 3333.160400,869.437744 3346.891602,867.350769 C3369.806396,863.867798 3392.979492,862.378479 3415.819336,859.210876 C3434.838135,856.573242 3454.347900,858.501770 3472.999268,852.735474 C3477.302246,851.405212 3482.257812,852.141357 3486.915527,852.011841 C3498.177734,851.698792 3509.442139,852.760437 3520.537598,848.884705 C3525.345947,847.205200 3531.091797,848.168701 3536.413818,848.008423 C3547.010986,847.689270 3557.508789,848.281799 3568.062012,845.065674 C3574.825928,843.004272 3582.594971,844.221924 3589.914307,844.004700 C3603.159912,843.611633 3616.402100,844.877563 3629.535156,840.799011 C3635.654297,838.898682 3642.761475,840.247192 3649.415771,839.989075 C3667.290039,839.295715 3685.271973,841.685242 3703.007080,836.551453 C3709.179688,834.764709 3716.262695,836.266052 3722.917480,835.978027 C3747.429932,834.917114 3772.160400,838.712830 3796.466309,832.344543 C3800.844482,831.197449 3805.756104,832.043030 3810.421387,832.042786 C3942.403320,832.034973 4074.385254,831.991516 4206.367188,832.149719 C4214.249023,832.159180 4222.123047,833.854065 4230.011719,834.652710 C4235.290039,835.186890 4240.583984,835.818665 4245.877930,835.889526 C4259.873535,836.077087 4273.874023,835.881226 4287.870605,836.031555 C4300.463867,836.166809 4312.880371,836.286621 4325.506348,838.987854 C4337.007812,841.448608 4349.384277,839.780457 4361.373535,840.009827 C4373.301270,840.237915 4385.064453,840.169556 4397.013184,842.954163 C4407.164062,845.319763 4418.219727,843.785645 4428.874512,844.007141 C4437.494141,844.186279 4446.245117,843.115051 4454.500977,846.805298 C4455.684570,847.334473 4457.089355,847.599304 4458.391602,847.600647 C4478.990723,847.621155 4499.432617,849.051819 4519.920898,851.617065 C4532.351074,853.173340 4544.921387,853.216125 4557.437500,855.521118 C4569.049316,857.659668 4581.343262,854.769592 4592.954590,859.262085 C4595.907715,860.404541 4599.542480,859.868042 4602.867188,859.951050 C4612.814453,860.199646 4622.782715,859.335205 4632.473145,863.146179 C4635.999512,864.533264 4640.390625,863.600586 4644.355469,864.022888 C4651.578613,864.792358 4658.771973,865.832703 4665.989258,866.664062 C4670.599121,867.195068 4675.244141,867.432617 4679.846680,868.011047 C4696.243652,870.071472 4712.629395,872.215271 4729.017578,874.342712 C4732.955566,874.854004 4736.886230,875.428284 4740.820801,875.966858 C4757.188965,878.207336 4773.566406,880.378845 4789.921875,882.707092 C4801.052246,884.291565 4812.139160,886.186707 4823.268066,887.782776 C4874.361328,895.110352 4925.065918,904.459717 4975.616699,914.961243 C5012.598633,922.643921 5049.511719,930.435547 5086.127930,939.721069 C5140.874512,953.604187 5194.812988,970.137146 5248.131348,988.680054 C5263.797852,994.128723 5278.952637,1001.048279 5295.730469,1007.899048 z"/>
</svg>