<?xml version="1.0" encoding="UTF-8" standalone="no"?>
<!-- Created with Inkscape (http://www.inkscape.org/) -->

<svg
   width="297mm"
   height="210mm"
   viewBox="0 0 1122.5197 793.70081"
   version="1.1"
   id="svg1"
   inkscape:version="1.4.2 (ebf0e940, 2025-05-08)"
   sodipodi:docname="SitNL Logo (orange).svg"
   xmlns:inkscape="http://www.inkscape.org/namespaces/inkscape"
   xmlns:sodipodi="http://sodipodi.sourceforge.net/DTD/sodipodi-0.dtd"
   xmlns="http://www.w3.org/2000/svg"
   xmlns:svg="http://www.w3.org/2000/svg">
  <sodipodi:namedview
     id="namedview1"
     pagecolor="#ffffff"
     bordercolor="#000000"
     borderopacity="0.25"
     inkscape:showpageshadow="2"
     inkscape:pageopacity="0.0"
     inkscape:pagecheckerboard="0"
     inkscape:deskcolor="#d1d1d1"
     inkscape:document-units="mm"
     inkscape:zoom="0.57863911"
     inkscape:cx="646.34414"
     inkscape:cy="727.5692"
     inkscape:window-width="2056"
     inkscape:window-height="1171"
     inkscape:window-x="0"
     inkscape:window-y="40"
     inkscape:window-maximized="1"
     inkscape:current-layer="layer1" />
  <defs
     id="defs1" />
  <g
     inkscape:label="Layer 1"
     inkscape:groupmode="layer"
     id="layer1">
    <g
       id="g1"
       transform="matrix(5.0000176,0,0,5.0000099,-2436.362,-1520.2447)">
      <path
         fill="#ffa500"
         opacity="1"
         stroke="none"
         d="m 548.93365,343.25299 c 2.73036,-0.007 5.46072,-0.0131 8.19106,-0.0164 0.62724,-0.002 0.84072,0.55853 1.17829,0.91355 0.62345,0.65564 1.17342,1.38072 1.76283,2.06934 1.1441,1.33666 2.28957,2.67214 3.44335,4.0005 1.07931,1.24266 2.17115,2.47447 3.25534,3.71296 0.48814,0.55757 0.9843,1.10921 1.44447,1.68925 0.0859,0.10819 0.0924,0.39803 0.01,0.50387 -1.23685,1.56606 -2.49361,3.11643 -3.74882,4.66797 -1.29037,1.59492 -2.58542,3.18607 -3.87496,4.78168 -0.15803,0.19574 -0.20262,0.35912 -0.0262,0.63036 0.37797,0.58158 0.66872,1.21991 1.03089,1.90158 0.14721,0.40911 0.28524,0.7458 0.36272,1.09584 0.0731,0.32921 0.20098,0.38987 0.50298,0.24754 0.76535,-0.36105 1.54269,-0.69663 2.31283,-1.04774 1.23757,-0.5642 2.47321,-1.13272 3.70964,-1.69938 1.25653,-0.55154 2.51305,-1.10305 3.84217,-1.6865 0.0344,0.23574 0.0869,0.42702 0.0869,0.6182 0.007,3.38892 10e-4,6.77785 0.007,10.16677 4e-4,0.34685 -0.0806,0.54859 -0.44649,0.72082 -2.11312,0.99466 -4.20351,2.03758 -6.30411,3.05899 -0.1459,0.0711 -0.31377,0.0947 -0.46806,0.14951 -0.61925,0.22098 -0.85177,0.6262 -0.77748,1.30787 0.1223,1.12226 -0.14098,2.20915 -0.5322,3.2565 -0.14426,0.38623 0.11312,0.48764 0.33791,0.63446 1.6081,1.05 3.21813,2.09695 4.82672,3.1462 0.9746,0.63567 1.94512,1.27764 2.92306,1.9082 0.30754,0.19836 0.45177,0.43806 0.44528,0.8256 -0.0518,3.08299 -0.0751,6.16641 -0.12754,9.24943 -0.01,0.58459 -0.10951,1.1677 -0.17804,1.85735 -0.75423,-0.44915 -1.44072,-0.85997 -2.12918,-1.26738 -0.50459,-0.29869 -1.01184,-0.59266 -1.57597,-0.92532 -1.29958,-0.80069 -2.53489,-1.57538 -3.78407,-2.32689 -2.34168,-1.40882 -4.69801,-2.79331 -7.03601,-4.20817 -2.35666,-1.42613 -4.69489,-2.88266 -7.0545,-4.30384 -0.16,-0.0964 -0.48604,-0.0918 -0.64138,0.01 -0.5025,0.32721 -0.96135,0.72144 -1.43699,1.0898 -1.18852,0.87666 -2.37882,1.75079 -3.56502,2.63056 -1.14207,0.84709 -2.27964,1.7002 -3.41991,2.54975 -0.10295,0.0767 -0.21082,0.14623 -0.40095,0.2777 1.47086,0.65053 2.8121,1.24643 4.15555,1.83735 2.08912,0.91892 4.14827,1.91846 6.28237,2.71764 1.14282,0.428 1.55558,1.32853 2.07617,2.2265 0.97941,1.68934 1.95679,3.37987 2.93705,5.06873 1.03574,1.78436 2.14099,3.53298 3.08086,5.36643 0.42819,0.83525 1.04042,1.01689 1.82521,1.14623 2.14574,0.35371 4.28489,0.74728 6.42811,1.11656 1.50571,0.25934 3.01381,0.50492 4.52289,0.75698 0.0131,0.23509 0.0328,0.38246 0.0328,0.52968 0.002,2.54689 -0.01,5.09387 0.0131,7.64057 0.003,0.48937 -0.14032,0.64357 -0.63675,0.64223 -5.89899,-0.0164 -11.79799,-0.0131 -17.76449,-0.0557 -0.70983,-0.90882 -1.36079,-1.76941 -1.99295,-2.64355 -1.71407,-2.3701 -3.40902,-4.75413 -5.13978,-7.11184 -0.3059,-0.41659 -0.68833,-0.85807 -1.13816,-1.07276 -1.42237,-0.67882 -2.8924,-1.25807 -4.34814,-1.86597 -0.10033,-0.0416 -0.26853,-0.0495 -0.34712,0.007 -0.45728,0.32938 -0.89721,0.68285 -1.34302,1.02816 -0.96131,0.64955 -1.92751,1.29204 -2.88292,1.95017 -1.67115,1.15115 -3.33971,2.30617 -5.00148,3.47076 -0.96623,0.67712 -1.91722,1.37604 -2.9081,2.08889 0.5476,1.4021 1.09554,2.80692 1.64492,4.21119 1.1737,3.0001 2.34826,5.99987 3.52092,9.00034 0.0131,0.0331 0.007,0.0741 0.01,0.15475 -3.4106,0.0436 -6.82159,0.0436 -10.28569,0.002 -0.88125,-1.49148 -1.70407,-2.94456 -2.53886,-4.39073 -0.99272,-1.71974 -1.99321,-3.43502 -2.99492,-5.14958 -1.11177,-1.90289 -2.22338,-3.80594 -3.34817,-5.70112 -0.20393,-0.34364 -0.15475,-0.61026 0.10197,-0.8839 0.43174,-0.4601 0.84895,-0.93394 1.28472,-1.39014 1.72515,-1.80603 3.45368,-3.60889 5.18394,-5.41 1.05968,-1.10312 2.11863,-2.20709 3.19201,-3.2968 0.26229,-0.26655 0.28492,-0.4857 0.0846,-0.80229 -0.84154,-1.33204 -1.66486,-2.67565 -2.48905,-4.01857 -0.24886,-0.40554 -0.46702,-0.77803 -0.98709,-0.96321 -1.47206,-0.5242 -2.92079,-1.11613 -4.36774,-1.70813 -1.28771,-0.52686 -2.55273,-1.10945 -3.84256,-1.63079 -1.30817,-0.52873 -2.6345,-1.01256 -4.09857,-1.57168 3.03345,-6.89234 6.04077,-13.72536 9.06582,-20.59859 -0.37053,-0.1918 -0.73581,-0.32721 -1.03813,-0.54869 -0.65653,-0.48091 -1.35309,-0.93954 -1.89679,-1.53242 -0.48141,-0.52496 -0.73909,-1.21364 -1.1102,-1.86719 -0.28525,-1.03793 -0.37043,-2.17843 -0.48774,-3.25777 0.0449,-0.22394 0.0843,-0.39945 0.12066,-0.57581 0.18164,-0.88236 0.36236,-1.76492 0.54341,-2.64738 0.0852,-0.37557 0.14131,-0.762 0.27508,-1.11934 0.0348,-0.0928 0.34229,-0.17574 0.47269,-0.12623 1.13328,0.4296 2.2521,0.89708 3.38027,1.34049 2.22839,0.87587 4.48026,1.69597 6.68168,2.63473 1.10236,0.47006 2.33718,0.76196 3.13049,1.80351 0.48827,0.64095 0.79558,1.32793 0.9282,2.13882 0.23476,1.43633 -0.32459,2.65905 -0.86587,3.90597 -1.21813,2.80558 -2.42656,5.61532 -3.67869,8.48506 -0.50361,1.14807 -0.96295,2.23643 -1.43263,3.3203 -0.52459,1.21073 -1.05856,2.41739 -1.60629,3.66647 0.70124,0.28426 1.35013,0.54708 2.0156,0.81672 4.64031,-7.10466 9.26631,-14.1874 13.85662,-21.21551 -0.60181,-0.63642 -1.16204,-1.22232 -1.71519,-1.81488 -1.56288,-1.6744 -2.56138,-3.6863 -3.18076,-5.84624 -0.56921,-1.98486 -0.79462,-4.0383 -0.50144,-6.12876 0.23475,-1.67417 0.63089,-3.29208 1.34092,-4.82234 1.07131,-2.30886 2.60686,-4.23951 4.64883,-5.78991 1.73338,-1.316 3.61774,-2.29892 5.72043,-2.81358 1.27256,-0.31147 2.58404,-0.46495 3.87902,-0.68354 0.46286,-0.078 0.92863,-0.13902 1.39309,-0.20787 m -19.87485,86.96538 c 0.0462,-0.15246 0.0387,-0.29279 -0.01,-0.41741 -0.79364,-2.05007 -1.59344,-4.09772 -2.38957,-6.14677 -0.59368,-1.52787 -1.1841,-3.05699 -1.77486,-4.64938 0.0295,-0.0475 0.0623,-0.0954 0.17279,-0.15738 1.52613,-1.05315 3.05387,-2.10407 4.57466,-3.16492 0.0928,-0.0649 0.74485,-0.52076 0.95502,-0.66725 2.59243,-1.80659 5.17122,-3.63295 7.77604,-5.42142 0.48607,-0.33377 0.6079,-0.62787 0.40689,-1.19738 -1.33377,-3.77915 -2.63774,-7.56892 -3.93443,-11.361 -0.14787,-0.43216 0.10426,-1.67524 0.16196,-1.77242 0,0 -0.0131,0.003 0.0472,-0.0476 0.28459,-0.62783 0.56898,-1.25567 0.85167,-1.91931 1.60171,-3.294 6.00132,-12.35176 6.06922,-12.58585 0,0 -5.2e-4,-0.0367 0.0623,-0.082 0.28295,-0.42777 0.57806,-0.42089 0.99046,-0.12328 0.31606,0.22787 -1.05289,-0.72738 25.87387,15.54986 0.0164,-0.27574 0.0387,-0.45364 0.0394,-0.63151 0.003,-0.89771 -0.0295,-1.79695 0.0131,-2.69253 0.0262,-0.53593 -0.16918,-0.84997 -0.61013,-1.13944 -7.48401,-4.91165 -6.84513,-4.26532 -27.70814,-18.15357 -0.31443,-0.20918 -0.5102,-0.20558 -0.72456,0.12983 -0.57125,0.8943 -1.176,1.76738 -1.74784,2.66102 -0.54921,0.85824 -0.87479,1.32158 -1.33564,2.04788 -1.70771,2.60685 -3.41148,5.2163 -5.10758,7.83076 -0.63866,0.98446 -1.25518,1.98332 -1.94361,3.01853 -0.18426,0.25738 -0.37902,0.50787 -0.55164,0.77276 -1.40636,2.15839 -2.80997,4.31863 -4.21142,6.48017 -0.53147,0.81971 -0.60734,1.7781 -0.7781,2.70151 -0.0344,0.18623 0.10296,0.4303 0.21541,0.61443 1.53748,2.5144 3.08244,5.0243 4.63427,7.52985 1.20794,1.9503 0.67699,1.25636 1.58499,2.60751 0.003,0.0885 -0.0131,0.37708 -0.11279,0.38967 -1.74856,1.23158 -6.80522,4.77562 -11.29293,7.93198 -0.34217,0.24066 -0.37135,0.48921 0.0131,0.76423 m -3.67263,-28.8086 c -0.65941,1.47571 -1.31518,2.95305 -1.97062,4.43053 -0.11967,0.26984 -0.01,0.38518 0.33111,0.38623 0.0436,-0.003 0.0872,-0.007 0.18492,0.062 0.13508,0.0525 0.26558,0.13311 0.40508,0.15344 1.86466,0.26689 3.73201,0.51479 5.59555,0.78866 1.24912,0.18361 2.49335,0.40072 3.73975,0.60285 -0.0997,-0.15213 -0.22427,-0.25574 -0.36751,-0.31574 -1.41358,-0.59003 -2.82574,-1.18393 -4.24791,-1.75288 -0.70534,-0.2823 -1.43059,-0.51473 -2.13767,-0.77177 0,0 -10e-4,0.01 0.007,-0.08 0.0459,-0.17902 0.0692,-0.36768 0.14099,-0.53558 0.59557,-1.39118 1.19974,-2.77872 1.80197,-4.16705 1.38147,-3.18503 2.76489,-6.36919 4.14443,-9.55497 0.80885,-1.86787 1.61935,-3.73509 2.41413,-5.60893 0.37905,-0.8936 0.19115,-1.31488 -0.68698,-1.66842 -2.33781,-0.94142 -4.67535,-1.88352 -7.0127,-2.82607 -0.30328,-0.12197 -0.60462,-0.24886 -0.92623,-0.38135 -0.27344,1.92102 0.27311,3.3305 1.88046,3.92814 1.08567,0.4037 2.14974,0.86531 3.22496,1.29741 0.34049,0.13672 0.4196,0.28721 0.24557,0.67557 -1.71653,3.8324 -3.4064,7.6768 -5.0945,11.52189 -0.29147,0.66394 -0.53915,1.34715 -0.80616,2.0561 0,0 -0.007,0.0344 -0.0751,0.0711 m 39.67757,-37.76763 c 0,0 0.0498,-0.007 0.15705,-0.003 h 3.10079 c 0.0164,-0.0557 0.0328,-0.11148 0.0485,-0.16754 -1.04,-1.19423 -2.07207,-2.39565 -3.13394,-3.57017 -0.0928,-0.10295 -0.42217,-0.1059 -0.57279,-0.0262 -1.75443,0.93315 -3.08171,2.32023 -3.97437,4.07253 -0.91878,1.80348 -1.19593,3.72302 -0.57757,5.70027 0.56416,1.80397 1.81544,3.05086 3.34358,4.07663 1.03918,0.69754 2.05246,1.43371 3.07567,2.15499 0.24623,0.17377 0.55912,0.57305 0.78427,0.17573 0.31803,-0.56147 1.26741,-0.81456 0.90636,-1.72426 -0.0197,-0.0502 -0.0807,-0.0849 -0.098,-0.13541 -0.13968,-0.40187 -0.33102,-0.79633 -0.39925,-1.21069 -0.27443,-1.66725 1.74436,-3.80981 3.94315,-2.82469 0.11279,0.0505 0.33345,0.0531 0.4,-0.0164 0.33522,-0.36065 0.63587,-0.75334 1.00033,-1.19784 -0.92403,-0.17934 -1.72036,-0.33485 -2.51721,-0.48803 -1.13735,-0.21836 -2.27502,-0.43554 -3.40109,-0.65643 0,0 2e-4,0.0131 -0.0262,-0.0367 -0.5841,-1.17288 -1.26872,-2.3258 -1.90459,-3.48335 -0.10295,-0.18754 -0.13705,-0.41259 -0.15574,-0.63751 z"
         id="path2-9"
         sodipodi:nodetypes="csssssscssscssscccsssssscsscscsccssccsscssssscscssccssssscsscssccsssssssssssscccsccscscssssscsccccsssssscccsccssssscccccscsssssscsccsscsccsccsccccccscccssssscssssccccccscsssssssssccsccscc"
         style="stroke-width:0.112373" />
      <path
         fill="#ffa500"
         opacity="1"
         stroke="none"
         d="m 637.93414,368.08617 c 0.39318,-0.71764 0.78636,-1.43531 1.22243,-2.23118 -0.37509,-0.47574 -0.79099,-1.01256 -1.21673,-1.54145 -1.15931,-1.44006 -2.32384,-2.87593 -3.48433,-4.31508 -1.02069,-1.26581 -2.02626,-2.5442 -3.06807,-3.7923 -0.21246,-0.25443 -0.1718,-0.42692 -0.01,-0.62046 0.69404,-0.82056 1.40007,-1.63099 2.09929,-2.44719 1.09642,-1.2799 2.18718,-2.56469 3.28748,-3.84122 0.78695,-0.91302 1.58442,-1.81695 2.37925,-2.72312 0.85629,-0.97633 1.69951,-1.96492 2.58449,-2.91456 0.19869,-0.21311 0.54581,-0.40361 0.82676,-0.40665 2.6563,-0.0295 5.31309,-0.0131 8.04847,0.0328 1.28833,0.16492 2.518,0.1859 3.70236,0.42784 1.47053,0.30066 2.89873,0.76544 4.28168,1.40558 2.6886,1.24446 4.86106,3.07285 6.51788,5.49709 1.50846,2.20715 2.32607,4.70669 2.58122,7.34686 0.22524,2.32994 -0.11115,4.63833 -0.93558,6.83584 -0.82482,2.19824 -2.07954,4.14427 -3.76272,5.79696 -0.25673,0.25214 -0.54722,0.47004 -0.81194,0.69519 4.65152,7.13322 9.26369,14.20615 13.89382,21.30662 0.68873,-0.29213 1.3442,-0.57017 2.02807,-0.86023 -1.05547,-2.35607 -2.07902,-4.64096 -3.10259,-6.92588 -0.29836,-0.76318 -0.57738,-1.53473 -0.89932,-2.28787 -0.76793,-1.79673 -1.56177,-3.5824 -2.334,-5.37736 -0.39082,-0.90846 -0.86246,-1.79934 -1.11505,-2.74682 -0.70174,-2.63269 0.48023,-4.61788 2.90715,-5.54437 2.85961,-1.09174 5.69532,-2.24627 8.53792,-3.38217 0.78088,-0.31213 1.54688,-0.66125 2.32485,-0.98092 0.38758,-0.15934 0.58213,-0.11836 0.72748,0.39659 0.0839,0.29738 0.16295,0.52577 0.28492,0.85853 0.11016,0.42485 0.19442,0.77764 0.25803,1.1342 0.28328,1.15964 0.35479,2.28662 0.23082,3.46384 -0.0806,0.70272 -0.22033,1.34315 -0.42062,2.02702 -0.48804,1.20108 -1.224,2.202 -2.35079,2.87567 -0.5263,0.31476 -1.07358,0.59414 -1.62499,0.89705 0.0416,0.11017 0.0636,0.17771 0.0921,0.24197 0.95082,2.13017 1.90614,4.25837 2.8526,6.39047 0.97613,2.19902 1.94944,4.39935 2.91364,6.60358 1.0119,2.31329 2.01289,4.63132 3.01423,6.94919 0.0977,0.22558 0.16197,0.40181 -0.20295,0.52594 -0.72154,0.24525 -1.40839,0.59046 -2.1179,0.87351 -2.93122,1.16925 -5.87404,2.31004 -8.79238,3.51043 -0.68285,0.28099 -1.47734,0.38728 -1.92259,1.15794 -0.86105,1.49013 -1.7998,2.93521 -2.68266,4.41312 -0.0669,0.11147 -0.002,0.38524 0.0977,0.49902 0.53911,0.61432 1.10302,1.20734 1.66869,1.7978 1.84351,1.92414 3.69174,3.84371 5.53755,5.76562 0.84456,0.87938 1.692,1.7561 2.52836,2.64321 0.19935,0.21148 0.38059,0.43102 0.1764,0.77387 -0.77486,1.30112 -1.52548,2.6167 -2.29148,3.92319 -0.76558,1.30584 -1.54814,2.60174 -2.30627,3.91184 -1.10007,1.90092 -2.18787,3.80896 -3.2744,5.71765 -0.34797,0.61131 -0.67515,1.23449 -1.01184,1.8522 H 665.5151 c 0.2059,-0.70702 0.45456,-1.418 0.72554,-2.12033 0.60213,-1.56056 1.21607,-3.11656 1.8242,-4.6748 0.84725,-2.17082 1.6938,-4.34194 2.53886,-6.51361 0.0131,-0.0328 0.002,-0.0718 0.002,-0.1482 -1.34174,-0.93367 -2.7022,-1.87905 -4.06125,-2.82643 -2.20764,-1.53899 -4.41434,-3.07928 -6.67618,-4.66279 -0.46819,-0.3442 -0.8739,-0.6563 -1.30033,-0.93689 -0.10983,-0.0725 -0.30918,-0.10393 -0.42642,-0.0551 -1.07318,0.44597 -2.1442,0.89872 -3.20152,1.38092 -0.62318,0.28426 -1.31714,0.52006 -1.80406,0.96803 -0.56558,0.52043 -0.93407,1.25312 -1.39748,1.88686 -1.25269,1.71305 -2.5142,3.41971 -3.76473,5.13433 -0.80725,1.10689 -1.60138,2.22332 -2.40138,3.33548 -3.01341,0.007 -6.02683,0.0131 -9.04021,0.0164 -2.88269,0.003 -5.76538,8.5e-4 -8.64808,0 -0.71118,-2.3e-4 -0.73852,-0.023 -0.73924,-0.71351 -0.003,-2.48961 0.01,-4.97926 -0.01,-7.46873 -0.003,-0.4162 0.14393,-0.62738 0.53853,-0.69338 1.34518,-0.22525 2.69098,-0.44702 4.03508,-0.67873 1.07066,-0.18459 2.13853,-0.38557 3.20886,-0.57226 1.28748,-0.22459 2.57535,-0.44738 3.86506,-0.65882 0.40298,-0.0659 0.70262,-0.20393 0.92475,-0.59679 1.20876,-2.13839 2.45243,-4.25699 3.67761,-6.3862 1.04879,-1.82276 2.12499,-3.63132 3.11456,-5.48591 0.38578,-0.72295 1.02938,-0.9543 1.67273,-1.24276 1.91062,-0.85672 3.82833,-1.69764 5.74283,-2.54577 1.36302,-0.60381 2.44679,-1.01007 4.08925,-1.81073 0.1,-0.0485 -4.41178,-4.01128 -6.38995,-5.47853 -1.91695,-1.4218 1.89558,-1.3842 -24.35823,11.70517 v -4.47299 c 0,-1.23581 0.0131,-2.47181 -0.007,-3.70732 -0.0131,-0.94915 -0.0574,-1.89846 -0.11377,-2.84614 -0.023,-0.40819 0.14623,-0.64324 0.47781,-0.85842 2.55646,-1.65942 5.09604,-3.34486 7.65873,-4.99447 0.4261,-0.27443 0.44272,-0.52961 0.30459,-0.96967 -0.35515,-1.13191 -0.56108,-2.2902 -0.39413,-3.49014 0.0164,-0.13148 -0.097,-0.35554 -0.21443,-0.41977 -0.65515,-0.35863 -1.32584,-0.68997 -1.99898,-1.01446 -1.78794,-0.86197 -3.58575,-1.70381 -5.36234,-2.5884 -0.21016,-0.10459 -0.44328,-0.42456 -0.44508,-0.64649 -0.0295,-3.4263 -0.0197,-6.8529 -0.0131,-10.27943 0,-0.17082 0.0892,-0.34144 0.14558,-0.54383 1.26547,0.57823 2.48194,1.13406 3.77663,1.70278 1.29367,0.57096 2.50826,1.13092 3.72492,1.68643 0.77433,0.35354 1.54633,0.71345 2.33364,1.03578 0.11181,0.0459 0.39849,-0.0666 0.44236,-0.17279 0.15738,-0.38043 0.24525,-0.78958 0.35928,-1.18787 m 41.08275,52.56214 c 0.60368,-0.76246 1.35886,-1.8738 1.45305,-2.02931 0.0456,-0.16459 0.0764,-0.26886 0.0423,-0.2905 -9.7527,-6.88112 -10.50238,-7.37984 -11.31438,-7.92276 -0.18984,-0.12984 -0.29934,-0.46525 -0.1882,-0.78718 2.03702,-3.3684 4.13188,-6.7565 6.21762,-10.10887 0.23771,-0.3819 0.21902,-0.74082 0.10426,-1.22728 -0.1459,-0.48446 -0.1718,-0.71164 -0.40367,-1.23469 -2.75679,-4.25902 -5.48106,-8.48739 -8.25401,-12.74094 -2.35945,-3.6185 -4.71945,-7.23663 -7.08903,-10.84851 -0.0616,-0.0938 -0.29148,-0.19213 -0.34898,-0.15442 -4.1769,2.75597 -26.31106,16.92937 -27.67834,17.90019 -0.50636,0.30393 -0.91859,0.64308 -0.9699,1.14866 -0.01,0.96751 0.0197,1.93547 0.0397,2.90308 0.007,0.21181 0.0413,0.42292 0.082,0.81938 8.51552,-5.2106 16.98671,-10.49598 25.6061,-15.53655 0.19377,-0.0987 0.36407,-0.28262 0.57223,-0.33397 0.18262,0.01 0.33325,0.15869 0.41515,0.29082 0.20459,0.32961 0.34193,0.70043 0.53921,1.03528 0.27476,0.46617 6.79408,13.99917 6.9148,14.26747 0.0925,0.34466 0.12426,0.7262 0.0164,1.04561 -1.43436,3.91594 -2.66731,7.90581 -4.04594,11.83952 -0.14459,0.41269 0.0295,0.6243 0.33158,0.83177 4.37951,3.09939 8.83021,6.09742 13.2151,9.18894 0.34646,0.25311 0.36243,0.57987 0.21377,0.94534 -0.23213,0.57043 -0.46817,1.13912 -0.69213,1.71266 -0.85591,2.1921 -1.70935,4.38519 -2.55991,6.57939 -0.24557,0.63367 -0.47856,1.27229 -0.71731,1.90862 0.0584,0.0341 0.11672,0.0685 0.17508,0.10295 m 7.44306,-53.08637 c -0.35738,-0.87302 -0.72741,-1.74079 -1.01325,-2.62928 1.07027,-0.4343 2.1185,-0.93768 3.21558,-1.28804 2.07033,-0.66118 2.54604,-2.50066 2.2022,-4.08335 -0.52092,0.2223 -1.02475,0.44886 -1.53702,0.65427 -2.12738,0.85301 -4.2623,1.68741 -6.38387,2.55446 -0.88191,0.36039 -1.04863,0.86564 -0.66705,1.73121 2.68144,6.6467 5.64712,13.25635 8.42217,19.83321 -2.09797,0.85187 -4.33876,1.75935 -6.43673,2.61125 0.0197,0.063 0.043,0.12591 0.0643,0.18886 0.1023,-0.007 0.20558,-0.002 0.30623,-0.0164 3.19047,-0.46544 6.24742,-0.9698 9.39769,-1.4281 0.2859,-0.0416 0.34128,-0.23508 0.21607,-0.5022 -0.31607,-0.67583 -0.62312,-1.35616 -0.92371,-2.03908 -0.75112,-1.70636 -1.49636,-3.41532 -2.2444,-5.12302 -0.94341,-2.15371 -1.88003,-4.31044 -2.83492,-6.45906 m -44.19174,-24.92693 c 0.20656,0.35007 0.40122,0.70774 0.62312,1.04774 0.16918,0.25902 0.38721,0.26525 0.67711,0.1341 0.98368,-0.44547 2.14355,-0.17115 3.02063,0.67725 0.78151,0.75597 1.13702,2.00338 0.57115,2.92217 -0.55357,0.89892 -0.29082,1.4517 0.36866,2.03243 0.0688,0.0607 0.12754,0.13803 0.17475,0.2177 0.18328,0.31082 0.38528,0.26328 0.64453,0.079 1.39715,-0.99328 2.82675,-1.94305 4.19236,-2.97755 0.49981,-0.37862 0.85446,-0.94879 1.34581,-1.45774 0.86485,-0.83724 1.22925,-1.92816 1.34623,-3.06246 0.1259,-1.22154 0.0554,-2.44627 -0.40712,-3.63666 -0.86432,-2.22332 -2.37197,-3.86106 -4.38358,-5.07886 -0.26524,-0.16066 -0.46459,-0.12525 -0.67593,0.12983 -0.56023,0.67591 -1.15312,1.3246 -1.72541,1.99066 -0.4401,0.51227 -0.8686,1.03453 -1.41348,1.68515 1.24272,0 2.30249,0 3.4123,0.007 0,0 0.0472,0.0164 0.0495,0.10164 -0.18918,0.40046 -0.3621,0.80948 -0.57046,1.19961 -0.474,0.88734 -0.93253,1.76072 -1.44623,2.6919 l -0.12558,0.11771 c -1.1778,0.35656 -4.72617,0.97505 -5.67801,1.18033 m 39.90351,40.50255 c 0,0 -0.002,-0.007 0,0 z"
         id="path3-6"
         sodipodi:nodetypes="ccssscssssscssssssccccssssssscsscsccsssssssscsssssssccssscscsssssscsssscsssssssssscssscssscsscsccsscccccccsccssscsscccssccsscsssccccscsssccccssssccsssssscscscssscccsccccc"
         style="stroke-width:0.112373" />
      <path
         fill="#ffa501"
         opacity="1"
         stroke="none"
         d="m 625.01087,373.68782 c 0,8.80234 0.0131,17.54849 -0.007,26.2946 -0.01,3.86531 -0.81623,7.57371 -2.50679,11.05146 -0.98656,2.02961 -2.24689,3.89784 -3.73909,5.61187 -2.03643,2.33922 -4.43401,4.19244 -7.14932,5.67532 -1.97558,1.07892 -4.06598,1.84102 -6.24024,2.35076 -2.34414,0.54954 -4.74509,0.75853 -7.14434,0.56925 -1.51892,-0.11967 -3.03099,-0.42509 -4.52447,-0.74758 -3.31476,-0.71583 -6.29161,-2.20056 -8.99752,-4.21633 -3.06705,-2.28479 -5.50611,-5.12821 -7.23142,-8.547 -0.65466,-1.29721 -1.27436,-2.6319 -1.71456,-4.01184 -0.45111,-1.4142 -0.75393,-2.89233 -0.9538,-4.36529 -0.1941,-1.43236 -0.23869,-2.89351 -0.24099,-4.3422 -0.0164,-11.72388 -0.01,-23.44784 -0.01,-35.17179 0,-0.82541 4.2e-4,-0.82659 0.85288,-0.82662 16.25619,-2e-4 32.51238,-2e-4 48.76857,6e-5 0.83597,0 0.83626,10e-4 0.83629,0.84296 0,3.25872 7e-5,6.51748 7e-5,9.83237 m -15.1397,38.31858 c -0.57675,-1.25997 -0.39144,-1.19921 -1.09131,-0.058 -0.87813,1.5301 -1.64994,2.58476 -2.5884,4.11696 -0.0295,0.0328 -0.0587,0.0643 -0.12491,0.0869 0,0 -0.038,-0.007 -0.0439,-0.0885 -0.001,-0.0164 0.003,-0.041 -0.003,-0.0554 -0.90754,-1.61696 -2.20338,-3.54348 -3.24151,-5.11519 -0.22263,-0.33699 -2.04161,3.45092 -2.28073,3.87571 -0.20393,0.36318 -0.36538,0.7502 -0.6042,1.08289 -0.0197,0.0672 -0.0403,0.1341 -0.0528,0.20164 0,0 3e-5,-0.01 -0.0869,-0.007 -0.0793,-0.0295 -0.19803,-0.039 -0.2318,-0.0967 -0.52902,-0.90961 -1.04945,-1.8242 -1.56679,-2.74053 -0.41062,-0.72735 -0.87607,-1.54079 -1.32764,-2.35043 -0.75089,1.13774 -1.21417,1.87341 -1.80578,2.87958 -0.55868,0.9501 -1.04701,1.62206 -1.66151,2.69859 1.8826,0.0295 3.75699,0.0397 5.61234,0.0682 0.24197,0.003 0.4841,0.002 0.72987,-0.003 0,0 -0.007,-0.002 -0.003,0.0875 -0.0131,0.10951 0.01,0.23869 -0.042,0.3259 -0.59305,1.02217 -1.20165,2.03525 -1.79571,3.05683 -0.30722,0.52846 -0.59377,1.06902 -0.94535,1.70489 0.95004,0.0387 1.78089,0.10262 2.61135,0.098 0.9822,-0.007 1.96459,-0.0593 2.94577,-0.11312 0.39578,-0.0197 0.48246,-0.26918 0.2741,-0.60633 -0.42272,-0.68439 -0.82282,-1.38265 -1.24164,-2.06954 -0.44544,-0.73062 -0.9017,-1.45469 -1.33925,-2.24269 -0.002,-0.0197 -0.003,-0.0413 0.0453,-0.0334 0.0197,-0.0328 0.0413,-0.0626 0.0541,-0.097 0,0 -0.003,0.01 0.10328,0.003 1.72728,-8.5e-4 3.45463,-0.007 5.18194,0.001 0.2059,8.6e-4 0.55479,-0.11147 0.34003,0.38797 -0.78842,1.49309 -1.57682,2.98617 -2.40623,4.55689 1.81361,-0.35033 3.51761,-0.73623 5.10309,-1.56643 -0.1023,-0.15409 -0.16656,-0.24524 -0.22492,-0.33993 -0.55803,-0.9044 -1.11508,-1.80941 -1.68243,-2.77696 -0.003,-0.042 -0.01,-0.0843 0.0738,-0.17573 0.19738,-0.0295 0.39456,-0.0862 0.5922,-0.0852 2.62876,0.0131 3.89788,0.0262 4.77568,0.0295 m -33.99385,-50.25755 c 0,0.24787 0,0.44869 0,0.64964 -0.0295,10.41644 0.0416,20.83305 0.003,31.24926 -0.002,1.02866 -0.0839,2.06102 0.003,3.08587 0.0574,0.67558 0.75505,4.28824 1.03351,5.15519 0.65197,2.02954 1.58427,3.94538 2.76328,5.71643 0.91122,1.3687 1.99853,2.6123 3.27299,3.76253 0.0397,0.0564 0.0793,0.11246 0.16492,0.2446 0.059,-0.10394 0.16918,-0.20787 0.16951,-0.31148 0.003,-1.72449 -0.007,-3.44905 0.002,-5.27765 v -2.66659 h 29.01211 c 0,0.83734 0,1.63954 -0.0131,2.54472 v 5.7385 c 5.16338,-4.92899 7.54263,-10.86191 7.18512,-17.98963 -0.007,-3.25473 0.0371,-25.87905 -0.0469,-31.88559 -45.23849,-0.0131 59.19763,-0.0131 -43.54862,-0.0131 z"
         id="path18"
         sodipodi:nodetypes="cssssssssssssscsscccccccssccccscscscccscssssccccscccsccsccccsssccccccccccc"
         style="stroke-width:0.112373" />
      <path
         fill="#ffa501"
         opacity="1"
         stroke="none"
         d="m 596.02735,338.21806 c 0.50689,-0.86193 1.01745,-1.67636 1.49974,-2.50725 0.64056,-1.10351 1.25506,-2.2221 1.89188,-3.32777 0.0846,-0.14689 0.23475,-0.2564 0.35442,-0.38302 0.13213,0.13607 0.29869,0.25246 0.39086,0.41174 1.10416,1.90784 2.19725,3.82204 3.32862,5.75037 0.55515,0.78239 -0.19442,1.24689 -0.41196,1.83154 -0.11968,0.32099 -0.33771,0.60502 -0.56437,0.95925 -0.21836,0.35469 -0.38331,0.65587 -0.57583,1.00685 3.04958,0.76453 5.24443,2.57122 6.63847,5.30037 0.48859,-0.68479 0.95613,-1.35633 1.44046,-2.01551 1.15079,-1.56626 2.75203,-2.5481 4.54971,-3.09653 1.79767,-0.54843 3.66181,-0.57964 5.52299,-0.0525 2.65115,0.75079 4.6247,2.34486 5.89949,4.73709 0.53475,1.00348 0.7676,2.16784 1.13773,3.25909 0.11214,1.81456 0.0577,3.61718 -0.77711,5.27801 -0.43485,0.86495 -0.9481,1.70833 -1.54181,2.47128 -0.79685,1.02407 -1.69164,1.97413 -2.57875,2.92384 -0.17509,0.18721 -0.50574,0.32361 -0.76483,0.32361 -14.45861,0.0131 -28.91725,0.0131 -43.37586,0.003 -0.23246,-2.3e-4 -0.54387,-0.0872 -0.68463,-0.25017 -1.18842,-1.37233 -2.40551,-2.72676 -3.4943,-4.17643 -0.95698,-1.2742 -1.3677,-2.79774 -1.4882,-4.38492 -0.0357,-0.47122 -0.0131,-0.94689 -0.0131,-1.51519 0.0728,-1.13951 0.31115,-2.15148 0.72216,-3.10682 0.58532,-1.36072 1.45879,-2.51237 2.57011,-3.51276 2.04265,-1.83882 4.45181,-2.50564 7.12968,-2.38243 1.21603,0.0561 2.37472,0.38361 3.46948,0.91308 1.30338,0.6304 2.45128,1.46948 3.3224,2.64161 0.47252,0.63581 0.90577,1.30079 1.386,1.99492 0.59325,-1.42029 1.52335,-2.59807 2.71482,-3.45898 1.16164,-0.83932 2.51342,-1.41542 3.79122,-2.11224 -0.12295,-0.19475 -0.3059,-0.48393 -0.48885,-0.77318 -0.30295,-0.54046 -0.5863,-1.09321 -0.91544,-1.61721 -0.2282,-0.36345 -0.38338,-0.70001 -0.0862,-1.13319 m 18.12638,11.7155 c 0,0.81895 0,1.6379 0,2.45685 0.0603,-7.8e-4 0.12099,-0.002 0.18131,-0.002 0,-0.66564 0,-1.33134 -0.003,-2.0779 0.62941,-1.36961 1.41823,-2.2225 3.81859,-2.01292 0.97436,0.0849 2.06565,0.97823 2.45142,2.33502 0.33928,-1.20299 -0.6763,-3.0847 -2.34299,-3.44627 -2.02154,-0.43859 -3.82102,0.76046 -4.10538,2.74761 m -10.5574,6.7908 c 1.74502,-1.4801 2.8004,-3.49876 2.58486,-5.05968 -0.88702,3.07882 -2.84381,4.95787 -5.98122,5.12669 -3.54368,0.1905 -5.76775,-1.72908 -6.90218,-5.04148 0.10984,0.73013 0.22459,1.45279 0.48007,2.12164 0.7061,1.84873 2.05712,3.09142 3.90909,3.71896 0.94151,0.31902 1.92269,0.47751 2.96905,0.28295 1.04512,-0.1941 1.98817,-0.55089 2.94033,-1.14918 m 7.47867,-4.62535 c 0.20262,0.78669 0.28098,1.63469 0.63377,2.34698 0.69017,1.39407 1.82505,2.37502 3.27692,2.99443 1.44666,0.61719 2.92286,0.69666 4.39355,0.22689 1.52522,-0.48702 2.74702,-1.42167 3.61601,-2.80115 0.56488,-0.89679 0.97315,-2.3183 0.82475,-3.1122 -0.0443,0.11901 -0.0993,0.23508 -0.13115,0.35747 -0.69508,2.65879 -2.96111,4.43608 -5.6003,4.70158 -2.78033,0.28 -5.53001,-1.28101 -6.61801,-3.99967 -0.12098,-0.3023 -0.22721,-0.6101 -0.34026,-0.91538 -0.0131,0.023 -0.0328,0.0479 -0.0443,0.0738 -0.007,0.0164 -0.007,0.0367 -0.0131,0.12721 m -22.48295,-0.0416 c -0.0498,-0.0551 -0.0997,-0.11049 -0.16361,-0.18131 -0.81915,2.85355 -2.72049,4.62958 -5.63171,4.90043 -3.55263,0.3305 -5.88119,-1.50469 -7.09775,-4.8224 0.11279,2.17266 1.13191,3.84083 2.91256,4.97211 1.80866,1.14905 3.78899,1.38105 5.82106,0.5719 1.50354,-0.59872 2.73489,-1.53269 3.37948,-3.06915 0.31213,-0.74377 0.52486,-1.52918 0.77987,-2.37138 m -7.02132,-4.88876 c -1.5463,0.12 -2.83564,1.82033 -2.57358,3.394 0.75089,-1.79751 1.62076,-2.44813 3.93145,-2.27135 0.98931,0.0757 2.23679,1.2686 2.48666,2.39047 0.24426,-2.52292 -1.97115,-3.88922 -3.84453,-3.51312 m 19.05045,1.12377 c 1.21404,0.28525 1.97037,1.08443 2.44558,2.33102 0.15804,-2.10817 -1.39659,-3.54748 -3.2841,-3.5385 -2.07692,0.01 -3.4001,1.89299 -3.15761,3.49197 0.0708,-0.0987 0.14688,-0.16196 0.16787,-0.24032 0.23475,-0.87515 0.83521,-1.41046 1.60174,-1.83286 0.6916,-0.38108 1.41921,-0.12688 2.22636,-0.21115 z"
         id="path19"
         style="stroke-width:0.112373" />
      <path
         fill="#ffa500"
         opacity="1"
         stroke="none"
         d="m 608.39318,367.37712 c 0.48692,0.003 0.97387,0.01 1.51315,0.007 0.34908,-10e-4 0.6458,0.003 0.99062,0.002 1.13918,-0.003 2.23033,10e-4 3.37214,-0.003 1.45721,-0.0744 2.86364,-0.14295 4.27027,-0.20557 0.28,-0.0131 0.56121,-0.0131 0.84118,-0.003 0.38095,0.0131 0.56783,0.24032 0.56967,0.60711 0.007,1.19679 0.003,2.39358 0.002,3.59033 -0.001,0.43696 -0.23901,0.64525 -0.66282,0.62846 -0.72249,-0.0295 -1.444,-0.0908 -2.16656,-0.10524 -0.89718,-0.0164 -1.79502,-8.5e-4 -2.7458,0.01 -0.1823,0.007 -0.31148,0.007 -0.48928,0.007 0,1.91446 0,3.82679 0.01,5.79339 0.002,2.21777 -0.0164,4.38145 3.3e-4,6.54479 0.007,0.52912 0.12197,1.05869 0.20525,1.58525 0.0911,0.57699 -0.14853,0.87807 -0.74095,0.88876 -0.39164,0.007 -0.78342,0.007 -1.27191,0.007 -0.30656,0.003 -0.516,0.007 -0.78357,0.002 -0.65407,-0.007 -1.2502,-0.003 -1.8462,-0.01 -0.57909,-0.007 -0.74787,-0.16885 -0.73659,-0.76164 0.007,-0.34642 0.0993,-0.6916 0.10131,-1.03764 0.007,-1.3221 -0.007,-2.6443 -0.007,-4.01643 0.002,-2.05669 -0.003,-4.06341 4.3e-4,-6.12381 0.01,-0.99459 0.01,-1.93548 0.01,-2.8922 -0.8618,0 -1.64361,-0.0131 -2.42462,0.003 -0.81187,0.0197 -1.62276,0.0872 -2.4346,0.10098 -0.4521,0.01 -0.9862,0.16852 -1.22485,-0.44338 0.007,-1.21213 0.0164,-2.42426 0.0131,-3.63636 -10e-4,-0.43299 0.14033,-0.71892 0.70682,-0.75102 1.70574,0.0702 3.31748,0.14164 4.92926,0.21279 z"
         id="path247"
         style="stroke-width:0.112373" />
      <path
         fill="#ffa500"
         opacity="1"
         stroke="none"
         d="m 615.40984,402.21888 c 0.0669,-0.003 0.0849,10e-4 0.10328,0.002 1.58528,0.0131 1.53404,-0.1177 1.51902,1.61086 -0.007,0.63184 3.9e-4,1.26374 0.01,1.94879 -0.0131,0.34374 0.0295,0.65849 -0.0711,0.91607 -0.0656,0.16623 -0.34344,0.24852 -0.56944,0.37655 -1.20922,-0.0367 -2.37522,-0.0816 -3.6269,-0.17016 -0.29082,-0.0508 -0.49596,-0.0662 -0.70088,-0.0636 -2.85335,0.0357 -5.7066,0.0764 -8.55995,0.10918 -0.8743,0.01 -1.00554,-0.14426 -0.97902,-1.00013 0.0456,-1.46997 0.10361,-2.94027 0.10853,-4.4106 0.0131,-3.30748 -0.01,-6.61509 -0.007,-9.97083 -0.0295,-1.14233 -0.0616,-2.23656 -0.10131,-3.33056 -0.0164,-0.50974 0.21836,-0.73823 0.72764,-0.73 0.55977,0.01 1.11997,-0.01 1.73669,-0.01 0.56069,0.003 1.06472,-0.002 1.61869,0.002 0.14197,0.01 0.2341,0.01 0.32623,0.0131 0.75518,0.003 0.88184,0.12295 0.86876,0.89338 -0.007,0.37695 -0.058,0.75308 -0.0964,1.18171 -0.003,1.24561 0.002,2.43918 4e-5,3.68659 -0.002,1.11027 0.002,2.1667 -10e-4,3.27578 -0.002,1.73833 0.003,3.42407 0.01,5.10981 0,0.2023 0,0.40498 0,0.73951 2.56072,-0.0574 5.09945,-0.1141 7.68663,-0.17803 z"
         id="path248"
         style="stroke-width:0.112373" />
      <path
         fill="#ffa500"
         opacity="1"
         stroke="none"
         d="m 586.80318,406.85656 c -0.76469,-0.007 -1.52935,-0.0131 -2.29401,-0.0164 -0.88311,-0.003 -1.00439,-0.1459 -0.96767,-1.04731 0.0498,-1.22292 0.0793,-2.44672 0.1141,-3.67023 0.007,-0.22394 -0.002,-0.44777 -0.0131,-0.72299 -8.5e-4,-4.05892 0.01,-8.0665 0.007,-12.07411 -1.3e-4,-0.36846 -0.0826,-0.73617 -0.10328,-1.10551 -0.0262,-0.48771 0.22164,-0.71351 0.70869,-0.71033 0.88017,0.007 1.76043,-8.6e-4 2.74515,-4e-4 0.3841,0.003 0.66784,0.0351 0.94246,-0.002 0.63086,-0.0836 0.93869,0.22032 1.23138,0.75718 0.50164,0.92036 1.11827,1.77803 1.6841,2.69856 0.25804,0.41285 0.51978,0.78813 0.77833,1.16564 0.82905,1.21043 1.65689,2.42168 2.4826,3.66961 0.49721,0.76141 0.99698,1.48587 1.5422,2.27617 0,-1.68033 0,-3.26787 0.007,-4.90617 -0.0295,-1.66427 -0.0718,-3.27761 -0.0977,-4.89126 -0.01,-0.58927 0.17016,-0.75793 0.756,-0.76475 0.89318,-0.0131 1.78643,-0.0131 2.73374,-0.0131 0.35239,0.01 0.65102,0.0164 0.94895,0.01 0.50768,-0.0164 0.75643,0.21738 0.72525,0.72564 -0.0295,0.49587 -0.10328,0.99089 -0.10525,1.4865 -0.01,1.73357 0.007,3.46725 0.007,5.25351 -0.01,1.80932 -0.0262,3.5662 -0.007,5.3227 0.0197,1.91908 0.0672,3.83787 0.11082,5.75663 0.0131,0.48826 -0.15344,0.78761 -0.69216,0.786 -1.38295,-0.003 -2.76627,0.0131 -4.14853,-0.0164 -0.21115,-0.007 -0.49633,-0.17246 -0.61364,-0.35177 -1.03709,-1.58709 -2.04397,-3.19384 -3.07899,-4.83083 -1.18197,-1.76171 -2.34476,-3.48745 -3.58702,-5.33112 0,0.69524 0,1.2442 -0.007,1.84361 -0.01,2.12656 -0.0164,4.20272 -0.007,6.27876 0.003,0.57393 0.078,1.14715 0.10394,1.72141 0.0197,0.45735 -0.21312,0.68567 -0.67374,0.68708 -0.41115,10e-4 -0.8223,0.0131 -1.23345,0.0164 z"
         id="path253"
         style="stroke-width:0.112373" />
      <path
         fill="#ffa500"
         opacity="1"
         stroke="none"
         d="m 594.4087,369.87496 c 0.25311,0.54735 0.47128,1.07364 0.70098,1.68528 0.0482,0.2623 0.10459,0.43817 0.11771,0.61702 0.0643,0.8561 -0.0364,0.96295 -0.89387,1.06433 -0.50876,0.06 -1.0125,0.16885 -1.5222,0.21312 -0.70066,0.061 -1.40476,0.0839 -2.10758,0.11934 -0.33882,0.0164 -0.5442,-0.14525 -0.64194,-0.47125 -0.0767,-0.25672 -0.15737,-0.51675 -0.27442,-0.75665 -0.63023,-1.29135 -2.93322,-1.3664 -3.90355,-0.49204 -0.77311,0.69663 -0.6641,1.22987 -0.0131,1.73168 0.23967,0.18492 0.52006,0.35705 0.80859,0.43111 1.16279,0.29836 2.336,0.5565 3.53325,0.85886 0.55587,0.18623 1.09987,0.3036 1.60882,0.50823 1.34623,0.54098 2.53486,1.27039 3.19001,2.66748 0.44485,0.94865 0.59111,1.9338 0.56973,3.00951 -0.0977,0.72367 -0.18819,1.39872 -0.30688,2.09958 -0.3359,1.08029 -1.044,1.87357 -1.78679,2.68675 -0.36656,0.16525 -0.70764,0.29345 -1.02872,0.45981 -1.16135,0.60203 -2.39322,0.88318 -3.69909,0.86702 -0.54099,-0.007 -1.08233,0.0131 -1.62351,0.0164 -1.33033,-1.3e-4 -2.63063,-0.20262 -3.81673,-0.81312 -0.67915,-0.3497 -1.27902,-0.85334 -1.94325,-1.30583 -0.91213,-1.05053 -1.43357,-2.23863 -1.60931,-3.6666 -0.0446,-1.19544 -0.007,-1.25944 0.79279,-1.32259 1.32977,-0.11017 2.61023,-0.22787 3.9263,-0.32492 0.15934,0.22787 0.3059,0.42488 0.40206,0.644 0.20984,0.47872 0.29377,1.04961 0.60764,1.43885 0.91899,1.13965 2.92122,1.24102 4.17427,0.45978 0.74663,-0.46548 1.16656,-1.65663 0.0131,-2.29706 -1.43637,-0.79905 -3.05217,-1.01826 -4.65804,-1.39285 -0.99705,-0.468 -1.95161,-0.90807 -2.93122,-1.39594 -0.31049,-0.26131 -0.57259,-0.52449 -0.79115,-0.82246 -0.89656,-1.22233 -1.11279,-2.61672 -1.02439,-4.09633 0.1,-1.67407 0.7978,-3.06184 2.16767,-3.97437 0.86417,-0.57564 1.80659,-0.84951 2.93224,-1.18161 1.18449,-0.14524 2.32898,-0.22688 3.51039,-0.18 1.84325,0.0728 3.50414,0.67492 4.8268,2.02112 0.25279,0.25738 0.43918,0.57997 0.69125,0.89354 z"
         id="path254"
         sodipodi:nodetypes="ccssssssssccsscccsscsccccscssccssscssc"
         style="stroke-width:0.112373" />
      <path
         fill="#ffa500"
         opacity="1"
         stroke="none"
         d="m 602.05117,367.48191 c 0.5337,0.5479 0.0928,1.13977 0.12492,1.70479 0.0433,0.74944 -0.0505,1.50679 -0.0862,2.36548 0.007,1.16436 0.01,2.22394 0.007,3.33381 -0.003,2.44344 0.003,4.83663 8.6e-4,7.28227 0.0721,1.36535 0.15082,2.67813 0.22131,4.03427 -0.1059,0.43187 -0.37863,0.52901 -0.74666,0.52472 -0.72338,-0.01 -1.44708,0.01 -2.22368,0.01 -0.55868,-0.01 -1.06432,-0.01 -1.5699,-0.0131 -0.72741,-0.003 -0.88003,-0.15443 -0.85764,-0.89518 0.01,-0.25672 0.10164,-0.51213 0.10197,-0.76817 10e-4,-3.40797 -0.007,-6.81601 -0.007,-10.27765 0.003,-1.11308 -0.002,-2.17253 -0.007,-3.23197 -0.0328,-1.02207 -0.0708,-2.04404 -0.0895,-3.06637 -0.007,-0.39049 -0.1259,-0.83715 0.40079,-1.08511 1.38853,-0.0131 2.7403,-0.0131 4.09204,-10e-5 0.19639,0.002 0.39217,0.0488 0.6361,0.0836 z"
         id="path260"
         style="stroke-width:0.112373" />
    </g>
  </g>
</svg>
